;TYPE=PLATED
;Layer: PTH_Through_Via
;EasyEDA Pro Client v2.2.47.7, 2026-08-14 13:35:04
;Gerber Generator version 0.3
M48
METRIC,LZ,0000.00000
;Hole size 1 = 0.30000 METRIC
T01C0.30000
;Hole size 2 = 0.40000 METRIC
T02C0.40000
%
G05
G90
T01
X53.6998Y-14.83833
X54.23861Y-14.29952
X61.0108Y-39.29603
X60.2488Y-39.29603
X64.27669Y-23.48409
X64.80377Y-22.93355
X72.9615Y-18.3515
X42.418Y-64.897
X21.463Y-89.789
X65.35242Y-22.40458
X61.79639Y-39.29603
X10.795Y-86.995
X43.32503Y-71.67603
X48.32503Y-71.67603
X53.32503Y-71.67603
X43.32503Y-76.67603
X48.32503Y-76.67603
X53.32503Y-76.67603
X43.32503Y-81.67603
X53.32503Y-81.67603
X43.32503Y-86.67603
X48.32503Y-86.67603
X53.32503Y-86.67603
X43.32503Y-91.67603
X48.32503Y-91.67603
X53.32503Y-91.67603
X19.148Y-14.576
X24.148Y-14.576
X19.148Y-19.576
X24.148Y-19.576
X19.148Y-24.576
X24.148Y-24.576
X19.148Y-29.576
X24.148Y-29.576
X19.148Y-34.576
X24.148Y-34.576
X19.148Y-44.576
X24.148Y-44.576
X19.148Y-49.576
X24.148Y-49.576
X63.119Y-39.243
X63.119Y-44.323
X63.119Y-49.403
X63.119Y-54.483
X63.119Y-64.643
X63.119Y-74.803
X63.119Y-79.883
X63.119Y-84.963
X63.119Y-95.123
X63.119Y-100.203
X63.119Y-105.283
X48.32503Y-81.67603
X49.276Y-6.858
X52.8681Y-10.4501
X60.05231Y-17.63431
X63.75683Y-20.955
X27.99113Y-103.25
X27.99113Y-98.17
X27.99113Y-93.09
X27.99113Y-82.93
X27.99113Y-77.85
X27.99113Y-72.77
X27.99113Y-67.69
X27.99113Y-62.61
T02
X21.13305Y-6.49869
X40.767Y-34.163
X45.212Y-34.163
M30