;TYPE=PLATED
;Layer: PTH_Through
;EasyEDA Pro Client v2.2.47.7, 2026-08-14 13:35:04
;Gerber Generator version 0.3
M48
METRIC,LZ,0000.00000
;Hole size 1 = 0.30000 METRIC
T01C0.30000
;Hole size 2 = 0.40000 METRIC
T02C0.40000
;Hole size 3 = 0.70002 METRIC
T03C0.70002
;Hole size 4 = 0.81280 METRIC
T04C0.81280
;Hole size 5 = 0.89916 METRIC
T05C0.89916
;Hole size 6 = 0.91440 METRIC
T06C0.91440
;Hole size 7 = 1.01600 METRIC
T07C1.01600
;Hole size 8 = 1.02001 METRIC
T08C1.02001
;Hole size 9 = 1.10002 METRIC
T09C1.10002
;Hole size 10 = 1.20000 METRIC
T10C1.20000
;Hole size 11 = 2.50000 METRIC
T11C2.50000
%
G05
G90
T01
X53.6998Y-14.83833
X54.23861Y-14.29952
X61.0108Y-39.29603
X60.2488Y-39.29603
X64.27669Y-23.48409
X64.80377Y-22.93355
X72.9615Y-18.3515
X42.418Y-64.897
X21.463Y-89.789
X65.35242Y-22.40458
X61.79639Y-39.29603
X10.795Y-86.995
X43.32503Y-71.67603
X48.32503Y-71.67603
X53.32503Y-71.67603
X43.32503Y-76.67603
X48.32503Y-76.67603
X53.32503Y-76.67603
X43.32503Y-81.67603
X53.32503Y-81.67603
X43.32503Y-86.67603
X48.32503Y-86.67603
X53.32503Y-86.67603
X43.32503Y-91.67603
X48.32503Y-91.67603
X53.32503Y-91.67603
X19.148Y-14.576
X24.148Y-14.576
X19.148Y-19.576
X24.148Y-19.576
X19.148Y-24.576
X24.148Y-24.576
X19.148Y-29.576
X24.148Y-29.576
X19.148Y-34.576
X24.148Y-34.576
X19.148Y-44.576
X24.148Y-44.576
X19.148Y-49.576
X24.148Y-49.576
X63.119Y-39.243
X63.119Y-44.323
X63.119Y-49.403
X63.119Y-54.483
X63.119Y-64.643
X63.119Y-74.803
X63.119Y-79.883
X63.119Y-84.963
X63.119Y-95.123
X63.119Y-100.203
X63.119Y-105.283
X48.32503Y-81.67603
X49.276Y-6.858
X52.8681Y-10.4501
X60.05231Y-17.63431
X63.75683Y-20.955
X27.99113Y-103.25
X27.99113Y-98.17
X27.99113Y-93.09
X27.99113Y-82.93
X27.99113Y-77.85
X27.99113Y-72.77
X27.99113Y-67.69
X27.99113Y-62.61
T02
X21.13305Y-6.49869
X40.767Y-34.163
X45.212Y-34.163
T03
X16.80685Y-91.44
X6.30715Y-91.44
X69.17215Y-91.567
X79.67185Y-91.567
T04
X79.63154Y-98.933G85X79.62646Y-98.933
X82.17154Y-98.933G85X82.16646Y-98.933
X6.35254Y-99.06G85X6.34746Y-99.06
X8.89254Y-99.06G85X8.88746Y-99.06
T05
X47.1171Y-9.77892
X44.5771Y-9.77892
X42.0371Y-9.77892
X42.03708Y-12.3191
X44.57708Y-12.3191
X47.11708Y-12.3191
T06
X72.01154Y-14.224G85X72.00646Y-14.224
X74.55154Y-14.224G85X74.54646Y-14.224
X77.09154Y-14.224G85X77.08646Y-14.224
X76.89799Y-59.43597
X85.598Y-59.436
X85.59787Y-73.9361
X76.89787Y-73.93607
X84.99861Y-47.50002
X84.99861Y-44.96002
X84.99861Y-42.42002
X84.99861Y-39.88002
X84.99861Y-37.34002
X84.99861Y-34.80002
X4.99872Y-35.00097
X4.99872Y-37.54097
X4.99872Y-40.08097
X4.99872Y-42.62097
X4.99872Y-45.16097
X4.99872Y-47.70097
X20.32Y-83.439
X20.32Y-80.899
X20.32Y-78.359
X20.32Y-75.819
X20.32Y-73.279
X20.32Y-70.739
X20.32Y-68.199
X20.32Y-65.659
X7.62Y-68.199
X7.62Y-70.739
X7.62Y-73.279
X7.62Y-75.819
X7.62Y-78.359
X7.62Y-80.899
X7.62Y-83.439
X7.62Y-65.659
X16.80693Y-91.44
X69.17207Y-91.567
X74.42205Y-2.66695
X71.88205Y-2.66695
X69.34205Y-2.66695
X66.80205Y-2.66695
X64.26205Y-2.66695
X61.72205Y-2.66695
X33.528Y-2.794
X36.068Y-2.794
X38.608Y-2.794
T07
X52.832Y-27.813
X50.292Y-27.813
X47.752Y-27.813
X45.212Y-27.813
X42.672Y-27.813
X40.132Y-27.813
X52.832Y-45.593
X50.292Y-45.593
X47.752Y-45.593
X45.212Y-45.593
X42.672Y-45.593
X40.132Y-45.593
X23.74671Y-2.84455G85X23.75179Y-2.84455
X21.25751Y-2.84455G85X21.26259Y-2.84455
X26.23591Y-2.84455G85X26.24099Y-2.84455
T08
X34.29003Y-62.61097
X34.29003Y-65.15097
X34.29003Y-67.69097
X34.29Y-70.23097
X34.29Y-72.77097
X34.29Y-75.31097
X34.29Y-77.85097
X34.29Y-80.39097
X34.28997Y-82.93097
X34.28997Y-85.47097
X34.28997Y-88.01097
X34.28997Y-90.55097
X34.28997Y-93.09097
X34.28995Y-95.63097
X34.28995Y-98.17097
X59.69003Y-62.61103
X59.69003Y-65.15103
X59.69003Y-67.69103
X59.69Y-70.23103
X59.69Y-72.77103
X59.69Y-75.31103
X59.69Y-77.85103
X59.69Y-80.39103
X59.68997Y-82.93103
X59.68997Y-85.47103
X59.68997Y-88.01103
X59.68997Y-90.55103
X59.68997Y-93.09103
X59.68995Y-95.63103
X59.68995Y-98.17103
T09
X7.493Y-54.864
X7.493Y-57.404
T10
X9.61588Y-12.82489
X9.61598Y-18.92496
X5.11602Y-12.82504
X5.11612Y-18.92511
T11
X10.287Y-2.286
X5.842Y-2.286
M30