G04 Layer: DrillDrawingLayer*
G04 EasyEDA Pro v2.2.47.7, 2026-08-14 13:35:04*
G04 Gerber Generator version 0.3*
G04 Scale: 100 percent, Rotated: No, Reflected: No*
G04 Dimensions in millimeters*
G04 Leading zeros omitted, absolute positions, 4 integers and 5 decimals*
G04 Generated by one-click*
G04 Object Configs: Pad,Via,Track,Text,Image,Dimension,BoardOutline,BoardCutout,CopperFilled,SolidRegion,FPCStiffener,Line,PlaneZone,ComponentProperty,ComponentSilkscreen,TearDrop*
G04 Layer Configs: 1,2,3,4,5,6,7,8,9,10,11,13,14,56*
G04 Copper Areas: 0*
%FSLAX45Y45*%
%MOMM*%
%AMIconRect*4,1,4,0.28,-0.28,-0.28,-0.28,-0.28,0.28,0.28,0.28,0.28,-0.28,0*4,0,4,0.233333,-0.233333,0.233333,0.233333,-0.233333,0.233333,-0.233333,-0.233333,0.233333,-0.233333,0*%
%AMIconTriangle*4,1,3,-0.339593,0.240473,0.339593,0.240473,0,-0.37884,-0.339593,0.240473,0*4,0,3,-0.265673,0.19404,0,-0.27342,0.266233,0.19404,-0.265673,0.19404,0*%
%AMIconStar6*4,1,12,0.12068,0.20888,0.298527,0.172713,0.241313,0,0.298527,-0.17206,0.12068,-0.208227,0,-0.344073,-0.120073,-0.208227,-0.298573,-0.17206,-0.240707,0,-0.298573,0.17206,-0.120073,0.20888,0,0.344073,0.12068,0.20888,0*4,0,12,-0.000467,0.273467,-0.090067,0.171733,-0.237533,0.136733,-0.193667,-0.007467,-0.237533,-0.1372,-0.090067,-0.171733,-0.000467,-0.273933,0.090067,-0.171733,0.237533,-0.1372,0.194133,0.007,0.237533,0.1372,0.090067,0.171267,-0.000467,0.273467,0*%
%AMIconStar4*4,1,8,-0.311733,0.311733,0,0.202533,0.311733,0.311733,0.202533,0,0.311733,-0.311733,0,-0.202533,-0.304407,-0.311733,-0.202533,0,-0.311733,0.311733,0*4,0,8,0.233333,-0.233333,0.1512,0,0.233333,0.233333,0,0.1512,-0.233333,0.233333,-0.1512,0,-0.233333,-0.233333,0,-0.1512,0.233333,-0.233333,0*%
%AMIconPlus*4,1,12,0.1736,-0.28,-0.1736,-0.28,-0.1736,-0.1736,-0.28,-0.1736,-0.28,0.1736,-0.1736,0.1736,-0.1736,0.28,0.1736,0.28,0.1736,0.1736,0.28,0.1736,0.28,-0.1736,0.1736,-0.1736,0.1736,-0.28,0*4,0,12,0.126933,-0.233333,0.126933,-0.126933,0.233333,-0.126933,0.233333,0.126933,0.126933,0.126933,0.126933,0.233333,-0.126933,0.233333,-0.126933,0.126933,-0.233333,0.126933,-0.233333,-0.126933,-0.126933,-0.126933,-0.126933,-0.233333,0.126933,-0.233333,0*%
%AMIconX*4,1,16,0.28,-0.28,0.076347,-0.28,0,-0.203653,-0.076347,-0.28,-0.28,-0.28,-0.28,-0.076347,-0.203653,0,-0.28,0.076347,-0.28,0.28,-0.076347,0.28,0,0.203653,0.076347,0.28,0.28,0.28,0.28,0.076347,0.203653,0,0.28,-0.076347,0.28,-0.28,0*4,0,16,0.23352,-0.23296,0.23352,-0.095853,0.137107,0.000093,0.23352,0.095853,0.23352,0.2331,0.095853,0.2331,0,0.137107,-0.095853,0.2331,-0.23352,0.2331,-0.23352,0.095853,-0.137107,0.000093,-0.23352,-0.095853,-0.23352,-0.23296,-0.095853,-0.23296,0,-0.137107,0.095853,-0.23296,0.23352,-0.23296,0*%
%AMIconDiamond*4,1,4,0,-0.364,-0.364,0,0,0.364,0.364,0,0,-0.364,0*4,0,4,0,-0.284807,0.284807,0,0,0.28504,-0.284807,0,0,-0.284807,0*%
%AMIconRect2*4,1,6,0.28,-0.28,-0.28,-0.28,-0.28,0.28,-0.23352,0.2331,-0.233333,-0.233333,0.23352,-0.233333,0.28,-0.28,0*4,1,6,0.28,-0.28,0.23352,-0.233333,0.23352,0.2331,-0.23352,0.2331,-0.28,0.28,0.28,0.28,0.28,-0.28,0*4,1,6,0.186853,-0.186667,-0.186667,-0.186667,-0.186667,0.186853,-0.14,0.140187,-0.14,-0.14,0.140187,-0.14,0.186853,-0.186667,0*4,1,6,0.186853,-0.186667,0.140187,-0.14,0.140187,0.140187,-0.14,0.140187,-0.186667,0.186853,0.186853,0.186853,0.186853,-0.186667,0*%
%AMCharA*4,1,8,-0.341787,-0.52192,-0.42896,-0.488693,-0.042373,0.52192,0.0448,0.52192,0.42896,-0.488693,0.341787,-0.52192,0.21392,-0.18536,-0.213173,-0.18536,-0.341787,-0.52192,0*4,0,3,-0.177333,-0.092027,0.178267,-0.092027,0.000933,0.37464,-0.177333,-0.092027,0*%
%AMCharB*4,1,17,-0.367173,-0.53032,-0.367173,0.53032,0.093893,0.53032,0.246587,0.482907,0.31192,0.424853,0.367173,0.319573,0.3668,0.186107,0.320133,0.09464,0.265253,0.03584,0.242107,0.02352,0.265253,0.010827,0.320133,-0.047973,0.3668,-0.13944,0.367173,-0.319573,0.31192,-0.424853,0.246587,-0.48328,0.093893,-0.53032,-0.367173,-0.53032,0*4,0,10,-0.27384,-0.436987,0.086427,-0.436987,0.206827,-0.3976,0.240427,-0.364373,0.278693,-0.28784,0.278693,-0.17192,0.240427,-0.096693,0.206827,-0.06328,0.086427,-0.024267,-0.27384,-0.024267,-0.27384,-0.436987,0*4,0,10,-0.27384,0.069067,0.08624,0.069067,0.206827,0.109947,0.240427,0.143547,0.278693,0.218587,0.278693,0.287467,0.240427,0.364373,0.206827,0.3976,0.086427,0.436987,-0.27384,0.436987,-0.27384,0.069067,0*%
%AMCharC*4,1,36,-0.077093,-0.53032,-0.201413,-0.47152,-0.30352,-0.365867,-0.350933,-0.2688,-0.39984,-0.115733,-0.39984,0.115733,-0.34832,0.2744,-0.294747,0.378187,-0.189093,0.480667,-0.077093,0.53032,0.107893,0.53032,0.232587,0.47152,0.334507,0.365867,0.39984,0.2324,0.316027,0.19152,0.254427,0.317707,0.17192,0.400213,0.097253,0.436987,-0.06608,0.436987,-0.140933,0.400213,-0.223253,0.317707,-0.263387,0.236133,-0.306507,0.10808,-0.306507,-0.10808,-0.263387,-0.236133,-0.223253,-0.317707,-0.140933,-0.400027,-0.06608,-0.436987,0.097253,-0.436987,0.17192,-0.400027,0.254427,-0.317707,0.316027,-0.19152,0.39984,-0.2324,0.334507,-0.365867,0.232587,-0.47152,0.107893,-0.53032,-0.077093,-0.53032,0*%
%AMCharD*4,1,12,-0.3696,-0.53032,-0.3696,0.53032,-0.000187,0.53032,0.152693,0.482907,0.27104,0.366613,0.32032,0.268987,0.3696,0.115733,0.3696,-0.115733,0.317707,-0.275147,0.263013,-0.377813,0.152693,-0.48328,-0.000187,-0.53032,-0.3696,-0.53032,0*4,0,12,-0.276267,-0.436987,-0.007467,-0.436987,0.112933,-0.397973,0.191333,-0.317707,0.233147,-0.23576,0.276267,-0.10808,0.276267,0.10808,0.233147,0.23576,0.191333,0.317707,0.112933,0.397973,-0.007467,0.436987,-0.276267,0.436987,-0.276267,-0.436987,0*%
%AMCharE*4,1,12,-0.346267,-0.53032,-0.346267,0.53032,0.346267,0.53032,0.346267,0.436987,-0.252933,0.436987,-0.252933,0.069067,0.11648,0.069067,0.11648,-0.024267,-0.252933,-0.024267,-0.252933,-0.436987,0.346267,-0.436987,0.346267,-0.53032,-0.346267,-0.53032,0*%
%ADD10IconRect*%
%ADD11C,0.616X0.522667*%
%ADD12IconTriangle*%
%ADD13IconStar6*%
%ADD14IconStar4*%
%ADD15IconPlus*%
%ADD16IconX*%
%ADD17IconDiamond*%
%ADD18IconRect2*%
%ADD19CharA*%
%ADD20CharB*%
%ADD21CharC*%
%ADD22CharD*%
%ADD23CharE*%
G75*


G04 Drill Drawing Start*
G54D10*
G01X749300Y-5740400D03*
G01X749300Y-5486400D03*
G54D11*
G01X584200Y-228600D03*
G01X1028700Y-228600D03*
G54D12*
G01X2113305Y-649869D03*
G01X4076700Y-3416300D03*
G01X4521200Y-3416300D03*
G54D13*
G01X7200900Y-1422400D03*
G01X7454900Y-1422400D03*
G01X7708900Y-1422400D03*
G54D14*
G01X2126005Y-284455D03*
G01X2374925Y-284455D03*
G01X2623845Y-284455D03*
G54D15*
G01X2300000Y-10325000D03*
G01X4499991Y-299999D03*
G01X6700000Y-10325000D03*
G54D16*
G01X635000Y-9906000D03*
G01X889000Y-9906000D03*
G01X7962900Y-9893300D03*
G01X8216900Y-9893300D03*
G54D17*
G01X511607Y-1892503D03*
G01X511607Y-1282497D03*
G01X961593Y-1892503D03*
G01X961593Y-1282497D03*
G54D18*
G01X630707Y-9144000D03*
G01X1680693Y-9144000D03*
G01X6917207Y-9156700D03*
G01X7967193Y-9156700D03*
G54D19*
G01X4203700Y-1231900D03*
G01X4203700Y-977900D03*
G01X4457700Y-1231900D03*
G01X4457700Y-977900D03*
G01X4711700Y-1231900D03*
G01X4711700Y-977900D03*
G54D20*
G01X4013200Y-2781300D03*
G01X4013200Y-4559300D03*
G01X4267200Y-2781300D03*
G01X4267200Y-4559300D03*
G01X4521200Y-2781300D03*
G01X4521200Y-4559300D03*
G01X4775200Y-2781300D03*
G01X4775200Y-4559300D03*
G01X5029200Y-2781300D03*
G01X5029200Y-4559300D03*
G01X5283200Y-2781300D03*
G01X5283200Y-4559300D03*
G54D21*
G01X3429000Y-9817100D03*
G01X3429000Y-9563100D03*
G01X3429000Y-9309100D03*
G01X3429000Y-9055100D03*
G01X3429000Y-8801100D03*
G01X3429000Y-8547100D03*
G01X3429000Y-8293100D03*
G01X3429000Y-8039100D03*
G01X3429000Y-7785100D03*
G01X3429000Y-7531100D03*
G01X3429000Y-7277100D03*
G01X3429000Y-7023100D03*
G01X3429000Y-6769100D03*
G01X3429000Y-6515100D03*
G01X3429000Y-6261100D03*
G01X5969000Y-9817100D03*
G01X5969000Y-9563100D03*
G01X5969000Y-9309100D03*
G01X5969000Y-9055100D03*
G01X5969000Y-8801100D03*
G01X5969000Y-8547100D03*
G01X5969000Y-8293100D03*
G01X5969000Y-8039100D03*
G01X5969000Y-7785100D03*
G01X5969000Y-7531100D03*
G01X5969000Y-7277100D03*
G01X5969000Y-7023100D03*
G01X5969000Y-6769100D03*
G01X5969000Y-6515100D03*
G01X5969000Y-6261100D03*
G54D22*
G01X499872Y-4262097D03*
G01X499872Y-4008097D03*
G01X499872Y-3754097D03*
G01X499872Y-3500097D03*
G01X499872Y-4770097D03*
G01X499872Y-4516097D03*
G01X762000Y-8343900D03*
G01X762000Y-8089900D03*
G01X762000Y-7835900D03*
G01X762000Y-7581900D03*
G01X762000Y-7327900D03*
G01X762000Y-7073900D03*
G01X762000Y-6819900D03*
G01X762000Y-6565900D03*
G01X1680693Y-9144000D03*
G01X2032000Y-8343900D03*
G01X2032000Y-8089900D03*
G01X2032000Y-7835900D03*
G01X2032000Y-7581900D03*
G01X2032000Y-7327900D03*
G01X2032000Y-7073900D03*
G01X2032000Y-6819900D03*
G01X2032000Y-6565900D03*
G01X3352800Y-279400D03*
G01X3606800Y-279400D03*
G01X3860800Y-279400D03*
G01X6172205Y-266695D03*
G01X6426205Y-266695D03*
G01X6680205Y-266695D03*
G01X6917207Y-9156700D03*
G01X6934205Y-266695D03*
G01X7188205Y-266695D03*
G01X7442205Y-266695D03*
G01X7689799Y-7393610D03*
G01X7689799Y-5943600D03*
G01X8499861Y-4750002D03*
G01X8499861Y-4496002D03*
G01X8499861Y-4242002D03*
G01X8499861Y-3988002D03*
G01X8499861Y-3734002D03*
G01X8499861Y-3480002D03*
G01X8559800Y-7393610D03*
G01X8559800Y-5943600D03*
G54D23*
G01X1079500Y-8699500D03*
G01X1914800Y-4957600D03*
G01X1914800Y-4457600D03*
G01X1914800Y-3457600D03*
G01X1914800Y-2957600D03*
G01X1914800Y-2457600D03*
G01X1914800Y-1957600D03*
G01X1914800Y-1457600D03*
G01X2146300Y-8978900D03*
G01X2414800Y-4957600D03*
G01X2414800Y-4457600D03*
G01X2414800Y-3457600D03*
G01X2414800Y-2957600D03*
G01X2414800Y-2457600D03*
G01X2414800Y-1957600D03*
G01X2414800Y-1457600D03*
G01X2799113Y-10325000D03*
G01X2799113Y-9817000D03*
G01X2799113Y-9309000D03*
G01X2799113Y-8293000D03*
G01X2799113Y-7785000D03*
G01X2799113Y-7277000D03*
G01X2799113Y-6769000D03*
G01X2799113Y-6261000D03*
G01X4241800Y-6489700D03*
G01X4332503Y-9167603D03*
G01X4332503Y-8667603D03*
G01X4332503Y-8167603D03*
G01X4332503Y-7667603D03*
G01X4332503Y-7167603D03*
G01X4832503Y-9167603D03*
G01X4832503Y-8667603D03*
G01X4832503Y-8167603D03*
G01X4832503Y-7667603D03*
G01X4832503Y-7167603D03*
G01X4927600Y-685800D03*
G01X5286810Y-1045010D03*
G01X5332503Y-9167603D03*
G01X5332503Y-8667603D03*
G01X5332503Y-8167603D03*
G01X5332503Y-7667603D03*
G01X5332503Y-7167603D03*
G01X5369980Y-1483833D03*
G01X5423861Y-1429952D03*
G01X6005231Y-1763431D03*
G01X6024880Y-3929603D03*
G01X6101080Y-3929603D03*
G01X6179639Y-3929603D03*
G01X6311900Y-10528300D03*
G01X6311900Y-10020300D03*
G01X6311900Y-9512300D03*
G01X6311900Y-8496300D03*
G01X6311900Y-7988300D03*
G01X6311900Y-7480300D03*
G01X6311900Y-6464300D03*
G01X6311900Y-5448300D03*
G01X6311900Y-4940300D03*
G01X6311900Y-4432300D03*
G01X6311900Y-3924300D03*
G01X6375683Y-2095500D03*
G01X6427669Y-2348409D03*
G01X6480377Y-2293355D03*
G01X6535242Y-2240458D03*
G01X7296150Y-1835150D03*
G04 Drill Drawing End*

M02*

