G04 Layer: BottomLayer*
G04 EasyEDA Pro v2.2.47.7, 2026-08-14 13:35:04*
G04 Gerber Generator version 0.3*
G04 Scale: 100 percent, Rotated: No, Reflected: No*
G04 Dimensions in millimeters*
G04 Leading zeros omitted, absolute positions, 4 integers and 5 decimals*
G04 Generated by one-click*
G04 Object Configs: Pad,Via,Track,Text,Image,Dimension,BoardOutline,BoardCutout,CopperFilled,SolidRegion,FPCStiffener,Line,PlaneZone,ComponentProperty,ComponentSilkscreen,TearDrop*
G04 Layer Configs: 1,2,3,4,5,6,7,8,9,10,11,13,14,56*
G04 Copper Areas: 67*
%FSLAX45Y45*%
%MOMM*%
%ADD10C,0.2032*%
%ADD11C,0.76708*%
%ADD12C,1.78008*%
%ADD13C,0.90508*%
%ADD14C,0.94488*%
%ADD15C,0.61087*%
%ADD16C,0.80508*%
%ADD17C,1.8796*%
%ADD18R,1.2105X1.21158*%
%ADD19R,1.21158X1.21158*%
%ADD20R,1.524X1.524*%
%ADD21C,1.524*%
%ADD22C,1.8*%
%ADD23C,1.6*%
%ADD24R,1.8X1.8*%
%ADD25C,1.4*%
%ADD26C,3.55*%
%ADD27C,0.7*%
%ADD28C,0.61*%
%ADD29C,0.254*%
%ADD30C,0.5*%
G75*


G04 Copper Start*
G36*
G01X1028700Y-431713D02*
G01X1057283Y-429692D01*
G01X1085297Y-423669D01*
G01X1112185Y-413763D01*
G01X1137412Y-400172D01*
G01X1160474Y-383166D01*
G01X1180914Y-363084D01*
G01X1198325Y-340325D01*
G01X1212359Y-315343D01*
G01X1222738Y-288634D01*
G01X1223715Y-284455D01*
G01X2024192Y-284455D01*
G01X2026148Y-304317D01*
G01X2031942Y-323417D01*
G01X2041351Y-341019D01*
G01X2054012Y-356448D01*
G01X2069441Y-369109D01*
G01X2087043Y-378518D01*
G01X2106143Y-384312D01*
G01X2126005Y-386268D01*
G01X2145868Y-384312D01*
G01X2164968Y-378518D01*
G01X2182570Y-369109D01*
G01X2197998Y-356448D01*
G01X2210660Y-341019D01*
G01X2220069Y-323417D01*
G01X2225862Y-304317D01*
G01X2227819Y-284455D01*
G01X2227819Y-284455D01*
G01X2273112Y-284455D01*
G01X2275068Y-304317D01*
G01X2280862Y-323417D01*
G01X2290271Y-341019D01*
G01X2302932Y-356448D01*
G01X2318361Y-369109D01*
G01X2335963Y-378518D01*
G01X2355063Y-384312D01*
G01X2374925Y-386268D01*
G01X2394788Y-384312D01*
G01X2413888Y-378518D01*
G01X2431490Y-369109D01*
G01X2446918Y-356448D01*
G01X2459580Y-341019D01*
G01X2468989Y-323417D01*
G01X2474782Y-304317D01*
G01X2476739Y-284455D01*
G01X2476739Y-284455D01*
G01X2522032Y-284455D01*
G01X2523988Y-304317D01*
G01X2529782Y-323417D01*
G01X2539191Y-341019D01*
G01X2551852Y-356448D01*
G01X2567281Y-369109D01*
G01X2584883Y-378518D01*
G01X2603983Y-384312D01*
G01X2623845Y-386268D01*
G01X2643708Y-384312D01*
G01X2662808Y-378518D01*
G01X2680410Y-369109D01*
G01X2695838Y-356448D01*
G01X2708500Y-341019D01*
G01X2717909Y-323417D01*
G01X2723702Y-304317D01*
G01X2725659Y-284455D01*
G01X2725659Y-284455D01*
G01X2725161Y-279400D01*
G01X3250987Y-279400D01*
G01X3252943Y-299263D01*
G01X3258737Y-318362D01*
G01X3268145Y-335964D01*
G01X3280807Y-351393D01*
G01X3296236Y-364055D01*
G01X3313838Y-373463D01*
G01X3332937Y-379257D01*
G01X3352800Y-381213D01*
G01X3372663Y-379257D01*
G01X3391762Y-373463D01*
G01X3409364Y-364055D01*
G01X3424793Y-351393D01*
G01X3437455Y-335964D01*
G01X3446863Y-318362D01*
G01X3452657Y-299263D01*
G01X3454613Y-279400D01*
G01X3504987Y-279400D01*
G01X3506943Y-299263D01*
G01X3512737Y-318362D01*
G01X3522145Y-335964D01*
G01X3534807Y-351393D01*
G01X3550236Y-364055D01*
G01X3567838Y-373463D01*
G01X3586937Y-379257D01*
G01X3606800Y-381213D01*
G01X3626663Y-379257D01*
G01X3645762Y-373463D01*
G01X3663364Y-364055D01*
G01X3678793Y-351393D01*
G01X3691455Y-335964D01*
G01X3700863Y-318362D01*
G01X3706657Y-299263D01*
G01X3708613Y-279400D01*
G01X3771646Y-279400D01*
G01X3773594Y-297936D01*
G01X3779354Y-315662D01*
G01X3788673Y-331803D01*
G01X3801144Y-345654D01*
G01X3816223Y-356610D01*
G01X3833250Y-364190D01*
G01X3851481Y-368066D01*
G01X3870119Y-368066D01*
G01X3888350Y-364190D01*
G01X3905377Y-356610D01*
G01X3920456Y-345654D01*
G01X3932927Y-331803D01*
G01X3942246Y-315662D01*
G01X3947335Y-299999D01*
G01X4322778Y-299999D01*
G01X4324757Y-326412D01*
G01X4330651Y-352234D01*
G01X4340327Y-376889D01*
G01X4353571Y-399827D01*
G01X4370084Y-420535D01*
G01X4389500Y-438550D01*
G01X4411384Y-453471D01*
G01X4435248Y-464963D01*
G01X4460557Y-472770D01*
G01X4486748Y-476717D01*
G01X4513234Y-476717D01*
G01X4539425Y-472770D01*
G01X4564734Y-464963D01*
G01X4588598Y-453471D01*
G01X4610482Y-438550D01*
G01X4629898Y-420535D01*
G01X4646411Y-399827D01*
G01X4659655Y-376889D01*
G01X4669331Y-352234D01*
G01X4675225Y-326412D01*
G01X4677204Y-299999D01*
G01X4675225Y-273587D01*
G01X4673652Y-266695D01*
G01X6070392Y-266695D01*
G01X6072348Y-286558D01*
G01X6078142Y-305657D01*
G01X6087550Y-323259D01*
G01X6100212Y-338688D01*
G01X6115641Y-351350D01*
G01X6133243Y-360758D01*
G01X6152342Y-366552D01*
G01X6172205Y-368508D01*
G01X6192068Y-366552D01*
G01X6211167Y-360758D01*
G01X6228770Y-351350D01*
G01X6244198Y-338688D01*
G01X6256860Y-323259D01*
G01X6266268Y-305657D01*
G01X6272062Y-286558D01*
G01X6274018Y-266695D01*
G01X6324392Y-266695D01*
G01X6326348Y-286558D01*
G01X6332142Y-305657D01*
G01X6341550Y-323259D01*
G01X6354212Y-338688D01*
G01X6369641Y-351350D01*
G01X6387243Y-360758D01*
G01X6406342Y-366552D01*
G01X6426205Y-368508D01*
G01X6446068Y-366552D01*
G01X6465167Y-360758D01*
G01X6482770Y-351350D01*
G01X6498198Y-338688D01*
G01X6510860Y-323259D01*
G01X6520268Y-305657D01*
G01X6526062Y-286558D01*
G01X6528018Y-266695D01*
G01X6526062Y-246832D01*
G01X6520268Y-227733D01*
G01X6510860Y-210130D01*
G01X6498198Y-194702D01*
G01X6482770Y-182040D01*
G01X6465167Y-172632D01*
G01X6446068Y-166838D01*
G01X6426205Y-164882D01*
G01X6406342Y-166838D01*
G01X6387243Y-172632D01*
G01X6369641Y-182040D01*
G01X6354212Y-194702D01*
G01X6341550Y-210130D01*
G01X6332142Y-227733D01*
G01X6326348Y-246832D01*
G01X6324392Y-266695D01*
G01X6324392Y-266695D01*
G01X6274018Y-266695D01*
G01X6274018Y-266695D01*
G01X6272062Y-246832D01*
G01X6266268Y-227733D01*
G01X6256860Y-210130D01*
G01X6244198Y-194702D01*
G01X6228770Y-182040D01*
G01X6211167Y-172632D01*
G01X6192068Y-166838D01*
G01X6172205Y-164882D01*
G01X6152342Y-166838D01*
G01X6133243Y-172632D01*
G01X6115641Y-182040D01*
G01X6100212Y-194702D01*
G01X6087550Y-210130D01*
G01X6078142Y-227733D01*
G01X6072348Y-246832D01*
G01X6070392Y-266695D01*
G01X6070392Y-266695D01*
G01X4673652Y-266695D01*
G01X4669331Y-247765D01*
G01X4659655Y-223109D01*
G01X4646411Y-200172D01*
G01X4629898Y-179464D01*
G01X4610482Y-161448D01*
G01X4588598Y-146528D01*
G01X4564734Y-135036D01*
G01X4539425Y-127229D01*
G01X4513234Y-123282D01*
G01X4486748Y-123282D01*
G01X4460557Y-127229D01*
G01X4435248Y-135036D01*
G01X4411384Y-146528D01*
G01X4389500Y-161448D01*
G01X4370084Y-179464D01*
G01X4353571Y-200172D01*
G01X4340327Y-223109D01*
G01X4330651Y-247765D01*
G01X4324757Y-273587D01*
G01X4322778Y-299999D01*
G01X4322778Y-299999D01*
G01X3947335Y-299999D01*
G01X3948006Y-297936D01*
G01X3949954Y-279400D01*
G01X3948006Y-260864D01*
G01X3942246Y-243138D01*
G01X3932927Y-226997D01*
G01X3920456Y-213146D01*
G01X3905377Y-202190D01*
G01X3888350Y-194610D01*
G01X3870119Y-190734D01*
G01X3851481Y-190734D01*
G01X3833250Y-194610D01*
G01X3816223Y-202190D01*
G01X3801144Y-213146D01*
G01X3788673Y-226997D01*
G01X3779354Y-243138D01*
G01X3773594Y-260864D01*
G01X3771646Y-279400D01*
G01X3771646Y-279400D01*
G01X3708613Y-279400D01*
G01X3706657Y-259537D01*
G01X3700863Y-240438D01*
G01X3691455Y-222836D01*
G01X3678793Y-207407D01*
G01X3663364Y-194745D01*
G01X3645762Y-185337D01*
G01X3626663Y-179543D01*
G01X3606800Y-177587D01*
G01X3586937Y-179543D01*
G01X3567838Y-185337D01*
G01X3550236Y-194745D01*
G01X3534807Y-207407D01*
G01X3522145Y-222836D01*
G01X3512737Y-240438D01*
G01X3506943Y-259537D01*
G01X3504987Y-279400D01*
G01X3504987Y-279400D01*
G01X3454613Y-279400D01*
G01X3452657Y-259537D01*
G01X3446863Y-240438D01*
G01X3437455Y-222836D01*
G01X3424793Y-207407D01*
G01X3409364Y-194745D01*
G01X3391762Y-185337D01*
G01X3372663Y-179543D01*
G01X3352800Y-177587D01*
G01X3332937Y-179543D01*
G01X3313838Y-185337D01*
G01X3296236Y-194745D01*
G01X3280807Y-207407D01*
G01X3268145Y-222836D01*
G01X3258737Y-240438D01*
G01X3252943Y-259537D01*
G01X3250987Y-279400D01*
G01X3250987Y-279400D01*
G01X2725161Y-279400D01*
G01X2723702Y-264592D01*
G01X2717909Y-245492D01*
G01X2708500Y-227890D01*
G01X2695838Y-212462D01*
G01X2680410Y-199800D01*
G01X2662808Y-190391D01*
G01X2643708Y-184598D01*
G01X2623845Y-182641D01*
G01X2603983Y-184598D01*
G01X2584883Y-190391D01*
G01X2567281Y-199800D01*
G01X2551852Y-212462D01*
G01X2539191Y-227890D01*
G01X2529782Y-245492D01*
G01X2523988Y-264592D01*
G01X2522032Y-284455D01*
G01X2476739Y-284455D01*
G01X2474782Y-264592D01*
G01X2468989Y-245492D01*
G01X2459580Y-227890D01*
G01X2446918Y-212462D01*
G01X2431490Y-199800D01*
G01X2413888Y-190391D01*
G01X2394788Y-184598D01*
G01X2374925Y-182641D01*
G01X2355063Y-184598D01*
G01X2335963Y-190391D01*
G01X2318361Y-199800D01*
G01X2302932Y-212462D01*
G01X2290271Y-227890D01*
G01X2280862Y-245492D01*
G01X2275068Y-264592D01*
G01X2273112Y-284455D01*
G01X2227819Y-284455D01*
G01X2225862Y-264592D01*
G01X2220069Y-245492D01*
G01X2210660Y-227890D01*
G01X2197998Y-212462D01*
G01X2182570Y-199800D01*
G01X2164968Y-190391D01*
G01X2145868Y-184598D01*
G01X2126005Y-182641D01*
G01X2106143Y-184598D01*
G01X2087043Y-190391D01*
G01X2069441Y-199800D01*
G01X2054012Y-212462D01*
G01X2041351Y-227890D01*
G01X2031942Y-245492D01*
G01X2026148Y-264592D01*
G01X2024192Y-284455D01*
G01X1223715Y-284455D01*
G01X1229256Y-260731D01*
G01X1231782Y-232188D01*
G01X1230266Y-203573D01*
G01X1224738Y-175457D01*
G01X1215309Y-148398D01*
G01X1202165Y-122936D01*
G01X1185569Y-99577D01*
G01X1165852Y-78785D01*
G01X1143404Y-60975D01*
G01X1118673Y-46502D01*
G01X1092152Y-35652D01*
G01X1064368Y-28643D01*
G01X1035874Y-25613D01*
G01X8974371Y-25613D01*
G01X8974371Y-10974367D01*
G01X25613Y-10974367D01*
G01X25613Y-10325000D01*
G01X2122787Y-10325000D01*
G01X2124766Y-10351412D01*
G01X2130660Y-10377234D01*
G01X2140336Y-10401890D01*
G01X2153580Y-10424828D01*
G01X2170093Y-10445536D01*
G01X2189509Y-10463551D01*
G01X2211393Y-10478471D01*
G01X2235257Y-10489963D01*
G01X2260566Y-10497770D01*
G01X2286757Y-10501718D01*
G01X2313243Y-10501718D01*
G01X2339434Y-10497770D01*
G01X2364743Y-10489963D01*
G01X2388607Y-10478471D01*
G01X2410491Y-10463551D01*
G01X2429906Y-10445536D01*
G01X2446420Y-10424828D01*
G01X2459664Y-10401890D01*
G01X2469340Y-10377234D01*
G01X2475234Y-10351412D01*
G01X2477213Y-10325000D01*
G01X6522787Y-10325000D01*
G01X6524766Y-10351412D01*
G01X6530660Y-10377234D01*
G01X6540336Y-10401890D01*
G01X6553580Y-10424828D01*
G01X6570094Y-10445536D01*
G01X6589509Y-10463551D01*
G01X6611393Y-10478471D01*
G01X6635257Y-10489963D01*
G01X6660566Y-10497770D01*
G01X6686757Y-10501718D01*
G01X6713243Y-10501718D01*
G01X6739434Y-10497770D01*
G01X6764743Y-10489963D01*
G01X6788607Y-10478471D01*
G01X6810491Y-10463551D01*
G01X6829907Y-10445536D01*
G01X6846421Y-10424828D01*
G01X6859664Y-10401890D01*
G01X6869340Y-10377234D01*
G01X6875234Y-10351412D01*
G01X6877213Y-10325000D01*
G01X6875234Y-10298588D01*
G01X6869340Y-10272765D01*
G01X6859664Y-10248110D01*
G01X6846421Y-10225172D01*
G01X6829907Y-10204464D01*
G01X6810491Y-10186449D01*
G01X6788607Y-10171529D01*
G01X6764743Y-10160037D01*
G01X6739434Y-10152230D01*
G01X6713243Y-10148282D01*
G01X6686757Y-10148282D01*
G01X6660566Y-10152230D01*
G01X6635257Y-10160037D01*
G01X6611393Y-10171529D01*
G01X6589509Y-10186449D01*
G01X6570094Y-10204464D01*
G01X6553580Y-10225172D01*
G01X6540336Y-10248110D01*
G01X6530660Y-10272765D01*
G01X6524766Y-10298588D01*
G01X6522787Y-10325000D01*
G01X6522787Y-10325000D01*
G01X2477213Y-10325000D01*
G01X2475234Y-10298588D01*
G01X2469340Y-10272765D01*
G01X2459664Y-10248110D01*
G01X2446420Y-10225172D01*
G01X2429906Y-10204464D01*
G01X2410491Y-10186449D01*
G01X2388607Y-10171529D01*
G01X2364743Y-10160037D01*
G01X2339434Y-10152230D01*
G01X2313243Y-10148282D01*
G01X2286757Y-10148282D01*
G01X2260566Y-10152230D01*
G01X2235257Y-10160037D01*
G01X2211393Y-10171529D01*
G01X2189509Y-10186449D01*
G01X2170093Y-10204464D01*
G01X2153580Y-10225172D01*
G01X2140336Y-10248110D01*
G01X2130660Y-10272765D01*
G01X2124766Y-10298588D01*
G01X2122787Y-10325000D01*
G01X2122787Y-10325000D01*
G01X25613Y-10325000D01*
G01X25613Y-9845421D01*
G01X548808Y-9845421D01*
G01X548808Y-9966579D01*
G01X550757Y-9976381D01*
G01X556310Y-9984690D01*
G01X564619Y-9990243D01*
G01X574421Y-9992192D01*
G01X695579Y-9992192D01*
G01X695579Y-9992192D01*
G01X705381Y-9990243D01*
G01X713690Y-9984690D01*
G01X719243Y-9976381D01*
G01X721192Y-9966579D01*
G01X721192Y-9845421D01*
G01X815467Y-9845421D01*
G01X815467Y-9966579D01*
G01X817203Y-9973056D01*
G01X821944Y-9977797D01*
G01X828421Y-9979533D01*
G01X949579Y-9979533D01*
G01X949579Y-9979533D01*
G01X956056Y-9977797D01*
G01X960797Y-9973056D01*
G01X962533Y-9966579D01*
G01X962533Y-9845421D01*
G01X960797Y-9838944D01*
G01X956056Y-9834203D01*
G01X949579Y-9832467D01*
G01X828421Y-9832467D01*
G01X821944Y-9834203D01*
G01X817203Y-9838944D01*
G01X815467Y-9845421D01*
G01X721192Y-9845421D01*
G01X719243Y-9835619D01*
G01X713690Y-9827310D01*
G01X705381Y-9821757D01*
G01X695579Y-9819808D01*
G01X574421Y-9819808D01*
G01X564619Y-9821757D01*
G01X556310Y-9827310D01*
G01X550757Y-9835619D01*
G01X548808Y-9845421D01*
G01X25613Y-9845421D01*
G01X25613Y-9144000D01*
G01X535094Y-9144000D01*
G01X536931Y-9162653D01*
G01X542372Y-9180590D01*
G01X551208Y-9197120D01*
G01X563099Y-9211609D01*
G01X577588Y-9223499D01*
G01X594118Y-9232335D01*
G01X612054Y-9237776D01*
G01X630707Y-9239613D01*
G01X649361Y-9237776D01*
G01X667297Y-9232335D01*
G01X683827Y-9223499D01*
G01X698316Y-9211609D01*
G01X710207Y-9197120D01*
G01X719042Y-9180590D01*
G01X724483Y-9162653D01*
G01X726321Y-9144000D01*
G01X726321Y-9144000D01*
G01X1578879Y-9144000D01*
G01X1580836Y-9163863D01*
G01X1586629Y-9182962D01*
G01X1596038Y-9200564D01*
G01X1608700Y-9215993D01*
G01X1624128Y-9228655D01*
G01X1641730Y-9238063D01*
G01X1660830Y-9243857D01*
G01X1680693Y-9245813D01*
G01X1700555Y-9243857D01*
G01X1719655Y-9238063D01*
G01X1737257Y-9228655D01*
G01X1752686Y-9215993D01*
G01X1765347Y-9200564D01*
G01X1774756Y-9182962D01*
G01X1780550Y-9163863D01*
G01X1782506Y-9144000D01*
G01X1782506Y-9144000D01*
G01X1780550Y-9124137D01*
G01X1774756Y-9105038D01*
G01X1765347Y-9087436D01*
G01X1752686Y-9072007D01*
G01X1737257Y-9059345D01*
G01X1719655Y-9049937D01*
G01X1700555Y-9044143D01*
G01X1680693Y-9042187D01*
G01X1660830Y-9044143D01*
G01X1641730Y-9049937D01*
G01X1624128Y-9059345D01*
G01X1608700Y-9072007D01*
G01X1596038Y-9087436D01*
G01X1586629Y-9105038D01*
G01X1580836Y-9124137D01*
G01X1578879Y-9144000D01*
G01X726321Y-9144000D01*
G01X724483Y-9125347D01*
G01X719042Y-9107410D01*
G01X710207Y-9090880D01*
G01X698316Y-9076391D01*
G01X683827Y-9064501D01*
G01X667297Y-9055665D01*
G01X649361Y-9050224D01*
G01X630707Y-9048387D01*
G01X612054Y-9050224D01*
G01X594118Y-9055665D01*
G01X577588Y-9064501D01*
G01X563099Y-9076391D01*
G01X551208Y-9090880D01*
G01X542372Y-9107410D01*
G01X536931Y-9125347D01*
G01X535094Y-9144000D01*
G01X25613Y-9144000D01*
G01X25613Y-3327400D01*
G01X88687Y-3327400D01*
G01X88687Y-8318500D01*
G01X88687Y-8318500D01*
G01X89992Y-8328416D01*
G01X93820Y-8337657D01*
G01X99908Y-8345592D01*
G01X760308Y-9005992D01*
G01X768243Y-9012080D01*
G01X777484Y-9015908D01*
G01X787400Y-9017213D01*
G01X2105302Y-9017213D01*
G01X2116795Y-9026630D01*
G01X2130356Y-9032701D01*
G01X2145035Y-9034999D01*
G01X2159802Y-9033365D01*
G01X2173623Y-9027912D01*
G01X2185528Y-9019023D01*
G01X2194683Y-9007321D01*
G01X2200446Y-8993627D01*
G01X2202413Y-8978900D01*
G01X2200446Y-8964173D01*
G01X2194683Y-8950479D01*
G01X2185528Y-8938777D01*
G01X2173623Y-8929888D01*
G01X2159802Y-8924435D01*
G01X2145035Y-8922801D01*
G01X2130356Y-8925099D01*
G01X2116795Y-8931170D01*
G01X2105302Y-8940587D01*
G01X803270Y-8940587D01*
G01X282783Y-8420100D01*
G01X469687Y-8420100D01*
G01X470992Y-8430016D01*
G01X474820Y-8439257D01*
G01X480908Y-8447192D01*
G01X760308Y-8726592D01*
G01X768243Y-8732680D01*
G01X777484Y-8736508D01*
G01X787400Y-8737813D01*
G01X1038502Y-8737813D01*
G01X1049995Y-8747230D01*
G01X1063556Y-8753301D01*
G01X1078235Y-8755599D01*
G01X1093002Y-8753965D01*
G01X1106823Y-8748512D01*
G01X1118728Y-8739623D01*
G01X1127883Y-8727921D01*
G01X1133646Y-8714227D01*
G01X1135613Y-8699500D01*
G01X1133646Y-8684773D01*
G01X1127883Y-8671079D01*
G01X1118728Y-8659377D01*
G01X1106823Y-8650488D01*
G01X1093002Y-8645035D01*
G01X1078235Y-8643401D01*
G01X1063556Y-8645699D01*
G01X1049995Y-8651770D01*
G01X1038502Y-8661187D01*
G01X803270Y-8661187D01*
G01X546313Y-8404230D01*
G01X546313Y-8343900D01*
G01X660187Y-8343900D01*
G01X662143Y-8363763D01*
G01X667937Y-8382862D01*
G01X677345Y-8400464D01*
G01X690007Y-8415893D01*
G01X705436Y-8428555D01*
G01X723038Y-8437963D01*
G01X742137Y-8443757D01*
G01X762000Y-8445713D01*
G01X781863Y-8443757D01*
G01X800962Y-8437963D01*
G01X818564Y-8428555D01*
G01X833993Y-8415893D01*
G01X846655Y-8400464D01*
G01X856063Y-8382862D01*
G01X861857Y-8363763D01*
G01X863813Y-8343900D01*
G01X1942846Y-8343900D01*
G01X1944794Y-8362436D01*
G01X1950554Y-8380162D01*
G01X1959873Y-8396303D01*
G01X1972344Y-8410154D01*
G01X1987423Y-8421110D01*
G01X2004450Y-8428690D01*
G01X2022681Y-8432566D01*
G01X2041319Y-8432566D01*
G01X2059550Y-8428690D01*
G01X2076577Y-8421110D01*
G01X2091656Y-8410154D01*
G01X2104127Y-8396303D01*
G01X2113446Y-8380162D01*
G01X2119206Y-8362436D01*
G01X2121154Y-8343900D01*
G01X2119206Y-8325364D01*
G01X2113446Y-8307638D01*
G01X2104127Y-8291497D01*
G01X2091656Y-8277646D01*
G01X2076577Y-8266690D01*
G01X2059550Y-8259110D01*
G01X2041319Y-8255234D01*
G01X2022681Y-8255234D01*
G01X2004450Y-8259110D01*
G01X1987423Y-8266690D01*
G01X1972344Y-8277646D01*
G01X1959873Y-8291497D01*
G01X1950554Y-8307638D01*
G01X1944794Y-8325364D01*
G01X1942846Y-8343900D01*
G01X1942846Y-8343900D01*
G01X863813Y-8343900D01*
G01X861857Y-8324037D01*
G01X856063Y-8304938D01*
G01X846655Y-8287336D01*
G01X833993Y-8271907D01*
G01X818564Y-8259245D01*
G01X800962Y-8249837D01*
G01X781863Y-8244043D01*
G01X762000Y-8242087D01*
G01X742137Y-8244043D01*
G01X723038Y-8249837D01*
G01X705436Y-8259245D01*
G01X690007Y-8271907D01*
G01X677345Y-8287336D01*
G01X667937Y-8304938D01*
G01X662143Y-8324037D01*
G01X660187Y-8343900D01*
G01X660187Y-8343900D01*
G01X546313Y-8343900D01*
G01X546313Y-8089900D01*
G01X660187Y-8089900D01*
G01X662143Y-8109763D01*
G01X667937Y-8128862D01*
G01X677345Y-8146464D01*
G01X690007Y-8161893D01*
G01X705436Y-8174555D01*
G01X723038Y-8183963D01*
G01X742137Y-8189757D01*
G01X762000Y-8191713D01*
G01X781863Y-8189757D01*
G01X800962Y-8183963D01*
G01X818564Y-8174555D01*
G01X833993Y-8161893D01*
G01X846655Y-8146464D01*
G01X856063Y-8128862D01*
G01X861857Y-8109763D01*
G01X863813Y-8089900D01*
G01X861857Y-8070037D01*
G01X856063Y-8050938D01*
G01X846655Y-8033336D01*
G01X833993Y-8017907D01*
G01X818564Y-8005245D01*
G01X800962Y-7995837D01*
G01X781863Y-7990043D01*
G01X762000Y-7988087D01*
G01X742137Y-7990043D01*
G01X723038Y-7995837D01*
G01X705436Y-8005245D01*
G01X690007Y-8017907D01*
G01X677345Y-8033336D01*
G01X667937Y-8050938D01*
G01X662143Y-8070037D01*
G01X660187Y-8089900D01*
G01X660187Y-8089900D01*
G01X546313Y-8089900D01*
G01X546313Y-7835900D01*
G01X660187Y-7835900D01*
G01X662143Y-7855763D01*
G01X667937Y-7874862D01*
G01X677345Y-7892464D01*
G01X690007Y-7907893D01*
G01X705436Y-7920555D01*
G01X723038Y-7929963D01*
G01X742137Y-7935757D01*
G01X762000Y-7937713D01*
G01X781863Y-7935757D01*
G01X800962Y-7929963D01*
G01X818564Y-7920555D01*
G01X833993Y-7907893D01*
G01X846655Y-7892464D01*
G01X856063Y-7874862D01*
G01X861857Y-7855763D01*
G01X863813Y-7835900D01*
G01X861857Y-7816037D01*
G01X856063Y-7796938D01*
G01X846655Y-7779336D01*
G01X833993Y-7763907D01*
G01X818564Y-7751245D01*
G01X800962Y-7741837D01*
G01X781863Y-7736043D01*
G01X762000Y-7734087D01*
G01X742137Y-7736043D01*
G01X723038Y-7741837D01*
G01X705436Y-7751245D01*
G01X690007Y-7763907D01*
G01X677345Y-7779336D01*
G01X667937Y-7796938D01*
G01X662143Y-7816037D01*
G01X660187Y-7835900D01*
G01X660187Y-7835900D01*
G01X546313Y-7835900D01*
G01X546313Y-7597770D01*
G01X562183Y-7581900D01*
G01X660187Y-7581900D01*
G01X662143Y-7601763D01*
G01X667937Y-7620862D01*
G01X677345Y-7638464D01*
G01X690007Y-7653893D01*
G01X705436Y-7666555D01*
G01X723038Y-7675963D01*
G01X742137Y-7681757D01*
G01X762000Y-7683713D01*
G01X781863Y-7681757D01*
G01X800962Y-7675963D01*
G01X818564Y-7666555D01*
G01X833993Y-7653893D01*
G01X846655Y-7638464D01*
G01X856063Y-7620862D01*
G01X861857Y-7601763D01*
G01X863813Y-7581900D01*
G01X861857Y-7562037D01*
G01X856063Y-7542938D01*
G01X846655Y-7525336D01*
G01X833993Y-7509907D01*
G01X818564Y-7497245D01*
G01X800962Y-7487837D01*
G01X781863Y-7482043D01*
G01X762000Y-7480087D01*
G01X742137Y-7482043D01*
G01X723038Y-7487837D01*
G01X705436Y-7497245D01*
G01X690007Y-7509907D01*
G01X677345Y-7525336D01*
G01X667937Y-7542938D01*
G01X662143Y-7562037D01*
G01X660187Y-7581900D01*
G01X660187Y-7581900D01*
G01X562183Y-7581900D01*
G01X722391Y-7421693D01*
G01X741499Y-7427628D01*
G01X761399Y-7429712D01*
G01X781322Y-7427863D01*
G01X800499Y-7422154D01*
G01X818189Y-7412804D01*
G01X833709Y-7400176D01*
G01X846459Y-7384756D01*
G01X855948Y-7367140D01*
G01X861808Y-7348008D01*
G01X863813Y-7328100D01*
G01X861886Y-7308185D01*
G01X856102Y-7289030D01*
G01X846683Y-7271377D01*
G01X833993Y-7255907D01*
G01X818523Y-7243217D01*
G01X800870Y-7233798D01*
G01X781715Y-7228014D01*
G01X761800Y-7226087D01*
G01X741892Y-7228092D01*
G01X722760Y-7233952D01*
G01X705144Y-7243441D01*
G01X689724Y-7256191D01*
G01X677096Y-7271711D01*
G01X667746Y-7289401D01*
G01X662037Y-7308578D01*
G01X660188Y-7328501D01*
G01X662272Y-7348401D01*
G01X668207Y-7367509D01*
G01X480908Y-7554808D01*
G01X474820Y-7562743D01*
G01X470992Y-7571984D01*
G01X469687Y-7581900D01*
G01X469687Y-8420100D01*
G01X469687Y-8420100D01*
G01X282783Y-8420100D01*
G01X165313Y-8302630D01*
G01X165313Y-7073900D01*
G01X660187Y-7073900D01*
G01X662143Y-7093763D01*
G01X667937Y-7112862D01*
G01X677345Y-7130464D01*
G01X690007Y-7145893D01*
G01X705436Y-7158555D01*
G01X723038Y-7167963D01*
G01X742137Y-7173757D01*
G01X762000Y-7175713D01*
G01X781863Y-7173757D01*
G01X800962Y-7167963D01*
G01X818564Y-7158555D01*
G01X833993Y-7145893D01*
G01X846655Y-7130464D01*
G01X856063Y-7112862D01*
G01X861857Y-7093763D01*
G01X863813Y-7073900D01*
G01X861857Y-7054037D01*
G01X856063Y-7034938D01*
G01X846655Y-7017336D01*
G01X833993Y-7001907D01*
G01X818564Y-6989245D01*
G01X800962Y-6979837D01*
G01X781863Y-6974043D01*
G01X762000Y-6972087D01*
G01X742137Y-6974043D01*
G01X723038Y-6979837D01*
G01X705436Y-6989245D01*
G01X690007Y-7001907D01*
G01X677345Y-7017336D01*
G01X667937Y-7034938D01*
G01X662143Y-7054037D01*
G01X660187Y-7073900D01*
G01X660187Y-7073900D01*
G01X165313Y-7073900D01*
G01X165313Y-6819900D01*
G01X660187Y-6819900D01*
G01X662143Y-6839763D01*
G01X667937Y-6858862D01*
G01X677345Y-6876464D01*
G01X690007Y-6891893D01*
G01X705436Y-6904555D01*
G01X723038Y-6913963D01*
G01X742137Y-6919757D01*
G01X762000Y-6921713D01*
G01X781863Y-6919757D01*
G01X800962Y-6913963D01*
G01X818564Y-6904555D01*
G01X833993Y-6891893D01*
G01X846655Y-6876464D01*
G01X856063Y-6858862D01*
G01X861857Y-6839763D01*
G01X863813Y-6819900D01*
G01X861857Y-6800037D01*
G01X856063Y-6780938D01*
G01X846655Y-6763336D01*
G01X833993Y-6747907D01*
G01X818564Y-6735245D01*
G01X800962Y-6725837D01*
G01X781863Y-6720043D01*
G01X762000Y-6718087D01*
G01X742137Y-6720043D01*
G01X723038Y-6725837D01*
G01X705436Y-6735245D01*
G01X690007Y-6747907D01*
G01X677345Y-6763336D01*
G01X667937Y-6780938D01*
G01X662143Y-6800037D01*
G01X660187Y-6819900D01*
G01X660187Y-6819900D01*
G01X165313Y-6819900D01*
G01X165313Y-6565900D01*
G01X660187Y-6565900D01*
G01X662143Y-6585763D01*
G01X667937Y-6604862D01*
G01X677345Y-6622464D01*
G01X690007Y-6637893D01*
G01X705436Y-6650555D01*
G01X723038Y-6659963D01*
G01X742137Y-6665757D01*
G01X762000Y-6667713D01*
G01X781863Y-6665757D01*
G01X800962Y-6659963D01*
G01X818564Y-6650555D01*
G01X833993Y-6637893D01*
G01X846655Y-6622464D01*
G01X856063Y-6604862D01*
G01X861857Y-6585763D01*
G01X863813Y-6565900D01*
G01X861857Y-6546037D01*
G01X856063Y-6526938D01*
G01X846655Y-6509336D01*
G01X833993Y-6493907D01*
G01X818564Y-6481245D01*
G01X800962Y-6471837D01*
G01X781863Y-6466043D01*
G01X762000Y-6464087D01*
G01X742137Y-6466043D01*
G01X723038Y-6471837D01*
G01X705436Y-6481245D01*
G01X690007Y-6493907D01*
G01X677345Y-6509336D01*
G01X667937Y-6526938D01*
G01X662143Y-6546037D01*
G01X660187Y-6565900D01*
G01X660187Y-6565900D01*
G01X165313Y-6565900D01*
G01X165313Y-5830400D01*
G01X633687Y-5830400D01*
G01X635637Y-5840202D01*
G01X641189Y-5848511D01*
G01X649498Y-5854063D01*
G01X659300Y-5856013D01*
G01X839300Y-5856013D01*
G01X849102Y-5854063D01*
G01X857411Y-5848511D01*
G01X862963Y-5840202D01*
G01X864913Y-5830400D01*
G01X864913Y-5650400D01*
G01X864913Y-5650400D01*
G01X862963Y-5640598D01*
G01X857411Y-5632289D01*
G01X849102Y-5626737D01*
G01X839300Y-5624787D01*
G01X659300Y-5624787D01*
G01X649498Y-5626737D01*
G01X641189Y-5632289D01*
G01X635637Y-5640598D01*
G01X633687Y-5650400D01*
G01X633687Y-5830400D01*
G01X165313Y-5830400D01*
G01X165313Y-5475733D01*
G01X634180Y-5475733D01*
G01X634180Y-5497067D01*
G01X638100Y-5518039D01*
G01X645807Y-5537933D01*
G01X657039Y-5556073D01*
G01X671412Y-5571839D01*
G01X688438Y-5584696D01*
G01X707536Y-5594206D01*
G01X728056Y-5600045D01*
G01X749300Y-5602013D01*
G01X749300Y-5602013D01*
G01X770544Y-5600045D01*
G01X791064Y-5594206D01*
G01X810162Y-5584696D01*
G01X827188Y-5571839D01*
G01X841561Y-5556073D01*
G01X852793Y-5537933D01*
G01X860500Y-5518039D01*
G01X864420Y-5497067D01*
G01X864420Y-5475733D01*
G01X860500Y-5454761D01*
G01X852793Y-5434867D01*
G01X841561Y-5416727D01*
G01X827188Y-5400961D01*
G01X810162Y-5388104D01*
G01X791064Y-5378594D01*
G01X770544Y-5372755D01*
G01X749300Y-5370787D01*
G01X728056Y-5372755D01*
G01X707536Y-5378594D01*
G01X688438Y-5388104D01*
G01X671412Y-5400961D01*
G01X657039Y-5416727D01*
G01X645807Y-5434867D01*
G01X638100Y-5454761D01*
G01X634180Y-5475733D01*
G01X165313Y-5475733D01*
G01X165313Y-4770097D01*
G01X398059Y-4770097D01*
G01X400015Y-4789960D01*
G01X405809Y-4809060D01*
G01X415217Y-4826662D01*
G01X427879Y-4842090D01*
G01X443308Y-4854752D01*
G01X460910Y-4864161D01*
G01X480009Y-4869954D01*
G01X499872Y-4871911D01*
G01X499872Y-4871911D01*
G01X519735Y-4869954D01*
G01X538834Y-4864161D01*
G01X556436Y-4854752D01*
G01X571865Y-4842090D01*
G01X584527Y-4826662D01*
G01X593935Y-4809060D01*
G01X599729Y-4789960D01*
G01X601685Y-4770097D01*
G01X599729Y-4750235D01*
G01X593935Y-4731135D01*
G01X584527Y-4713533D01*
G01X571865Y-4698104D01*
G01X556436Y-4685443D01*
G01X538834Y-4676034D01*
G01X519735Y-4670240D01*
G01X499872Y-4668284D01*
G01X480009Y-4670240D01*
G01X460910Y-4676034D01*
G01X443308Y-4685443D01*
G01X427879Y-4698104D01*
G01X415217Y-4713533D01*
G01X405809Y-4731135D01*
G01X400015Y-4750235D01*
G01X398059Y-4770097D01*
G01X165313Y-4770097D01*
G01X165313Y-4516097D01*
G01X398059Y-4516097D01*
G01X400015Y-4535960D01*
G01X405809Y-4555060D01*
G01X415217Y-4572662D01*
G01X427879Y-4588090D01*
G01X443308Y-4600752D01*
G01X460910Y-4610161D01*
G01X480009Y-4615954D01*
G01X499872Y-4617911D01*
G01X499872Y-4617911D01*
G01X519735Y-4615954D01*
G01X538834Y-4610161D01*
G01X556436Y-4600752D01*
G01X571865Y-4588090D01*
G01X584527Y-4572662D01*
G01X593935Y-4555060D01*
G01X599729Y-4535960D01*
G01X601685Y-4516097D01*
G01X599729Y-4496235D01*
G01X593935Y-4477135D01*
G01X584527Y-4459533D01*
G01X571865Y-4444104D01*
G01X556436Y-4431443D01*
G01X538834Y-4422034D01*
G01X519735Y-4416240D01*
G01X499872Y-4414284D01*
G01X480009Y-4416240D01*
G01X460910Y-4422034D01*
G01X443308Y-4431443D01*
G01X427879Y-4444104D01*
G01X415217Y-4459533D01*
G01X405809Y-4477135D01*
G01X400015Y-4496235D01*
G01X398059Y-4516097D01*
G01X165313Y-4516097D01*
G01X165313Y-4262097D01*
G01X398059Y-4262097D01*
G01X400015Y-4281960D01*
G01X405809Y-4301060D01*
G01X415217Y-4318662D01*
G01X427879Y-4334090D01*
G01X443308Y-4346752D01*
G01X460910Y-4356161D01*
G01X480009Y-4361954D01*
G01X499872Y-4363911D01*
G01X499872Y-4363911D01*
G01X519735Y-4361954D01*
G01X538834Y-4356161D01*
G01X556436Y-4346752D01*
G01X571865Y-4334090D01*
G01X584527Y-4318662D01*
G01X593935Y-4301060D01*
G01X599729Y-4281960D01*
G01X601685Y-4262097D01*
G01X599729Y-4242235D01*
G01X593935Y-4223135D01*
G01X584527Y-4205533D01*
G01X571865Y-4190104D01*
G01X556436Y-4177443D01*
G01X538834Y-4168034D01*
G01X519735Y-4162240D01*
G01X499872Y-4160284D01*
G01X480009Y-4162240D01*
G01X460910Y-4168034D01*
G01X443308Y-4177443D01*
G01X427879Y-4190104D01*
G01X415217Y-4205533D01*
G01X405809Y-4223135D01*
G01X400015Y-4242235D01*
G01X398059Y-4262097D01*
G01X165313Y-4262097D01*
G01X165313Y-4008097D01*
G01X398059Y-4008097D01*
G01X400015Y-4027960D01*
G01X405809Y-4047060D01*
G01X415217Y-4064662D01*
G01X427879Y-4080090D01*
G01X443308Y-4092752D01*
G01X460910Y-4102161D01*
G01X480009Y-4107954D01*
G01X499872Y-4109911D01*
G01X499872Y-4109911D01*
G01X519735Y-4107954D01*
G01X538834Y-4102161D01*
G01X556436Y-4092752D01*
G01X571865Y-4080090D01*
G01X584527Y-4064662D01*
G01X593935Y-4047060D01*
G01X599729Y-4027960D01*
G01X601685Y-4008097D01*
G01X599729Y-3988235D01*
G01X593935Y-3969135D01*
G01X584527Y-3951533D01*
G01X571865Y-3936104D01*
G01X556436Y-3923443D01*
G01X538834Y-3914034D01*
G01X519735Y-3908240D01*
G01X499872Y-3906284D01*
G01X480009Y-3908240D01*
G01X460910Y-3914034D01*
G01X443308Y-3923443D01*
G01X427879Y-3936104D01*
G01X415217Y-3951533D01*
G01X405809Y-3969135D01*
G01X400015Y-3988235D01*
G01X398059Y-4008097D01*
G01X165313Y-4008097D01*
G01X165313Y-3744778D01*
G01X411206Y-3744778D01*
G01X411206Y-3763417D01*
G01X415082Y-3781647D01*
G01X422662Y-3798674D01*
G01X433618Y-3813753D01*
G01X447469Y-3826224D01*
G01X463610Y-3835544D01*
G01X481336Y-3841303D01*
G01X499872Y-3843251D01*
G01X499872Y-3843251D01*
G01X518408Y-3841303D01*
G01X536134Y-3835544D01*
G01X552275Y-3826224D01*
G01X566126Y-3813753D01*
G01X577082Y-3798674D01*
G01X584662Y-3781647D01*
G01X588538Y-3763417D01*
G01X588538Y-3744778D01*
G01X584662Y-3726547D01*
G01X577082Y-3709520D01*
G01X566126Y-3694442D01*
G01X552275Y-3681970D01*
G01X536134Y-3672651D01*
G01X518408Y-3666892D01*
G01X499872Y-3664943D01*
G01X481336Y-3666892D01*
G01X463610Y-3672651D01*
G01X447469Y-3681970D01*
G01X433618Y-3694442D01*
G01X422662Y-3709520D01*
G01X415082Y-3726547D01*
G01X411206Y-3744778D01*
G01X165313Y-3744778D01*
G01X165313Y-3576297D01*
G01X398059Y-3576297D01*
G01X400008Y-3586099D01*
G01X405561Y-3594409D01*
G01X413870Y-3599961D01*
G01X423672Y-3601911D01*
G01X576072Y-3601911D01*
G01X585874Y-3599961D01*
G01X594183Y-3594409D01*
G01X599736Y-3586099D01*
G01X601685Y-3576297D01*
G01X601685Y-3554494D01*
G01X1638087Y-4590895D01*
G01X1638087Y-7734300D01*
G01X1638087Y-7734300D01*
G01X1639392Y-7744216D01*
G01X1643220Y-7753457D01*
G01X1649308Y-7761392D01*
G01X1938207Y-8050291D01*
G01X1932259Y-8069464D01*
G01X1930188Y-8089432D01*
G01X1932075Y-8109419D01*
G01X1937847Y-8128646D01*
G01X1947280Y-8146367D01*
G01X1960007Y-8161893D01*
G01X1975533Y-8174620D01*
G01X1993254Y-8184053D01*
G01X2012481Y-8189825D01*
G01X2032468Y-8191712D01*
G01X2052436Y-8189641D01*
G01X2071609Y-8183693D01*
G01X2158787Y-8270870D01*
G01X2158787Y-8585200D01*
G01X2160092Y-8595116D01*
G01X2163920Y-8604357D01*
G01X2170008Y-8612292D01*
G01X3332316Y-9774599D01*
G01X3326155Y-9793077D01*
G01X3323493Y-9812372D01*
G01X3324419Y-9831828D01*
G01X3328902Y-9850783D01*
G01X3336790Y-9868593D01*
G01X3347815Y-9884651D01*
G01X3361600Y-9898411D01*
G01X3377679Y-9909405D01*
G01X3395503Y-9917260D01*
G01X3414466Y-9921708D01*
G01X3433924Y-9922598D01*
G01X3453214Y-9919900D01*
G01X3471681Y-9913705D01*
G01X3488695Y-9904224D01*
G01X3503680Y-9891780D01*
G01X3516124Y-9876795D01*
G01X3525605Y-9859781D01*
G01X3531800Y-9841314D01*
G01X3534498Y-9822024D01*
G01X3533827Y-9807355D01*
G01X5863837Y-9807355D01*
G01X5863837Y-9826845D01*
G01X5867419Y-9846002D01*
G01X5874459Y-9864176D01*
G01X5884719Y-9880746D01*
G01X5897849Y-9895149D01*
G01X5913402Y-9906894D01*
G01X5930848Y-9915581D01*
G01X5949594Y-9920915D01*
G01X5969000Y-9922713D01*
G01X5988406Y-9920915D01*
G01X6007152Y-9915581D01*
G01X6024598Y-9906894D01*
G01X6040151Y-9895149D01*
G01X6053281Y-9880746D01*
G01X6063541Y-9864176D01*
G01X6070581Y-9846002D01*
G01X6073064Y-9832721D01*
G01X7876708Y-9832721D01*
G01X7876708Y-9953879D01*
G01X7878657Y-9963681D01*
G01X7884210Y-9971990D01*
G01X7892519Y-9977543D01*
G01X7902321Y-9979492D01*
G01X8023479Y-9979492D01*
G01X8023479Y-9979492D01*
G01X8033281Y-9977543D01*
G01X8041590Y-9971990D01*
G01X8047143Y-9963681D01*
G01X8049092Y-9953879D01*
G01X8049092Y-9832721D01*
G01X8143367Y-9832721D01*
G01X8143367Y-9953879D01*
G01X8145103Y-9960356D01*
G01X8149844Y-9965097D01*
G01X8156321Y-9966833D01*
G01X8277479Y-9966833D01*
G01X8277479Y-9966833D01*
G01X8283956Y-9965097D01*
G01X8288697Y-9960356D01*
G01X8290433Y-9953879D01*
G01X8290433Y-9832721D01*
G01X8288697Y-9826244D01*
G01X8283956Y-9821503D01*
G01X8277479Y-9819767D01*
G01X8156321Y-9819767D01*
G01X8149844Y-9821503D01*
G01X8145103Y-9826244D01*
G01X8143367Y-9832721D01*
G01X8049092Y-9832721D01*
G01X8047143Y-9822919D01*
G01X8041590Y-9814610D01*
G01X8033281Y-9809057D01*
G01X8023479Y-9807108D01*
G01X7902321Y-9807108D01*
G01X7892519Y-9809057D01*
G01X7884210Y-9814610D01*
G01X7878657Y-9822919D01*
G01X7876708Y-9832721D01*
G01X6073064Y-9832721D01*
G01X6074163Y-9826845D01*
G01X6074163Y-9807355D01*
G01X6070581Y-9788198D01*
G01X6063541Y-9770024D01*
G01X6053281Y-9753454D01*
G01X6040151Y-9739051D01*
G01X6024598Y-9727306D01*
G01X6007152Y-9718619D01*
G01X5988406Y-9713285D01*
G01X5969000Y-9711487D01*
G01X5969000Y-9711487D01*
G01X5949594Y-9713285D01*
G01X5930848Y-9718619D01*
G01X5913402Y-9727306D01*
G01X5897849Y-9739051D01*
G01X5884719Y-9753454D01*
G01X5874459Y-9770024D01*
G01X5867419Y-9788198D01*
G01X5863837Y-9807355D01*
G01X3533827Y-9807355D01*
G01X3533608Y-9802566D01*
G01X3529160Y-9783603D01*
G01X3521305Y-9765779D01*
G01X3510311Y-9749700D01*
G01X3496551Y-9735915D01*
G01X3480493Y-9724890D01*
G01X3462683Y-9717002D01*
G01X3443728Y-9712519D01*
G01X3424272Y-9711593D01*
G01X3404977Y-9714255D01*
G01X3386499Y-9720416D01*
G01X3229183Y-9563100D01*
G01X3336046Y-9563100D01*
G01X3337832Y-9581234D01*
G01X3343122Y-9598672D01*
G01X3351712Y-9614742D01*
G01X3363272Y-9628828D01*
G01X3377358Y-9640388D01*
G01X3393428Y-9648978D01*
G01X3410866Y-9654268D01*
G01X3429000Y-9656054D01*
G01X3447134Y-9654268D01*
G01X3464572Y-9648978D01*
G01X3480642Y-9640388D01*
G01X3494728Y-9628828D01*
G01X3506288Y-9614742D01*
G01X3514878Y-9598672D01*
G01X3520168Y-9581234D01*
G01X3521954Y-9563100D01*
G01X5876046Y-9563100D01*
G01X5877832Y-9581234D01*
G01X5883122Y-9598672D01*
G01X5891712Y-9614742D01*
G01X5903272Y-9628828D01*
G01X5917358Y-9640388D01*
G01X5933428Y-9648978D01*
G01X5950866Y-9654268D01*
G01X5969000Y-9656054D01*
G01X5987134Y-9654268D01*
G01X6004572Y-9648978D01*
G01X6020642Y-9640388D01*
G01X6034728Y-9628828D01*
G01X6046288Y-9614742D01*
G01X6054878Y-9598672D01*
G01X6060168Y-9581234D01*
G01X6061954Y-9563100D01*
G01X6060168Y-9544966D01*
G01X6054878Y-9527528D01*
G01X6046288Y-9511458D01*
G01X6034728Y-9497372D01*
G01X6020642Y-9485812D01*
G01X6004572Y-9477222D01*
G01X5987134Y-9471932D01*
G01X5969000Y-9470146D01*
G01X5969000Y-9470146D01*
G01X5950866Y-9471932D01*
G01X5933428Y-9477222D01*
G01X5917358Y-9485812D01*
G01X5903272Y-9497372D01*
G01X5891712Y-9511458D01*
G01X5883122Y-9527528D01*
G01X5877832Y-9544966D01*
G01X5876046Y-9563100D01*
G01X3521954Y-9563100D01*
G01X3520168Y-9544966D01*
G01X3514878Y-9527528D01*
G01X3506288Y-9511458D01*
G01X3494728Y-9497372D01*
G01X3480642Y-9485812D01*
G01X3464572Y-9477222D01*
G01X3447134Y-9471932D01*
G01X3429000Y-9470146D01*
G01X3429000Y-9470146D01*
G01X3410866Y-9471932D01*
G01X3393428Y-9477222D01*
G01X3377358Y-9485812D01*
G01X3363272Y-9497372D01*
G01X3351712Y-9511458D01*
G01X3343122Y-9527528D01*
G01X3337832Y-9544966D01*
G01X3336046Y-9563100D01*
G01X3229183Y-9563100D01*
G01X2965439Y-9299355D01*
G01X3323837Y-9299355D01*
G01X3323837Y-9318845D01*
G01X3327419Y-9338002D01*
G01X3334459Y-9356176D01*
G01X3344719Y-9372746D01*
G01X3357849Y-9387149D01*
G01X3373402Y-9398894D01*
G01X3390848Y-9407581D01*
G01X3409594Y-9412915D01*
G01X3429000Y-9414713D01*
G01X3448406Y-9412915D01*
G01X3467152Y-9407581D01*
G01X3484598Y-9398894D01*
G01X3500151Y-9387149D01*
G01X3513281Y-9372746D01*
G01X3523541Y-9356176D01*
G01X3530581Y-9338002D01*
G01X3534163Y-9318845D01*
G01X3534163Y-9299355D01*
G01X5863837Y-9299355D01*
G01X5863837Y-9318845D01*
G01X5867419Y-9338002D01*
G01X5874459Y-9356176D01*
G01X5884719Y-9372746D01*
G01X5897849Y-9387149D01*
G01X5913402Y-9398894D01*
G01X5930848Y-9407581D01*
G01X5949594Y-9412915D01*
G01X5969000Y-9414713D01*
G01X5988406Y-9412915D01*
G01X6007152Y-9407581D01*
G01X6024598Y-9398894D01*
G01X6040151Y-9387149D01*
G01X6053281Y-9372746D01*
G01X6063541Y-9356176D01*
G01X6070581Y-9338002D01*
G01X6074163Y-9318845D01*
G01X6074163Y-9299355D01*
G01X6070581Y-9280198D01*
G01X6063541Y-9262024D01*
G01X6053281Y-9245454D01*
G01X6040151Y-9231051D01*
G01X6024598Y-9219306D01*
G01X6007152Y-9210619D01*
G01X5988406Y-9205285D01*
G01X5969000Y-9203487D01*
G01X5969000Y-9203487D01*
G01X5949594Y-9205285D01*
G01X5930848Y-9210619D01*
G01X5913402Y-9219306D01*
G01X5897849Y-9231051D01*
G01X5884719Y-9245454D01*
G01X5874459Y-9262024D01*
G01X5867419Y-9280198D01*
G01X5863837Y-9299355D01*
G01X3534163Y-9299355D01*
G01X3530581Y-9280198D01*
G01X3523541Y-9262024D01*
G01X3513281Y-9245454D01*
G01X3500151Y-9231051D01*
G01X3484598Y-9219306D01*
G01X3467152Y-9210619D01*
G01X3448406Y-9205285D01*
G01X3429000Y-9203487D01*
G01X3429000Y-9203487D01*
G01X3409594Y-9205285D01*
G01X3390848Y-9210619D01*
G01X3373402Y-9219306D01*
G01X3357849Y-9231051D01*
G01X3344719Y-9245454D01*
G01X3334459Y-9262024D01*
G01X3327419Y-9280198D01*
G01X3323837Y-9299355D01*
G01X2965439Y-9299355D01*
G01X2711439Y-9045355D01*
G01X3323837Y-9045355D01*
G01X3323837Y-9064845D01*
G01X3327419Y-9084002D01*
G01X3334459Y-9102176D01*
G01X3344719Y-9118746D01*
G01X3357849Y-9133149D01*
G01X3373402Y-9144894D01*
G01X3390848Y-9153581D01*
G01X3409594Y-9158915D01*
G01X3429000Y-9160713D01*
G01X3448406Y-9158915D01*
G01X3467152Y-9153581D01*
G01X3484598Y-9144894D01*
G01X3500151Y-9133149D01*
G01X3513281Y-9118746D01*
G01X3523541Y-9102176D01*
G01X3530581Y-9084002D01*
G01X3534163Y-9064845D01*
G01X3534163Y-9045355D01*
G01X5863837Y-9045355D01*
G01X5863837Y-9064845D01*
G01X5867419Y-9084002D01*
G01X5874459Y-9102176D01*
G01X5884719Y-9118746D01*
G01X5897849Y-9133149D01*
G01X5913402Y-9144894D01*
G01X5930848Y-9153581D01*
G01X5949594Y-9158915D01*
G01X5969000Y-9160713D01*
G01X5988406Y-9158915D01*
G01X6007152Y-9153581D01*
G01X6024598Y-9144894D01*
G01X6040151Y-9133149D01*
G01X6053281Y-9118746D01*
G01X6063541Y-9102176D01*
G01X6070581Y-9084002D01*
G01X6074163Y-9064845D01*
G01X6074163Y-9045355D01*
G01X6070581Y-9026198D01*
G01X6063541Y-9008024D01*
G01X6053281Y-8991454D01*
G01X6040151Y-8977051D01*
G01X6024598Y-8965306D01*
G01X6007152Y-8956619D01*
G01X5988406Y-8951285D01*
G01X5969000Y-8949487D01*
G01X5969000Y-8949487D01*
G01X5949594Y-8951285D01*
G01X5930848Y-8956619D01*
G01X5913402Y-8965306D01*
G01X5897849Y-8977051D01*
G01X5884719Y-8991454D01*
G01X5874459Y-9008024D01*
G01X5867419Y-9026198D01*
G01X5863837Y-9045355D01*
G01X3534163Y-9045355D01*
G01X3530581Y-9026198D01*
G01X3523541Y-9008024D01*
G01X3513281Y-8991454D01*
G01X3500151Y-8977051D01*
G01X3484598Y-8965306D01*
G01X3467152Y-8956619D01*
G01X3448406Y-8951285D01*
G01X3429000Y-8949487D01*
G01X3429000Y-8949487D01*
G01X3409594Y-8951285D01*
G01X3390848Y-8956619D01*
G01X3373402Y-8965306D01*
G01X3357849Y-8977051D01*
G01X3344719Y-8991454D01*
G01X3334459Y-9008024D01*
G01X3327419Y-9026198D01*
G01X3323837Y-9045355D01*
G01X2711439Y-9045355D01*
G01X2457439Y-8791355D01*
G01X3323837Y-8791355D01*
G01X3323837Y-8810845D01*
G01X3327419Y-8830002D01*
G01X3334459Y-8848176D01*
G01X3344719Y-8864746D01*
G01X3357849Y-8879149D01*
G01X3373402Y-8890894D01*
G01X3390848Y-8899581D01*
G01X3409594Y-8904915D01*
G01X3429000Y-8906713D01*
G01X3448406Y-8904915D01*
G01X3467152Y-8899581D01*
G01X3484598Y-8890894D01*
G01X3500151Y-8879149D01*
G01X3513281Y-8864746D01*
G01X3523541Y-8848176D01*
G01X3530581Y-8830002D01*
G01X3534163Y-8810845D01*
G01X3534163Y-8791355D01*
G01X5863837Y-8791355D01*
G01X5863837Y-8810845D01*
G01X5867419Y-8830002D01*
G01X5874459Y-8848176D01*
G01X5884719Y-8864746D01*
G01X5897849Y-8879149D01*
G01X5913402Y-8890894D01*
G01X5930848Y-8899581D01*
G01X5949594Y-8904915D01*
G01X5969000Y-8906713D01*
G01X5988406Y-8904915D01*
G01X6007152Y-8899581D01*
G01X6024598Y-8890894D01*
G01X6040151Y-8879149D01*
G01X6053281Y-8864746D01*
G01X6063541Y-8848176D01*
G01X6070581Y-8830002D01*
G01X6074163Y-8810845D01*
G01X6074163Y-8791355D01*
G01X6070581Y-8772198D01*
G01X6063541Y-8754024D01*
G01X6053281Y-8737454D01*
G01X6040151Y-8723051D01*
G01X6024598Y-8711306D01*
G01X6007152Y-8702619D01*
G01X5988406Y-8697285D01*
G01X5969000Y-8695487D01*
G01X5969000Y-8695487D01*
G01X5949594Y-8697285D01*
G01X5930848Y-8702619D01*
G01X5913402Y-8711306D01*
G01X5897849Y-8723051D01*
G01X5884719Y-8737454D01*
G01X5874459Y-8754024D01*
G01X5867419Y-8772198D01*
G01X5863837Y-8791355D01*
G01X3534163Y-8791355D01*
G01X3530581Y-8772198D01*
G01X3523541Y-8754024D01*
G01X3513281Y-8737454D01*
G01X3500151Y-8723051D01*
G01X3484598Y-8711306D01*
G01X3467152Y-8702619D01*
G01X3448406Y-8697285D01*
G01X3429000Y-8695487D01*
G01X3429000Y-8695487D01*
G01X3409594Y-8697285D01*
G01X3390848Y-8702619D01*
G01X3373402Y-8711306D01*
G01X3357849Y-8723051D01*
G01X3344719Y-8737454D01*
G01X3334459Y-8754024D01*
G01X3327419Y-8772198D01*
G01X3323837Y-8791355D01*
G01X2457439Y-8791355D01*
G01X2235413Y-8569330D01*
G01X2235413Y-8537355D01*
G01X3323837Y-8537355D01*
G01X3323837Y-8556845D01*
G01X3327419Y-8576002D01*
G01X3334459Y-8594176D01*
G01X3344719Y-8610746D01*
G01X3357849Y-8625149D01*
G01X3373402Y-8636894D01*
G01X3390848Y-8645581D01*
G01X3409594Y-8650915D01*
G01X3429000Y-8652713D01*
G01X3448406Y-8650915D01*
G01X3467152Y-8645581D01*
G01X3484598Y-8636894D01*
G01X3500151Y-8625149D01*
G01X3513281Y-8610746D01*
G01X3523541Y-8594176D01*
G01X3530581Y-8576002D01*
G01X3534163Y-8556845D01*
G01X3534163Y-8542176D01*
G01X5863502Y-8542176D01*
G01X5864392Y-8561634D01*
G01X5868840Y-8580597D01*
G01X5876695Y-8598421D01*
G01X5887689Y-8614500D01*
G01X5901449Y-8628285D01*
G01X5917507Y-8639310D01*
G01X5935317Y-8647198D01*
G01X5954272Y-8651681D01*
G01X5973728Y-8652607D01*
G01X5993023Y-8649945D01*
G01X6011501Y-8643784D01*
G01X6551508Y-9183792D01*
G01X6559443Y-9189880D01*
G01X6568684Y-9193708D01*
G01X6578600Y-9195013D01*
G01X6822878Y-9195013D01*
G01X6832193Y-9212722D01*
G01X6844791Y-9228267D01*
G01X6860186Y-9241047D01*
G01X6877783Y-9250570D01*
G01X6896903Y-9256468D01*
G01X6916807Y-9258513D01*
G01X6936726Y-9256625D01*
G01X6955892Y-9250878D01*
G01X6973563Y-9241494D01*
G01X6989058Y-9228834D01*
G01X7001779Y-9213389D01*
G01X7011232Y-9195755D01*
G01X7017055Y-9176612D01*
G01X7019021Y-9156700D01*
G01X7871579Y-9156700D01*
G01X7873417Y-9175353D01*
G01X7878858Y-9193290D01*
G01X7887693Y-9209820D01*
G01X7899584Y-9224309D01*
G01X7914073Y-9236199D01*
G01X7930603Y-9245035D01*
G01X7948539Y-9250476D01*
G01X7967193Y-9252313D01*
G01X7985846Y-9250476D01*
G01X8003782Y-9245035D01*
G01X8020312Y-9236199D01*
G01X8034801Y-9224309D01*
G01X8046692Y-9209820D01*
G01X8055528Y-9193290D01*
G01X8060969Y-9175353D01*
G01X8062806Y-9156700D01*
G01X8060969Y-9138047D01*
G01X8055528Y-9120110D01*
G01X8046692Y-9103580D01*
G01X8034801Y-9089091D01*
G01X8020312Y-9077201D01*
G01X8003782Y-9068365D01*
G01X7985846Y-9062924D01*
G01X7967193Y-9061087D01*
G01X7948539Y-9062924D01*
G01X7930603Y-9068365D01*
G01X7914073Y-9077201D01*
G01X7899584Y-9089091D01*
G01X7887693Y-9103580D01*
G01X7878858Y-9120110D01*
G01X7873417Y-9138047D01*
G01X7871579Y-9156700D01*
G01X7871579Y-9156700D01*
G01X7019021Y-9156700D01*
G01X7017055Y-9136788D01*
G01X7011232Y-9117645D01*
G01X7001779Y-9100011D01*
G01X6989058Y-9084566D01*
G01X6973563Y-9071906D01*
G01X6955892Y-9062522D01*
G01X6936726Y-9056775D01*
G01X6916807Y-9054887D01*
G01X6896903Y-9056932D01*
G01X6877783Y-9062830D01*
G01X6860186Y-9072353D01*
G01X6844791Y-9085133D01*
G01X6832193Y-9100678D01*
G01X6822878Y-9118387D01*
G01X6594470Y-9118387D01*
G01X6065684Y-8589601D01*
G01X6065684Y-8589601D01*
G01X6071845Y-8571123D01*
G01X6074507Y-8551828D01*
G01X6073581Y-8532372D01*
G01X6069098Y-8513417D01*
G01X6061210Y-8495607D01*
G01X6050185Y-8479549D01*
G01X6036400Y-8465789D01*
G01X6020321Y-8454795D01*
G01X6002497Y-8446940D01*
G01X5983534Y-8442492D01*
G01X5964076Y-8441602D01*
G01X5944786Y-8444300D01*
G01X5926319Y-8450495D01*
G01X5909305Y-8459976D01*
G01X5894320Y-8472420D01*
G01X5881876Y-8487405D01*
G01X5872395Y-8504419D01*
G01X5866200Y-8522886D01*
G01X5863502Y-8542176D01*
G01X3534163Y-8542176D01*
G01X3534163Y-8537355D01*
G01X3530581Y-8518198D01*
G01X3523541Y-8500024D01*
G01X3513281Y-8483454D01*
G01X3500151Y-8469051D01*
G01X3484598Y-8457306D01*
G01X3467152Y-8448619D01*
G01X3448406Y-8443285D01*
G01X3429000Y-8441487D01*
G01X3429000Y-8441487D01*
G01X3409594Y-8443285D01*
G01X3390848Y-8448619D01*
G01X3373402Y-8457306D01*
G01X3357849Y-8469051D01*
G01X3344719Y-8483454D01*
G01X3334459Y-8500024D01*
G01X3327419Y-8518198D01*
G01X3323837Y-8537355D01*
G01X2235413Y-8537355D01*
G01X2235413Y-8283355D01*
G01X3323837Y-8283355D01*
G01X3323837Y-8302845D01*
G01X3327419Y-8322002D01*
G01X3334459Y-8340176D01*
G01X3344719Y-8356746D01*
G01X3357849Y-8371149D01*
G01X3373402Y-8382894D01*
G01X3390848Y-8391581D01*
G01X3409594Y-8396915D01*
G01X3429000Y-8398713D01*
G01X3448406Y-8396915D01*
G01X3467152Y-8391581D01*
G01X3484598Y-8382894D01*
G01X3500151Y-8371149D01*
G01X3513281Y-8356746D01*
G01X3523541Y-8340176D01*
G01X3530581Y-8322002D01*
G01X3534163Y-8302845D01*
G01X3534163Y-8283355D01*
G01X5863837Y-8283355D01*
G01X5863837Y-8302845D01*
G01X5867419Y-8322002D01*
G01X5874459Y-8340176D01*
G01X5884719Y-8356746D01*
G01X5897849Y-8371149D01*
G01X5913402Y-8382894D01*
G01X5930848Y-8391581D01*
G01X5949594Y-8396915D01*
G01X5969000Y-8398713D01*
G01X5988406Y-8396915D01*
G01X6007152Y-8391581D01*
G01X6024598Y-8382894D01*
G01X6040151Y-8371149D01*
G01X6053281Y-8356746D01*
G01X6063541Y-8340176D01*
G01X6070581Y-8322002D01*
G01X6074163Y-8302845D01*
G01X6074163Y-8283355D01*
G01X6070581Y-8264198D01*
G01X6063541Y-8246024D01*
G01X6053281Y-8229454D01*
G01X6040151Y-8215051D01*
G01X6024598Y-8203306D01*
G01X6007152Y-8194619D01*
G01X5988406Y-8189285D01*
G01X5969000Y-8187487D01*
G01X5969000Y-8187487D01*
G01X5949594Y-8189285D01*
G01X5930848Y-8194619D01*
G01X5913402Y-8203306D01*
G01X5897849Y-8215051D01*
G01X5884719Y-8229454D01*
G01X5874459Y-8246024D01*
G01X5867419Y-8264198D01*
G01X5863837Y-8283355D01*
G01X3534163Y-8283355D01*
G01X3530581Y-8264198D01*
G01X3523541Y-8246024D01*
G01X3513281Y-8229454D01*
G01X3500151Y-8215051D01*
G01X3484598Y-8203306D01*
G01X3467152Y-8194619D01*
G01X3448406Y-8189285D01*
G01X3429000Y-8187487D01*
G01X3429000Y-8187487D01*
G01X3409594Y-8189285D01*
G01X3390848Y-8194619D01*
G01X3373402Y-8203306D01*
G01X3357849Y-8215051D01*
G01X3344719Y-8229454D01*
G01X3334459Y-8246024D01*
G01X3327419Y-8264198D01*
G01X3323837Y-8283355D01*
G01X2235413Y-8283355D01*
G01X2235413Y-8255000D01*
G01X2234108Y-8245084D01*
G01X2230280Y-8235843D01*
G01X2224192Y-8227908D01*
G01X2125793Y-8129509D01*
G01X2131741Y-8110336D01*
G01X2133812Y-8090368D01*
G01X2131925Y-8070381D01*
G01X2126153Y-8051154D01*
G01X2116720Y-8033433D01*
G01X2113377Y-8029355D01*
G01X3323837Y-8029355D01*
G01X3323837Y-8048845D01*
G01X3327419Y-8068002D01*
G01X3334459Y-8086176D01*
G01X3344719Y-8102746D01*
G01X3357849Y-8117149D01*
G01X3373402Y-8128894D01*
G01X3390848Y-8137581D01*
G01X3409594Y-8142915D01*
G01X3429000Y-8144713D01*
G01X3448406Y-8142915D01*
G01X3467152Y-8137581D01*
G01X3484598Y-8128894D01*
G01X3500151Y-8117149D01*
G01X3513281Y-8102746D01*
G01X3523541Y-8086176D01*
G01X3530581Y-8068002D01*
G01X3534163Y-8048845D01*
G01X3534163Y-8029355D01*
G01X3530581Y-8010198D01*
G01X3523541Y-7992024D01*
G01X3513281Y-7975454D01*
G01X3500151Y-7961051D01*
G01X3484598Y-7949306D01*
G01X3467152Y-7940619D01*
G01X3448406Y-7935285D01*
G01X3429000Y-7933487D01*
G01X3429000Y-7933487D01*
G01X3409594Y-7935285D01*
G01X3390848Y-7940619D01*
G01X3373402Y-7949306D01*
G01X3357849Y-7961051D01*
G01X3344719Y-7975454D01*
G01X3334459Y-7992024D01*
G01X3327419Y-8010198D01*
G01X3323837Y-8029355D01*
G01X2113377Y-8029355D01*
G01X2103993Y-8017907D01*
G01X2088467Y-8005180D01*
G01X2070746Y-7995747D01*
G01X2051519Y-7989975D01*
G01X2031532Y-7988088D01*
G01X2011564Y-7990159D01*
G01X1992391Y-7996107D01*
G01X1832183Y-7835900D01*
G01X1930187Y-7835900D01*
G01X1932143Y-7855763D01*
G01X1937937Y-7874862D01*
G01X1947345Y-7892464D01*
G01X1960007Y-7907893D01*
G01X1975436Y-7920555D01*
G01X1993038Y-7929963D01*
G01X2012137Y-7935757D01*
G01X2032000Y-7937713D01*
G01X2051863Y-7935757D01*
G01X2070962Y-7929963D01*
G01X2088564Y-7920555D01*
G01X2103993Y-7907893D01*
G01X2116655Y-7892464D01*
G01X2126063Y-7874862D01*
G01X2131857Y-7855763D01*
G01X2133813Y-7835900D01*
G01X2131857Y-7816037D01*
G01X2126063Y-7796938D01*
G01X2116655Y-7779336D01*
G01X2113388Y-7775355D01*
G01X3323837Y-7775355D01*
G01X3323837Y-7794845D01*
G01X3327419Y-7814002D01*
G01X3334459Y-7832176D01*
G01X3344719Y-7848746D01*
G01X3357849Y-7863149D01*
G01X3373402Y-7874894D01*
G01X3390848Y-7883581D01*
G01X3409594Y-7888915D01*
G01X3429000Y-7890713D01*
G01X3448406Y-7888915D01*
G01X3467152Y-7883581D01*
G01X3484598Y-7874894D01*
G01X3500151Y-7863149D01*
G01X3513281Y-7848746D01*
G01X3523541Y-7832176D01*
G01X3530581Y-7814002D01*
G01X3534163Y-7794845D01*
G01X3534163Y-7775355D01*
G01X3530581Y-7756198D01*
G01X3523541Y-7738024D01*
G01X3513281Y-7721454D01*
G01X3500151Y-7707051D01*
G01X3484598Y-7695306D01*
G01X3467152Y-7686619D01*
G01X3448406Y-7681285D01*
G01X3429000Y-7679487D01*
G01X3429000Y-7679487D01*
G01X3409594Y-7681285D01*
G01X3390848Y-7686619D01*
G01X3373402Y-7695306D01*
G01X3357849Y-7707051D01*
G01X3344719Y-7721454D01*
G01X3334459Y-7738024D01*
G01X3327419Y-7756198D01*
G01X3323837Y-7775355D01*
G01X2113388Y-7775355D01*
G01X2103993Y-7763907D01*
G01X2088564Y-7751245D01*
G01X2070962Y-7741837D01*
G01X2051863Y-7736043D01*
G01X2032000Y-7734087D01*
G01X2012137Y-7736043D01*
G01X1993038Y-7741837D01*
G01X1975436Y-7751245D01*
G01X1960007Y-7763907D01*
G01X1947345Y-7779336D01*
G01X1937937Y-7796938D01*
G01X1932143Y-7816037D01*
G01X1930187Y-7835900D01*
G01X1930187Y-7835900D01*
G01X1832183Y-7835900D01*
G01X1714713Y-7718430D01*
G01X1714713Y-7581900D01*
G01X1930187Y-7581900D01*
G01X1932143Y-7601763D01*
G01X1937937Y-7620862D01*
G01X1947345Y-7638464D01*
G01X1960007Y-7653893D01*
G01X1975436Y-7666555D01*
G01X1993038Y-7675963D01*
G01X2012137Y-7681757D01*
G01X2032000Y-7683713D01*
G01X2051863Y-7681757D01*
G01X2070962Y-7675963D01*
G01X2088564Y-7666555D01*
G01X2103993Y-7653893D01*
G01X2116655Y-7638464D01*
G01X2126063Y-7620862D01*
G01X2131857Y-7601763D01*
G01X2133813Y-7581900D01*
G01X2131857Y-7562037D01*
G01X2126063Y-7542938D01*
G01X2116655Y-7525336D01*
G01X2113388Y-7521355D01*
G01X3323837Y-7521355D01*
G01X3323837Y-7540845D01*
G01X3327419Y-7560002D01*
G01X3334459Y-7578176D01*
G01X3344719Y-7594746D01*
G01X3357849Y-7609149D01*
G01X3373402Y-7620894D01*
G01X3390848Y-7629581D01*
G01X3409594Y-7634915D01*
G01X3429000Y-7636713D01*
G01X3448406Y-7634915D01*
G01X3467152Y-7629581D01*
G01X3484598Y-7620894D01*
G01X3500151Y-7609149D01*
G01X3513281Y-7594746D01*
G01X3523541Y-7578176D01*
G01X3530581Y-7560002D01*
G01X3534163Y-7540845D01*
G01X3534163Y-7521355D01*
G01X3530581Y-7502198D01*
G01X3523541Y-7484024D01*
G01X3513281Y-7467454D01*
G01X3500151Y-7453051D01*
G01X3484598Y-7441306D01*
G01X3467152Y-7432619D01*
G01X3448406Y-7427285D01*
G01X3429000Y-7425487D01*
G01X3429000Y-7425487D01*
G01X3409594Y-7427285D01*
G01X3390848Y-7432619D01*
G01X3373402Y-7441306D01*
G01X3357849Y-7453051D01*
G01X3344719Y-7467454D01*
G01X3334459Y-7484024D01*
G01X3327419Y-7502198D01*
G01X3323837Y-7521355D01*
G01X2113388Y-7521355D01*
G01X2103993Y-7509907D01*
G01X2088564Y-7497245D01*
G01X2070962Y-7487837D01*
G01X2051863Y-7482043D01*
G01X2032000Y-7480087D01*
G01X2012137Y-7482043D01*
G01X1993038Y-7487837D01*
G01X1975436Y-7497245D01*
G01X1960007Y-7509907D01*
G01X1947345Y-7525336D01*
G01X1937937Y-7542938D01*
G01X1932143Y-7562037D01*
G01X1930187Y-7581900D01*
G01X1930187Y-7581900D01*
G01X1714713Y-7581900D01*
G01X1714713Y-7327900D01*
G01X1930187Y-7327900D01*
G01X1932143Y-7347763D01*
G01X1937937Y-7366862D01*
G01X1947345Y-7384464D01*
G01X1960007Y-7399893D01*
G01X1975436Y-7412555D01*
G01X1993038Y-7421963D01*
G01X2012137Y-7427757D01*
G01X2032000Y-7429713D01*
G01X2051863Y-7427757D01*
G01X2070962Y-7421963D01*
G01X2088564Y-7412555D01*
G01X2103993Y-7399893D01*
G01X2116655Y-7384464D01*
G01X2126063Y-7366862D01*
G01X2131857Y-7347763D01*
G01X2133813Y-7327900D01*
G01X2131857Y-7308037D01*
G01X2126063Y-7288938D01*
G01X2116655Y-7271336D01*
G01X2113388Y-7267355D01*
G01X3323837Y-7267355D01*
G01X3323837Y-7286845D01*
G01X3327419Y-7306002D01*
G01X3334459Y-7324176D01*
G01X3344719Y-7340746D01*
G01X3357849Y-7355149D01*
G01X3373402Y-7366894D01*
G01X3390848Y-7375581D01*
G01X3409594Y-7380915D01*
G01X3429000Y-7382713D01*
G01X3448406Y-7380915D01*
G01X3467152Y-7375581D01*
G01X3484598Y-7366894D01*
G01X3500151Y-7355149D01*
G01X3513281Y-7340746D01*
G01X3523541Y-7324176D01*
G01X3530581Y-7306002D01*
G01X3534163Y-7286845D01*
G01X3534163Y-7267355D01*
G01X3530581Y-7248198D01*
G01X3523541Y-7230024D01*
G01X3513281Y-7213454D01*
G01X3500151Y-7199051D01*
G01X3484598Y-7187306D01*
G01X3467152Y-7178619D01*
G01X3448406Y-7173285D01*
G01X3429000Y-7171487D01*
G01X3429000Y-7171487D01*
G01X3409594Y-7173285D01*
G01X3390848Y-7178619D01*
G01X3373402Y-7187306D01*
G01X3357849Y-7199051D01*
G01X3344719Y-7213454D01*
G01X3334459Y-7230024D01*
G01X3327419Y-7248198D01*
G01X3323837Y-7267355D01*
G01X2113388Y-7267355D01*
G01X2103993Y-7255907D01*
G01X2088564Y-7243245D01*
G01X2070962Y-7233837D01*
G01X2051863Y-7228043D01*
G01X2032000Y-7226087D01*
G01X2012137Y-7228043D01*
G01X1993038Y-7233837D01*
G01X1975436Y-7243245D01*
G01X1960007Y-7255907D01*
G01X1947345Y-7271336D01*
G01X1937937Y-7288938D01*
G01X1932143Y-7308037D01*
G01X1930187Y-7327900D01*
G01X1930187Y-7327900D01*
G01X1714713Y-7327900D01*
G01X1714713Y-7073900D01*
G01X1930187Y-7073900D01*
G01X1932143Y-7093763D01*
G01X1937937Y-7112862D01*
G01X1947345Y-7130464D01*
G01X1960007Y-7145893D01*
G01X1975436Y-7158555D01*
G01X1993038Y-7167963D01*
G01X2012137Y-7173757D01*
G01X2032000Y-7175713D01*
G01X2051863Y-7173757D01*
G01X2070962Y-7167963D01*
G01X2088564Y-7158555D01*
G01X2103993Y-7145893D01*
G01X2116655Y-7130464D01*
G01X2126063Y-7112862D01*
G01X2131857Y-7093763D01*
G01X2133813Y-7073900D01*
G01X2131857Y-7054037D01*
G01X2126063Y-7034938D01*
G01X2116655Y-7017336D01*
G01X2113388Y-7013355D01*
G01X3323837Y-7013355D01*
G01X3323837Y-7032845D01*
G01X3327419Y-7052002D01*
G01X3334459Y-7070176D01*
G01X3344719Y-7086746D01*
G01X3357849Y-7101149D01*
G01X3373402Y-7112894D01*
G01X3390848Y-7121581D01*
G01X3409594Y-7126915D01*
G01X3429000Y-7128713D01*
G01X3448406Y-7126915D01*
G01X3467152Y-7121581D01*
G01X3484598Y-7112894D01*
G01X3500151Y-7101149D01*
G01X3513281Y-7086746D01*
G01X3523541Y-7070176D01*
G01X3530581Y-7052002D01*
G01X3534163Y-7032845D01*
G01X3534163Y-7013355D01*
G01X3530581Y-6994198D01*
G01X3523541Y-6976024D01*
G01X3513281Y-6959454D01*
G01X3500151Y-6945051D01*
G01X3484598Y-6933306D01*
G01X3467152Y-6924619D01*
G01X3448406Y-6919285D01*
G01X3429000Y-6917487D01*
G01X3429000Y-6917487D01*
G01X3409594Y-6919285D01*
G01X3390848Y-6924619D01*
G01X3373402Y-6933306D01*
G01X3357849Y-6945051D01*
G01X3344719Y-6959454D01*
G01X3334459Y-6976024D01*
G01X3327419Y-6994198D01*
G01X3323837Y-7013355D01*
G01X2113388Y-7013355D01*
G01X2103993Y-7001907D01*
G01X2088564Y-6989245D01*
G01X2070962Y-6979837D01*
G01X2051863Y-6974043D01*
G01X2032000Y-6972087D01*
G01X2012137Y-6974043D01*
G01X1993038Y-6979837D01*
G01X1975436Y-6989245D01*
G01X1960007Y-7001907D01*
G01X1947345Y-7017336D01*
G01X1937937Y-7034938D01*
G01X1932143Y-7054037D01*
G01X1930187Y-7073900D01*
G01X1930187Y-7073900D01*
G01X1714713Y-7073900D01*
G01X1714713Y-6819900D01*
G01X1942846Y-6819900D01*
G01X1944794Y-6838436D01*
G01X1950554Y-6856162D01*
G01X1959873Y-6872303D01*
G01X1972344Y-6886154D01*
G01X1987423Y-6897110D01*
G01X2004450Y-6904690D01*
G01X2022681Y-6908566D01*
G01X2041319Y-6908566D01*
G01X2059550Y-6904690D01*
G01X2076577Y-6897110D01*
G01X2091656Y-6886154D01*
G01X2104127Y-6872303D01*
G01X2113446Y-6856162D01*
G01X2119206Y-6838436D01*
G01X2121154Y-6819900D01*
G01X2119206Y-6801364D01*
G01X2113446Y-6783638D01*
G01X2104127Y-6767497D01*
G01X2096797Y-6759355D01*
G01X3323837Y-6759355D01*
G01X3323837Y-6778845D01*
G01X3327419Y-6798002D01*
G01X3334459Y-6816176D01*
G01X3344719Y-6832746D01*
G01X3357849Y-6847149D01*
G01X3373402Y-6858894D01*
G01X3390848Y-6867581D01*
G01X3409594Y-6872915D01*
G01X3429000Y-6874713D01*
G01X3448406Y-6872915D01*
G01X3467152Y-6867581D01*
G01X3484598Y-6858894D01*
G01X3500151Y-6847149D01*
G01X3513281Y-6832746D01*
G01X3523541Y-6816176D01*
G01X3530581Y-6798002D01*
G01X3534163Y-6778845D01*
G01X3534163Y-6759355D01*
G01X3530581Y-6740198D01*
G01X3523541Y-6722024D01*
G01X3513281Y-6705454D01*
G01X3500151Y-6691051D01*
G01X3484598Y-6679306D01*
G01X3467152Y-6670619D01*
G01X3448406Y-6665285D01*
G01X3429000Y-6663487D01*
G01X3429000Y-6663487D01*
G01X3409594Y-6665285D01*
G01X3390848Y-6670619D01*
G01X3373402Y-6679306D01*
G01X3357849Y-6691051D01*
G01X3344719Y-6705454D01*
G01X3334459Y-6722024D01*
G01X3327419Y-6740198D01*
G01X3323837Y-6759355D01*
G01X2096797Y-6759355D01*
G01X2091656Y-6753646D01*
G01X2076577Y-6742690D01*
G01X2059550Y-6735110D01*
G01X2041319Y-6731234D01*
G01X2022681Y-6731234D01*
G01X2004450Y-6735110D01*
G01X1987423Y-6742690D01*
G01X1972344Y-6753646D01*
G01X1959873Y-6767497D01*
G01X1950554Y-6783638D01*
G01X1944794Y-6801364D01*
G01X1942846Y-6819900D01*
G01X1942846Y-6819900D01*
G01X1714713Y-6819900D01*
G01X1714713Y-6573316D01*
G01X1930457Y-6573316D01*
G01X1933612Y-6592088D01*
G01X1940206Y-6609944D01*
G01X1950009Y-6626262D01*
G01X1962678Y-6640469D01*
G01X1977771Y-6652069D01*
G01X1994758Y-6660658D01*
G01X2013048Y-6665934D01*
G01X2032000Y-6667713D01*
G01X2050952Y-6665934D01*
G01X2069242Y-6660658D01*
G01X2086229Y-6652069D01*
G01X2101322Y-6640469D01*
G01X2113991Y-6626262D01*
G01X2123794Y-6609944D01*
G01X2130388Y-6592088D01*
G01X2133543Y-6573316D01*
G01X2133149Y-6554284D01*
G01X2129219Y-6535659D01*
G01X2121890Y-6518091D01*
G01X2113502Y-6505355D01*
G01X3323837Y-6505355D01*
G01X3323837Y-6524845D01*
G01X3327419Y-6544002D01*
G01X3334459Y-6562176D01*
G01X3344719Y-6578746D01*
G01X3357849Y-6593149D01*
G01X3373402Y-6604894D01*
G01X3390848Y-6613581D01*
G01X3409594Y-6618915D01*
G01X3429000Y-6620713D01*
G01X3448406Y-6618915D01*
G01X3467152Y-6613581D01*
G01X3484598Y-6604894D01*
G01X3500151Y-6593149D01*
G01X3513281Y-6578746D01*
G01X3523541Y-6562176D01*
G01X3530581Y-6544002D01*
G01X3534163Y-6524845D01*
G01X3534163Y-6505355D01*
G01X3531354Y-6490333D01*
G01X4185690Y-6490333D01*
G01X4187823Y-6505037D01*
G01X4193740Y-6518665D01*
G01X4203027Y-6530263D01*
G01X4215032Y-6539017D01*
G01X4228913Y-6544314D01*
G01X4243698Y-6545781D01*
G01X5764108Y-8066192D01*
G01X5772043Y-8072280D01*
G01X5781284Y-8076108D01*
G01X5791200Y-8077413D01*
G01X5870581Y-8077413D01*
G01X5879291Y-8094836D01*
G01X5891052Y-8110362D01*
G01X5905464Y-8123465D01*
G01X5922038Y-8133698D01*
G01X5940209Y-8140713D01*
G01X5959359Y-8144272D01*
G01X5978837Y-8144254D01*
G01X5997980Y-8140659D01*
G01X6016138Y-8133610D01*
G01X6032692Y-8123346D01*
G01X6047080Y-8110217D01*
G01X6058812Y-8094669D01*
G01X6067490Y-8077230D01*
G01X6072817Y-8058495D01*
G01X6074613Y-8039100D01*
G01X6072817Y-8019705D01*
G01X6067490Y-8000970D01*
G01X6058812Y-7983531D01*
G01X6047080Y-7967983D01*
G01X6032692Y-7954854D01*
G01X6016138Y-7944590D01*
G01X5997980Y-7937541D01*
G01X5978837Y-7933946D01*
G01X5959359Y-7933928D01*
G01X5940209Y-7937487D01*
G01X5922038Y-7944502D01*
G01X5905464Y-7954735D01*
G01X5891052Y-7967838D01*
G01X5879291Y-7983364D01*
G01X5870581Y-8000787D01*
G01X5807070Y-8000787D01*
G01X5581639Y-7775355D01*
G01X5863837Y-7775355D01*
G01X5863837Y-7794845D01*
G01X5867419Y-7814002D01*
G01X5874459Y-7832176D01*
G01X5884719Y-7848746D01*
G01X5897849Y-7863149D01*
G01X5913402Y-7874894D01*
G01X5930848Y-7883581D01*
G01X5949594Y-7888915D01*
G01X5969000Y-7890713D01*
G01X5988406Y-7888915D01*
G01X6007152Y-7883581D01*
G01X6024598Y-7874894D01*
G01X6040151Y-7863149D01*
G01X6053281Y-7848746D01*
G01X6063541Y-7832176D01*
G01X6070581Y-7814002D01*
G01X6074163Y-7794845D01*
G01X6074163Y-7775355D01*
G01X6070581Y-7756198D01*
G01X6063541Y-7738024D01*
G01X6053281Y-7721454D01*
G01X6040151Y-7707051D01*
G01X6024598Y-7695306D01*
G01X6007152Y-7686619D01*
G01X5988406Y-7681285D01*
G01X5969000Y-7679487D01*
G01X5969000Y-7679487D01*
G01X5949594Y-7681285D01*
G01X5930848Y-7686619D01*
G01X5913402Y-7695306D01*
G01X5897849Y-7707051D01*
G01X5884719Y-7721454D01*
G01X5874459Y-7738024D01*
G01X5867419Y-7756198D01*
G01X5863837Y-7775355D01*
G01X5581639Y-7775355D01*
G01X5327639Y-7521355D01*
G01X5863837Y-7521355D01*
G01X5863837Y-7540845D01*
G01X5867419Y-7560002D01*
G01X5874459Y-7578176D01*
G01X5884719Y-7594746D01*
G01X5897849Y-7609149D01*
G01X5913402Y-7620894D01*
G01X5930848Y-7629581D01*
G01X5949594Y-7634915D01*
G01X5969000Y-7636713D01*
G01X5988406Y-7634915D01*
G01X6007152Y-7629581D01*
G01X6024598Y-7620894D01*
G01X6040151Y-7609149D01*
G01X6053281Y-7594746D01*
G01X6063541Y-7578176D01*
G01X6070581Y-7560002D01*
G01X6074163Y-7540845D01*
G01X6074163Y-7521355D01*
G01X6070581Y-7502198D01*
G01X6063541Y-7484024D01*
G01X6053281Y-7467454D01*
G01X6040151Y-7453051D01*
G01X6024598Y-7441306D01*
G01X6007152Y-7432619D01*
G01X5988406Y-7427285D01*
G01X5969000Y-7425487D01*
G01X5969000Y-7425487D01*
G01X5949594Y-7427285D01*
G01X5930848Y-7432619D01*
G01X5913402Y-7441306D01*
G01X5897849Y-7453051D01*
G01X5884719Y-7467454D01*
G01X5874459Y-7484024D01*
G01X5867419Y-7502198D01*
G01X5863837Y-7521355D01*
G01X5327639Y-7521355D01*
G01X5199893Y-7393610D01*
G01X7587986Y-7393610D01*
G01X7589942Y-7413473D01*
G01X7595736Y-7432572D01*
G01X7605144Y-7450174D01*
G01X7617806Y-7465603D01*
G01X7633235Y-7478265D01*
G01X7650837Y-7487673D01*
G01X7669936Y-7493467D01*
G01X7689799Y-7495423D01*
G01X7709662Y-7493467D01*
G01X7728761Y-7487673D01*
G01X7746364Y-7478265D01*
G01X7761792Y-7465603D01*
G01X7774454Y-7450174D01*
G01X7783862Y-7432572D01*
G01X7789656Y-7413473D01*
G01X7791613Y-7393610D01*
G01X7790695Y-7384291D01*
G01X8471134Y-7384291D01*
G01X8471134Y-7402929D01*
G01X8475010Y-7421160D01*
G01X8482590Y-7438187D01*
G01X8493546Y-7453265D01*
G01X8507397Y-7465737D01*
G01X8523538Y-7475056D01*
G01X8541264Y-7480816D01*
G01X8559800Y-7482764D01*
G01X8578336Y-7480816D01*
G01X8596062Y-7475056D01*
G01X8612203Y-7465737D01*
G01X8626054Y-7453265D01*
G01X8637010Y-7438187D01*
G01X8644590Y-7421160D01*
G01X8648466Y-7402929D01*
G01X8648466Y-7384291D01*
G01X8644590Y-7366060D01*
G01X8637010Y-7349033D01*
G01X8626054Y-7333954D01*
G01X8612203Y-7321483D01*
G01X8596062Y-7312164D01*
G01X8578336Y-7306404D01*
G01X8559800Y-7304456D01*
G01X8559800Y-7304456D01*
G01X8541264Y-7306404D01*
G01X8523538Y-7312164D01*
G01X8507397Y-7321483D01*
G01X8493546Y-7333954D01*
G01X8482590Y-7349033D01*
G01X8475010Y-7366060D01*
G01X8471134Y-7384291D01*
G01X7790695Y-7384291D01*
G01X7789656Y-7373747D01*
G01X7783862Y-7354648D01*
G01X7774454Y-7337045D01*
G01X7761792Y-7321617D01*
G01X7746364Y-7308955D01*
G01X7728761Y-7299547D01*
G01X7709662Y-7293753D01*
G01X7689799Y-7291796D01*
G01X7689799Y-7291796D01*
G01X7669936Y-7293753D01*
G01X7650837Y-7299547D01*
G01X7633235Y-7308955D01*
G01X7617806Y-7321617D01*
G01X7605144Y-7337045D01*
G01X7595736Y-7354648D01*
G01X7589942Y-7373747D01*
G01X7587986Y-7393610D01*
G01X5199893Y-7393610D01*
G01X4819639Y-7013355D01*
G01X5863837Y-7013355D01*
G01X5863837Y-7032845D01*
G01X5867419Y-7052002D01*
G01X5874459Y-7070176D01*
G01X5884719Y-7086746D01*
G01X5897849Y-7101149D01*
G01X5913402Y-7112894D01*
G01X5930848Y-7121581D01*
G01X5949594Y-7126915D01*
G01X5969000Y-7128713D01*
G01X5988406Y-7126915D01*
G01X6007152Y-7121581D01*
G01X6024598Y-7112894D01*
G01X6040151Y-7101149D01*
G01X6053281Y-7086746D01*
G01X6063541Y-7070176D01*
G01X6070581Y-7052002D01*
G01X6074163Y-7032845D01*
G01X6074163Y-7013355D01*
G01X6070581Y-6994198D01*
G01X6063541Y-6976024D01*
G01X6053281Y-6959454D01*
G01X6040151Y-6945051D01*
G01X6024598Y-6933306D01*
G01X6007152Y-6924619D01*
G01X5988406Y-6919285D01*
G01X5969000Y-6917487D01*
G01X5969000Y-6917487D01*
G01X5949594Y-6919285D01*
G01X5930848Y-6924619D01*
G01X5913402Y-6933306D01*
G01X5897849Y-6945051D01*
G01X5884719Y-6959454D01*
G01X5874459Y-6976024D01*
G01X5867419Y-6994198D01*
G01X5863837Y-7013355D01*
G01X4819639Y-7013355D01*
G01X4565639Y-6759355D01*
G01X5863837Y-6759355D01*
G01X5863837Y-6778845D01*
G01X5867419Y-6798002D01*
G01X5874459Y-6816176D01*
G01X5884719Y-6832746D01*
G01X5897849Y-6847149D01*
G01X5913402Y-6858894D01*
G01X5930848Y-6867581D01*
G01X5949594Y-6872915D01*
G01X5969000Y-6874713D01*
G01X5988406Y-6872915D01*
G01X6007152Y-6867581D01*
G01X6024598Y-6858894D01*
G01X6040151Y-6847149D01*
G01X6053281Y-6832746D01*
G01X6063541Y-6816176D01*
G01X6070581Y-6798002D01*
G01X6074163Y-6778845D01*
G01X6074163Y-6759355D01*
G01X6070581Y-6740198D01*
G01X6063541Y-6722024D01*
G01X6053281Y-6705454D01*
G01X6040151Y-6691051D01*
G01X6024598Y-6679306D01*
G01X6007152Y-6670619D01*
G01X5988406Y-6665285D01*
G01X5969000Y-6663487D01*
G01X5969000Y-6663487D01*
G01X5949594Y-6665285D01*
G01X5930848Y-6670619D01*
G01X5913402Y-6679306D01*
G01X5897849Y-6691051D01*
G01X5884719Y-6705454D01*
G01X5874459Y-6722024D01*
G01X5867419Y-6740198D01*
G01X5863837Y-6759355D01*
G01X4565639Y-6759355D01*
G01X4297881Y-6491598D01*
G01X4297881Y-6491598D01*
G01X4296414Y-6476813D01*
G01X4291117Y-6462932D01*
G01X4282363Y-6450927D01*
G01X4270765Y-6441640D01*
G01X4257137Y-6435723D01*
G01X4242433Y-6433590D01*
G01X4227685Y-6435391D01*
G01X4213926Y-6440999D01*
G01X4202122Y-6450022D01*
G01X4193099Y-6461826D01*
G01X4187491Y-6475585D01*
G01X4185690Y-6490333D01*
G01X3531354Y-6490333D01*
G01X3530581Y-6486198D01*
G01X3523541Y-6468024D01*
G01X3513281Y-6451454D01*
G01X3500151Y-6437051D01*
G01X3484598Y-6425306D01*
G01X3467152Y-6416619D01*
G01X3448406Y-6411285D01*
G01X3429000Y-6409487D01*
G01X3429000Y-6409487D01*
G01X3409594Y-6411285D01*
G01X3390848Y-6416619D01*
G01X3373402Y-6425306D01*
G01X3357849Y-6437051D01*
G01X3344719Y-6451454D01*
G01X3334459Y-6468024D01*
G01X3327419Y-6486198D01*
G01X3323837Y-6505355D01*
G01X2113502Y-6505355D01*
G01X2111420Y-6502194D01*
G01X2098173Y-6488524D01*
G01X2082613Y-6477558D01*
G01X2082613Y-6251355D01*
G01X3323837Y-6251355D01*
G01X3323837Y-6270845D01*
G01X3327419Y-6290002D01*
G01X3334459Y-6308176D01*
G01X3344719Y-6324746D01*
G01X3357849Y-6339149D01*
G01X3373402Y-6350894D01*
G01X3390848Y-6359581D01*
G01X3409594Y-6364915D01*
G01X3429000Y-6366713D01*
G01X3448406Y-6364915D01*
G01X3467152Y-6359581D01*
G01X3484598Y-6350894D01*
G01X3500151Y-6339149D01*
G01X3513281Y-6324746D01*
G01X3523541Y-6308176D01*
G01X3530581Y-6290002D01*
G01X3534163Y-6270845D01*
G01X3534163Y-6251355D01*
G01X5863837Y-6251355D01*
G01X5863837Y-6270845D01*
G01X5867419Y-6290002D01*
G01X5874459Y-6308176D01*
G01X5884719Y-6324746D01*
G01X5897849Y-6339149D01*
G01X5913402Y-6350894D01*
G01X5930848Y-6359581D01*
G01X5949594Y-6364915D01*
G01X5969000Y-6366713D01*
G01X5988406Y-6364915D01*
G01X6007152Y-6359581D01*
G01X6024598Y-6350894D01*
G01X6040151Y-6339149D01*
G01X6053281Y-6324746D01*
G01X6063541Y-6308176D01*
G01X6070581Y-6290002D01*
G01X6074163Y-6270845D01*
G01X6074163Y-6251355D01*
G01X6070581Y-6232198D01*
G01X6063541Y-6214024D01*
G01X6053281Y-6197454D01*
G01X6040151Y-6183051D01*
G01X6024598Y-6171306D01*
G01X6007152Y-6162619D01*
G01X5988406Y-6157285D01*
G01X5969000Y-6155487D01*
G01X5969000Y-6155487D01*
G01X5949594Y-6157285D01*
G01X5930848Y-6162619D01*
G01X5913402Y-6171306D01*
G01X5897849Y-6183051D01*
G01X5884719Y-6197454D01*
G01X5874459Y-6214024D01*
G01X5867419Y-6232198D01*
G01X5863837Y-6251355D01*
G01X3534163Y-6251355D01*
G01X3534163Y-6251355D01*
G01X3530581Y-6232198D01*
G01X3523541Y-6214024D01*
G01X3513281Y-6197454D01*
G01X3500151Y-6183051D01*
G01X3484598Y-6171306D01*
G01X3467152Y-6162619D01*
G01X3448406Y-6157285D01*
G01X3429000Y-6155487D01*
G01X3429000Y-6155487D01*
G01X3409594Y-6157285D01*
G01X3390848Y-6162619D01*
G01X3373402Y-6171306D01*
G01X3357849Y-6183051D01*
G01X3344719Y-6197454D01*
G01X3334459Y-6214024D01*
G01X3327419Y-6232198D01*
G01X3323837Y-6251355D01*
G01X2082613Y-6251355D01*
G01X2082613Y-4471070D01*
G01X2113305Y-4440378D01*
G01X3652316Y-5979389D01*
G01X3662799Y-5987432D01*
G01X3675006Y-5992489D01*
G01X3688105Y-5994213D01*
G01X7601458Y-5994213D01*
G01X7612423Y-6009773D01*
G01X7626093Y-6023020D01*
G01X7641990Y-6033490D01*
G01X7659558Y-6040819D01*
G01X7678184Y-6044749D01*
G01X7697215Y-6045143D01*
G01X7715987Y-6041988D01*
G01X7733844Y-6035394D01*
G01X7750161Y-6025591D01*
G01X7764368Y-6012922D01*
G01X7775968Y-5997829D01*
G01X7784557Y-5980842D01*
G01X7789833Y-5962552D01*
G01X7791613Y-5943600D01*
G01X7790738Y-5934281D01*
G01X8471134Y-5934281D01*
G01X8471134Y-5952919D01*
G01X8475010Y-5971150D01*
G01X8482590Y-5988177D01*
G01X8493546Y-6003256D01*
G01X8507397Y-6015727D01*
G01X8523538Y-6025046D01*
G01X8541264Y-6030806D01*
G01X8559800Y-6032754D01*
G01X8578336Y-6030806D01*
G01X8596062Y-6025046D01*
G01X8612203Y-6015727D01*
G01X8626054Y-6003256D01*
G01X8637010Y-5988177D01*
G01X8644590Y-5971150D01*
G01X8648466Y-5952919D01*
G01X8648466Y-5934281D01*
G01X8644590Y-5916050D01*
G01X8637010Y-5899023D01*
G01X8626054Y-5883944D01*
G01X8612203Y-5871473D01*
G01X8596062Y-5862154D01*
G01X8578336Y-5856394D01*
G01X8559800Y-5854446D01*
G01X8559800Y-5854446D01*
G01X8541264Y-5856394D01*
G01X8523538Y-5862154D01*
G01X8507397Y-5871473D01*
G01X8493546Y-5883944D01*
G01X8482590Y-5899023D01*
G01X8475010Y-5916050D01*
G01X8471134Y-5934281D01*
G01X7790738Y-5934281D01*
G01X7789833Y-5924648D01*
G01X7784557Y-5906358D01*
G01X7775968Y-5889371D01*
G01X7764368Y-5874278D01*
G01X7750161Y-5861609D01*
G01X7733844Y-5851806D01*
G01X7715987Y-5845212D01*
G01X7697215Y-5842057D01*
G01X7678184Y-5842451D01*
G01X7659558Y-5846381D01*
G01X7641990Y-5853710D01*
G01X7626093Y-5864180D01*
G01X7612423Y-5877427D01*
G01X7601458Y-5892987D01*
G01X3709070Y-5892987D01*
G01X2642286Y-4826202D01*
G01X8398048Y-4826202D01*
G01X8399997Y-4836004D01*
G01X8405550Y-4844314D01*
G01X8413859Y-4849866D01*
G01X8423661Y-4851816D01*
G01X8576061Y-4851816D01*
G01X8585863Y-4849866D01*
G01X8594172Y-4844314D01*
G01X8599725Y-4836004D01*
G01X8601674Y-4826202D01*
G01X8601674Y-4673802D01*
G01X8599725Y-4664001D01*
G01X8594172Y-4655691D01*
G01X8585863Y-4650139D01*
G01X8576061Y-4648189D01*
G01X8423661Y-4648189D01*
G01X8413859Y-4650139D01*
G01X8405550Y-4655691D01*
G01X8399997Y-4664001D01*
G01X8398048Y-4673802D01*
G01X8398048Y-4826202D01*
G01X8398048Y-4826202D01*
G01X2642286Y-4826202D01*
G01X2299183Y-4483100D01*
G01X3911387Y-4483100D01*
G01X3911387Y-4635500D01*
G01X3913336Y-4645302D01*
G01X3918889Y-4653611D01*
G01X3927198Y-4659164D01*
G01X3937000Y-4661113D01*
G01X4089400Y-4661113D01*
G01X4089400Y-4661113D01*
G01X4099202Y-4659164D01*
G01X4107511Y-4653611D01*
G01X4113064Y-4645302D01*
G01X4115013Y-4635500D01*
G01X4115013Y-4483100D01*
G01X4165387Y-4483100D01*
G01X4165387Y-4635500D01*
G01X4167336Y-4645302D01*
G01X4172889Y-4653611D01*
G01X4181198Y-4659164D01*
G01X4191000Y-4661113D01*
G01X4343400Y-4661113D01*
G01X4343400Y-4661113D01*
G01X4353202Y-4659164D01*
G01X4361511Y-4653611D01*
G01X4367064Y-4645302D01*
G01X4369013Y-4635500D01*
G01X4369013Y-4483100D01*
G01X4419387Y-4483100D01*
G01X4419387Y-4635500D01*
G01X4421336Y-4645302D01*
G01X4426889Y-4653611D01*
G01X4435198Y-4659164D01*
G01X4445000Y-4661113D01*
G01X4597400Y-4661113D01*
G01X4597400Y-4661113D01*
G01X4607202Y-4659164D01*
G01X4615511Y-4653611D01*
G01X4621064Y-4645302D01*
G01X4623013Y-4635500D01*
G01X4623013Y-4483100D01*
G01X4673387Y-4483100D01*
G01X4673387Y-4635500D01*
G01X4675336Y-4645302D01*
G01X4680889Y-4653611D01*
G01X4689198Y-4659164D01*
G01X4699000Y-4661113D01*
G01X4851400Y-4661113D01*
G01X4851400Y-4661113D01*
G01X4861202Y-4659164D01*
G01X4869511Y-4653611D01*
G01X4875064Y-4645302D01*
G01X4877013Y-4635500D01*
G01X4877013Y-4483100D01*
G01X4927387Y-4483100D01*
G01X4927387Y-4635500D01*
G01X4929336Y-4645302D01*
G01X4934889Y-4653611D01*
G01X4943198Y-4659164D01*
G01X4953000Y-4661113D01*
G01X5105400Y-4661113D01*
G01X5105400Y-4661113D01*
G01X5115202Y-4659164D01*
G01X5123511Y-4653611D01*
G01X5129064Y-4645302D01*
G01X5131013Y-4635500D01*
G01X5131013Y-4483100D01*
G01X5181387Y-4483100D01*
G01X5181387Y-4635500D01*
G01X5183336Y-4645302D01*
G01X5188889Y-4653611D01*
G01X5197198Y-4659164D01*
G01X5207000Y-4661113D01*
G01X5359400Y-4661113D01*
G01X5359400Y-4661113D01*
G01X5369202Y-4659164D01*
G01X5377511Y-4653611D01*
G01X5383064Y-4645302D01*
G01X5385013Y-4635500D01*
G01X5385013Y-4486683D01*
G01X8411195Y-4486683D01*
G01X8411195Y-4505322D01*
G01X8415071Y-4523553D01*
G01X8422651Y-4540579D01*
G01X8433607Y-4555658D01*
G01X8447458Y-4568130D01*
G01X8463599Y-4577449D01*
G01X8481325Y-4583208D01*
G01X8499861Y-4585156D01*
G01X8518397Y-4583208D01*
G01X8536123Y-4577449D01*
G01X8552264Y-4568130D01*
G01X8566115Y-4555658D01*
G01X8577071Y-4540579D01*
G01X8584652Y-4523553D01*
G01X8588527Y-4505322D01*
G01X8588527Y-4486683D01*
G01X8584652Y-4468452D01*
G01X8577071Y-4451425D01*
G01X8566115Y-4436347D01*
G01X8552264Y-4423875D01*
G01X8536123Y-4414556D01*
G01X8518397Y-4408797D01*
G01X8499861Y-4406848D01*
G01X8499861Y-4406848D01*
G01X8481325Y-4408797D01*
G01X8463599Y-4414556D01*
G01X8447458Y-4423875D01*
G01X8433607Y-4436347D01*
G01X8422651Y-4451425D01*
G01X8415071Y-4468452D01*
G01X8411195Y-4486683D01*
G01X5385013Y-4486683D01*
G01X5385013Y-4483100D01*
G01X5383064Y-4473298D01*
G01X5377511Y-4464989D01*
G01X5369202Y-4459436D01*
G01X5359400Y-4457487D01*
G01X5207000Y-4457487D01*
G01X5197198Y-4459436D01*
G01X5188889Y-4464989D01*
G01X5183336Y-4473298D01*
G01X5181387Y-4483100D01*
G01X5131013Y-4483100D01*
G01X5129064Y-4473298D01*
G01X5123511Y-4464989D01*
G01X5115202Y-4459436D01*
G01X5105400Y-4457487D01*
G01X4953000Y-4457487D01*
G01X4943198Y-4459436D01*
G01X4934889Y-4464989D01*
G01X4929336Y-4473298D01*
G01X4927387Y-4483100D01*
G01X4877013Y-4483100D01*
G01X4875064Y-4473298D01*
G01X4869511Y-4464989D01*
G01X4861202Y-4459436D01*
G01X4851400Y-4457487D01*
G01X4699000Y-4457487D01*
G01X4689198Y-4459436D01*
G01X4680889Y-4464989D01*
G01X4675336Y-4473298D01*
G01X4673387Y-4483100D01*
G01X4623013Y-4483100D01*
G01X4621064Y-4473298D01*
G01X4615511Y-4464989D01*
G01X4607202Y-4459436D01*
G01X4597400Y-4457487D01*
G01X4445000Y-4457487D01*
G01X4435198Y-4459436D01*
G01X4426889Y-4464989D01*
G01X4421336Y-4473298D01*
G01X4419387Y-4483100D01*
G01X4369013Y-4483100D01*
G01X4367064Y-4473298D01*
G01X4361511Y-4464989D01*
G01X4353202Y-4459436D01*
G01X4343400Y-4457487D01*
G01X4191000Y-4457487D01*
G01X4181198Y-4459436D01*
G01X4172889Y-4464989D01*
G01X4167336Y-4473298D01*
G01X4165387Y-4483100D01*
G01X4115013Y-4483100D01*
G01X4113064Y-4473298D01*
G01X4107511Y-4464989D01*
G01X4099202Y-4459436D01*
G01X4089400Y-4457487D01*
G01X3937000Y-4457487D01*
G01X3927198Y-4459436D01*
G01X3918889Y-4464989D01*
G01X3913336Y-4473298D01*
G01X3911387Y-4483100D01*
G01X2299183Y-4483100D01*
G01X2167190Y-4351107D01*
G01X2167190Y-3422134D01*
G01X4016368Y-3422134D01*
G01X4019600Y-3436635D01*
G01X4026262Y-3449915D01*
G01X4035955Y-3461175D01*
G01X4048095Y-3469739D01*
G01X4061955Y-3475092D01*
G01X4076700Y-3476913D01*
G01X4091445Y-3475092D01*
G01X4105305Y-3469739D01*
G01X4117445Y-3461175D01*
G01X4127138Y-3449915D01*
G01X4133800Y-3436635D01*
G01X4137032Y-3422134D01*
G01X4136639Y-3407282D01*
G01X4132644Y-3392971D01*
G01X4125288Y-3380063D01*
G01X4115013Y-3369331D01*
G01X4115013Y-3025770D01*
G01X4228887Y-2911897D01*
G01X4228887Y-2946400D01*
G01X4230192Y-2956316D01*
G01X4234020Y-2965557D01*
G01X4240108Y-2973492D01*
G01X5281711Y-4015094D01*
G01X5289646Y-4021183D01*
G01X5298886Y-4025010D01*
G01X5308802Y-4026316D01*
G01X8405532Y-4026316D01*
G01X8414395Y-4043333D01*
G01X8426293Y-4058385D01*
G01X8440804Y-4070937D01*
G01X8457412Y-4080544D01*
G01X8475528Y-4086865D01*
G01X8494507Y-4089675D01*
G01X8513677Y-4088874D01*
G01X8532357Y-4084491D01*
G01X8549882Y-4076681D01*
G01X8565631Y-4065722D01*
G01X8774690Y-4274781D01*
G01X8774690Y-4462648D01*
G01X8593654Y-4281612D01*
G01X8599597Y-4262467D01*
G01X8601673Y-4242528D01*
G01X8599803Y-4222570D01*
G01X8594058Y-4203364D01*
G01X8584662Y-4185657D01*
G01X8571978Y-4170134D01*
G01X8556498Y-4157396D01*
G01X8538823Y-4147939D01*
G01X8519638Y-4142128D01*
G01X8499686Y-4140189D01*
G01X8479740Y-4142197D01*
G01X8460575Y-4148074D01*
G01X8442933Y-4157592D01*
G01X8427497Y-4170382D01*
G01X8414867Y-4185949D01*
G01X8405532Y-4203689D01*
G01X5362772Y-4203689D01*
G01X4581504Y-3422420D01*
G01X4581181Y-3407566D01*
G01X4577254Y-3393237D01*
G01X4569960Y-3380294D01*
G01X4559736Y-3369514D01*
G01X4547197Y-3361545D01*
G01X4533096Y-3356865D01*
G01X4518280Y-3355757D01*
G01X4503639Y-3358286D01*
G01X4490054Y-3364301D01*
G01X4478340Y-3373440D01*
G01X4469201Y-3385154D01*
G01X4463186Y-3398739D01*
G01X4460657Y-3413380D01*
G01X4461765Y-3428196D01*
G01X4466445Y-3442297D01*
G01X4474414Y-3454836D01*
G01X4485194Y-3465060D01*
G01X4498137Y-3472354D01*
G01X4512466Y-3476281D01*
G01X4527320Y-3476604D01*
G01X5319811Y-4269094D01*
G01X5327746Y-4275183D01*
G01X5336986Y-4279010D01*
G01X5346902Y-4280316D01*
G01X8405532Y-4280316D01*
G01X8414915Y-4298129D01*
G01X8427621Y-4313747D01*
G01X8443151Y-4326560D01*
G01X8460899Y-4336066D01*
G01X8480170Y-4341894D01*
G01X8500212Y-4343815D01*
G01X8520240Y-4341756D01*
G01X8539470Y-4335795D01*
G01X8734050Y-4530374D01*
G01X8734050Y-6114893D01*
G01X8734050Y-6114893D01*
G01X8011476Y-6837467D01*
G01X6345550Y-6837467D01*
G01X6065684Y-6557601D01*
G01X6071845Y-6539123D01*
G01X6074507Y-6519828D01*
G01X6073581Y-6500372D01*
G01X6069098Y-6481417D01*
G01X6061210Y-6463607D01*
G01X6050185Y-6447549D01*
G01X6036400Y-6433789D01*
G01X6020321Y-6422795D01*
G01X6002497Y-6414940D01*
G01X5983534Y-6410492D01*
G01X5964076Y-6409602D01*
G01X5944786Y-6412300D01*
G01X5926319Y-6418495D01*
G01X5909305Y-6427976D01*
G01X5894320Y-6440420D01*
G01X5881876Y-6455405D01*
G01X5872395Y-6472419D01*
G01X5866200Y-6490886D01*
G01X5863502Y-6510176D01*
G01X5864392Y-6529634D01*
G01X5868840Y-6548597D01*
G01X5876695Y-6566421D01*
G01X5887689Y-6582500D01*
G01X5901449Y-6596285D01*
G01X5917507Y-6607310D01*
G01X5935317Y-6615198D01*
G01X5954272Y-6619681D01*
G01X5973728Y-6620607D01*
G01X5993023Y-6617945D01*
G01X6011501Y-6611784D01*
G01X6295817Y-6896100D01*
G01X6011501Y-7180416D01*
G01X5993023Y-7174255D01*
G01X5973728Y-7171593D01*
G01X5954272Y-7172519D01*
G01X5935317Y-7177002D01*
G01X5917507Y-7184890D01*
G01X5901449Y-7195915D01*
G01X5887689Y-7209700D01*
G01X5876695Y-7225779D01*
G01X5868840Y-7243603D01*
G01X5864392Y-7262566D01*
G01X5863502Y-7282024D01*
G01X5866200Y-7301314D01*
G01X5872395Y-7319781D01*
G01X5881876Y-7336795D01*
G01X5894320Y-7351780D01*
G01X5909305Y-7364224D01*
G01X5926319Y-7373705D01*
G01X5944786Y-7379900D01*
G01X5964076Y-7382598D01*
G01X5983534Y-7381708D01*
G01X6002497Y-7377260D01*
G01X6020321Y-7369405D01*
G01X6036400Y-7358411D01*
G01X6050185Y-7344651D01*
G01X6061210Y-7328593D01*
G01X6069098Y-7310783D01*
G01X6073581Y-7291828D01*
G01X6074507Y-7272372D01*
G01X6071845Y-7253077D01*
G01X6065684Y-7234599D01*
G01X6345550Y-6954733D01*
G01X8044180Y-6954733D01*
G01X8054096Y-6953428D01*
G01X8063337Y-6949600D01*
G01X8071272Y-6943512D01*
G01X8840095Y-6174688D01*
G01X8846184Y-6166753D01*
G01X8850011Y-6157513D01*
G01X8851317Y-6147597D01*
G01X8851317Y-4258911D01*
G01X8850011Y-4248995D01*
G01X8846184Y-4239754D01*
G01X8840095Y-4231819D01*
G01X8601538Y-3993263D01*
G01X8600896Y-3975433D01*
G01X8597150Y-3957988D01*
G01X8590416Y-3941465D01*
G01X8580902Y-3926372D01*
G01X8568899Y-3913171D01*
G01X8554776Y-3902268D01*
G01X8538966Y-3893998D01*
G01X8521956Y-3888615D01*
G01X8504267Y-3886284D01*
G01X8486442Y-3887077D01*
G01X8469030Y-3890969D01*
G01X8452564Y-3897842D01*
G01X8437551Y-3907482D01*
G01X8424452Y-3919596D01*
G01X8413668Y-3933810D01*
G01X8405532Y-3949689D01*
G01X6232035Y-3949689D01*
G01X6235287Y-3936822D01*
G01X6235426Y-3923552D01*
G01X6232444Y-3910620D01*
G01X6226509Y-3898750D01*
G01X6217953Y-3888605D01*
G01X6217953Y-3818430D01*
G01X6302381Y-3734002D01*
G01X8398048Y-3734002D01*
G01X8400004Y-3753865D01*
G01X8405798Y-3772965D01*
G01X8415206Y-3790567D01*
G01X8427868Y-3805995D01*
G01X8443297Y-3818657D01*
G01X8460899Y-3828066D01*
G01X8479998Y-3833859D01*
G01X8499861Y-3835816D01*
G01X8519724Y-3833859D01*
G01X8538823Y-3828066D01*
G01X8556426Y-3818657D01*
G01X8571854Y-3805995D01*
G01X8584516Y-3790567D01*
G01X8593924Y-3772965D01*
G01X8599718Y-3753865D01*
G01X8601674Y-3734002D01*
G01X8599718Y-3714140D01*
G01X8593924Y-3695040D01*
G01X8584516Y-3677438D01*
G01X8571854Y-3662010D01*
G01X8556426Y-3649348D01*
G01X8538823Y-3639939D01*
G01X8519724Y-3634145D01*
G01X8499861Y-3632189D01*
G01X8499861Y-3632189D01*
G01X8479998Y-3634145D01*
G01X8460899Y-3639939D01*
G01X8443297Y-3649348D01*
G01X8427868Y-3662010D01*
G01X8415206Y-3677438D01*
G01X8405798Y-3695040D01*
G01X8400004Y-3714140D01*
G01X8398048Y-3734002D01*
G01X6302381Y-3734002D01*
G01X6556381Y-3480002D01*
G01X8398048Y-3480002D01*
G01X8400004Y-3499865D01*
G01X8405798Y-3518965D01*
G01X8415206Y-3536567D01*
G01X8427868Y-3551995D01*
G01X8443297Y-3564657D01*
G01X8460899Y-3574066D01*
G01X8479998Y-3579859D01*
G01X8499861Y-3581816D01*
G01X8519724Y-3579859D01*
G01X8538823Y-3574066D01*
G01X8556426Y-3564657D01*
G01X8571854Y-3551995D01*
G01X8584516Y-3536567D01*
G01X8593924Y-3518965D01*
G01X8599718Y-3499865D01*
G01X8601674Y-3480002D01*
G01X8599718Y-3460140D01*
G01X8593924Y-3441040D01*
G01X8584516Y-3423438D01*
G01X8571854Y-3408010D01*
G01X8556426Y-3395348D01*
G01X8538823Y-3385939D01*
G01X8519724Y-3380145D01*
G01X8499861Y-3378189D01*
G01X8499861Y-3378189D01*
G01X8479998Y-3380145D01*
G01X8460899Y-3385939D01*
G01X8443297Y-3395348D01*
G01X8427868Y-3408010D01*
G01X8415206Y-3423438D01*
G01X8405798Y-3441040D01*
G01X8400004Y-3460140D01*
G01X8398048Y-3480002D01*
G01X6556381Y-3480002D01*
G01X6656492Y-3379892D01*
G01X6662580Y-3371957D01*
G01X6666408Y-3362716D01*
G01X6667713Y-3352800D01*
G01X6667713Y-2334615D01*
G01X6666408Y-2324699D01*
G01X6662580Y-2315459D01*
G01X6656492Y-2307524D01*
G01X6591324Y-2242356D01*
G01X6589929Y-2227882D01*
G01X6584861Y-2214253D01*
G01X6576463Y-2202384D01*
G01X6565296Y-2193071D01*
G01X6552111Y-2186940D01*
G01X6537794Y-2184402D01*
G01X6523305Y-2185629D01*
G01X6509618Y-2190537D01*
G01X6497651Y-2198797D01*
G01X6488209Y-2209854D01*
G01X6481925Y-2222966D01*
G01X6479221Y-2237253D01*
G01X6465078Y-2239367D01*
G01X6451929Y-2244987D01*
G01X6440628Y-2253748D01*
G01X6431908Y-2265080D01*
G01X6426335Y-2278249D01*
G01X6424272Y-2292399D01*
G01X6410010Y-2295147D01*
G01X6396931Y-2301464D01*
G01X6385911Y-2310926D01*
G01X6377690Y-2322900D01*
G01X6372817Y-2336582D01*
G01X6371619Y-2351057D01*
G01X6374176Y-2365355D01*
G01X6380317Y-2378517D01*
G01X6389631Y-2389662D01*
G01X6401494Y-2398043D01*
G01X6415110Y-2403099D01*
G01X6429567Y-2404491D01*
G01X6481304Y-2456227D01*
G01X6481304Y-3307012D01*
G01X5997789Y-3790528D01*
G01X5991700Y-3798463D01*
G01X5987872Y-3807704D01*
G01X5986567Y-3817620D01*
G01X5986567Y-3888605D01*
G01X5978010Y-3898750D01*
G01X5972075Y-3910620D01*
G01X5969094Y-3923552D01*
G01X5969233Y-3936822D01*
G01X5972485Y-3949689D01*
G01X5324672Y-3949689D01*
G01X4305513Y-2930530D01*
G01X4305513Y-2883113D01*
G01X4343400Y-2883113D01*
G01X4353202Y-2881164D01*
G01X4361511Y-2875611D01*
G01X4367064Y-2867302D01*
G01X4369013Y-2857500D01*
G01X4369013Y-2705100D01*
G01X4369013Y-2705100D01*
G01X4419387Y-2705100D01*
G01X4419387Y-2857500D01*
G01X4421336Y-2867302D01*
G01X4426889Y-2875611D01*
G01X4435198Y-2881164D01*
G01X4445000Y-2883113D01*
G01X4597400Y-2883113D01*
G01X4607202Y-2881164D01*
G01X4615511Y-2875611D01*
G01X4621064Y-2867302D01*
G01X4623013Y-2857500D01*
G01X4623013Y-2705100D01*
G01X4686046Y-2705100D01*
G01X4686046Y-2857500D01*
G01X4687782Y-2863977D01*
G01X4692523Y-2868718D01*
G01X4699000Y-2870454D01*
G01X4851400Y-2870454D01*
G01X4857877Y-2868718D01*
G01X4862618Y-2863977D01*
G01X4864354Y-2857500D01*
G01X4864354Y-2705100D01*
G01X4927387Y-2705100D01*
G01X4927387Y-2857500D01*
G01X4929336Y-2867302D01*
G01X4934889Y-2875611D01*
G01X4943198Y-2881164D01*
G01X4953000Y-2883113D01*
G01X5105400Y-2883113D01*
G01X5115202Y-2881164D01*
G01X5123511Y-2875611D01*
G01X5129064Y-2867302D01*
G01X5131013Y-2857500D01*
G01X5131013Y-2705100D01*
G01X5181387Y-2705100D01*
G01X5181387Y-2857500D01*
G01X5183336Y-2867302D01*
G01X5188889Y-2875611D01*
G01X5197198Y-2881164D01*
G01X5207000Y-2883113D01*
G01X5359400Y-2883113D01*
G01X5369202Y-2881164D01*
G01X5377511Y-2875611D01*
G01X5383064Y-2867302D01*
G01X5385013Y-2857500D01*
G01X5385013Y-2705100D01*
G01X5383064Y-2695298D01*
G01X5377511Y-2686989D01*
G01X5369202Y-2681436D01*
G01X5359400Y-2679487D01*
G01X5207000Y-2679487D01*
G01X5207000Y-2679487D01*
G01X5197198Y-2681436D01*
G01X5188889Y-2686989D01*
G01X5183336Y-2695298D01*
G01X5181387Y-2705100D01*
G01X5131013Y-2705100D01*
G01X5129064Y-2695298D01*
G01X5123511Y-2686989D01*
G01X5115202Y-2681436D01*
G01X5105400Y-2679487D01*
G01X4953000Y-2679487D01*
G01X4953000Y-2679487D01*
G01X4943198Y-2681436D01*
G01X4934889Y-2686989D01*
G01X4929336Y-2695298D01*
G01X4927387Y-2705100D01*
G01X4864354Y-2705100D01*
G01X4862618Y-2698623D01*
G01X4857877Y-2693882D01*
G01X4851400Y-2692146D01*
G01X4699000Y-2692146D01*
G01X4699000Y-2692146D01*
G01X4692523Y-2693882D01*
G01X4687782Y-2698623D01*
G01X4686046Y-2705100D01*
G01X4623013Y-2705100D01*
G01X4621795Y-2697295D01*
G01X4618256Y-2690232D01*
G01X4612733Y-2684583D01*
G01X5462800Y-1834517D01*
G01X7240040Y-1834517D01*
G01X7241841Y-1849265D01*
G01X7247449Y-1863024D01*
G01X7256472Y-1874828D01*
G01X7268276Y-1883851D01*
G01X7282035Y-1889459D01*
G01X7296783Y-1891260D01*
G01X7311487Y-1889127D01*
G01X7325115Y-1883210D01*
G01X7336713Y-1873923D01*
G01X7345467Y-1861918D01*
G01X7350764Y-1848037D01*
G01X7352231Y-1833252D01*
G01X7669291Y-1516193D01*
G01X7688399Y-1522128D01*
G01X7708299Y-1524212D01*
G01X7728222Y-1522363D01*
G01X7747399Y-1516654D01*
G01X7765089Y-1507304D01*
G01X7780609Y-1494676D01*
G01X7793359Y-1479256D01*
G01X7802848Y-1461640D01*
G01X7808708Y-1442508D01*
G01X7810713Y-1422600D01*
G01X7808786Y-1402685D01*
G01X7803002Y-1383530D01*
G01X7793583Y-1365877D01*
G01X7780893Y-1350407D01*
G01X7780893Y-1350407D01*
G01X7765423Y-1337717D01*
G01X7747770Y-1328298D01*
G01X7728615Y-1322514D01*
G01X7708700Y-1320587D01*
G01X7688792Y-1322592D01*
G01X7669660Y-1328452D01*
G01X7652044Y-1337941D01*
G01X7636624Y-1350691D01*
G01X7623996Y-1366211D01*
G01X7614646Y-1383901D01*
G01X7608937Y-1403078D01*
G01X7607088Y-1423001D01*
G01X7609172Y-1442901D01*
G01X7615107Y-1462009D01*
G01X7298048Y-1779069D01*
G01X7283263Y-1780536D01*
G01X7269382Y-1785833D01*
G01X7257377Y-1794587D01*
G01X7248090Y-1806185D01*
G01X7242173Y-1819813D01*
G01X7240040Y-1834517D01*
G01X5462800Y-1834517D01*
G01X5951117Y-1346200D01*
G01X7111746Y-1346200D01*
G01X7111746Y-1498600D01*
G01X7113482Y-1505077D01*
G01X7118223Y-1509818D01*
G01X7124700Y-1511554D01*
G01X7277100Y-1511554D01*
G01X7277100Y-1511554D01*
G01X7283577Y-1509818D01*
G01X7288318Y-1505077D01*
G01X7290054Y-1498600D01*
G01X7290054Y-1422400D01*
G01X7353087Y-1422400D01*
G01X7355043Y-1442263D01*
G01X7360837Y-1461362D01*
G01X7370245Y-1478964D01*
G01X7382907Y-1494393D01*
G01X7398336Y-1507055D01*
G01X7415938Y-1516463D01*
G01X7435037Y-1522257D01*
G01X7454900Y-1524213D01*
G01X7474763Y-1522257D01*
G01X7493862Y-1516463D01*
G01X7511464Y-1507055D01*
G01X7526893Y-1494393D01*
G01X7539555Y-1478964D01*
G01X7548963Y-1461362D01*
G01X7554757Y-1442263D01*
G01X7556713Y-1422400D01*
G01X7554757Y-1402537D01*
G01X7548963Y-1383438D01*
G01X7539555Y-1365836D01*
G01X7526893Y-1350407D01*
G01X7511464Y-1337745D01*
G01X7493862Y-1328337D01*
G01X7474763Y-1322543D01*
G01X7454900Y-1320587D01*
G01X7435037Y-1322543D01*
G01X7415938Y-1328337D01*
G01X7398336Y-1337745D01*
G01X7382907Y-1350407D01*
G01X7370245Y-1365836D01*
G01X7360837Y-1383438D01*
G01X7355043Y-1402537D01*
G01X7353087Y-1422400D01*
G01X7353087Y-1422400D01*
G01X7290054Y-1422400D01*
G01X7290054Y-1346200D01*
G01X7288318Y-1339723D01*
G01X7283577Y-1334982D01*
G01X7277100Y-1333246D01*
G01X7124700Y-1333246D01*
G01X7118223Y-1334982D01*
G01X7113482Y-1339723D01*
G01X7111746Y-1346200D01*
G01X5951117Y-1346200D01*
G01X6928945Y-368372D01*
G01X6948769Y-367461D01*
G01X6968040Y-362722D01*
G01X6986026Y-354334D01*
G01X7002042Y-342616D01*
G01X7015482Y-328014D01*
G01X7025833Y-311083D01*
G01X7032703Y-292464D01*
G01X7035831Y-272867D01*
G01X7035603Y-266695D01*
G01X7099051Y-266695D01*
G01X7100999Y-285231D01*
G01X7106759Y-302957D01*
G01X7116078Y-319098D01*
G01X7128549Y-332949D01*
G01X7143628Y-343905D01*
G01X7160655Y-351485D01*
G01X7178886Y-355361D01*
G01X7197524Y-355361D01*
G01X7215755Y-351485D01*
G01X7232782Y-343905D01*
G01X7247861Y-332949D01*
G01X7260332Y-319098D01*
G01X7269651Y-302957D01*
G01X7275411Y-285231D01*
G01X7277359Y-266695D01*
G01X7275411Y-248159D01*
G01X7269651Y-230433D01*
G01X7260332Y-214292D01*
G01X7247861Y-200441D01*
G01X7234172Y-190495D01*
G01X7340392Y-190495D01*
G01X7340392Y-342895D01*
G01X7342341Y-352697D01*
G01X7347894Y-361006D01*
G01X7356203Y-366559D01*
G01X7366005Y-368508D01*
G01X7518405Y-368508D01*
G01X7518405Y-368508D01*
G01X7528207Y-366559D01*
G01X7536516Y-361006D01*
G01X7542069Y-352697D01*
G01X7544018Y-342895D01*
G01X7544018Y-190495D01*
G01X7542069Y-180693D01*
G01X7536516Y-172384D01*
G01X7528207Y-166831D01*
G01X7518405Y-164882D01*
G01X7366005Y-164882D01*
G01X7356203Y-166831D01*
G01X7347894Y-172384D01*
G01X7342341Y-180693D01*
G01X7340392Y-190495D01*
G01X7234172Y-190495D01*
G01X7232782Y-189485D01*
G01X7215755Y-181904D01*
G01X7197524Y-178029D01*
G01X7178886Y-178029D01*
G01X7160655Y-181904D01*
G01X7143628Y-189485D01*
G01X7128549Y-200441D01*
G01X7116078Y-214292D01*
G01X7106759Y-230433D01*
G01X7100999Y-248159D01*
G01X7099051Y-266695D01*
G01X7099051Y-266695D01*
G01X7035603Y-266695D01*
G01X7035098Y-253036D01*
G01X7030532Y-233723D01*
G01X7022305Y-215663D01*
G01X7010732Y-199541D01*
G01X6996251Y-185972D01*
G01X6979413Y-175469D01*
G01X6960857Y-168432D01*
G01X6941289Y-165128D01*
G01X6921451Y-165684D01*
G01X6902098Y-170077D01*
G01X6883965Y-178140D01*
G01X6867741Y-189569D01*
G01X6854042Y-203927D01*
G01X6843388Y-220671D01*
G01X6836185Y-239162D01*
G01X6832706Y-258700D01*
G01X6833083Y-278542D01*
G01X6837303Y-297934D01*
G01X6845203Y-316138D01*
G01X6856486Y-332465D01*
G01X4509464Y-2679487D01*
G01X4445000Y-2679487D01*
G01X4445000Y-2679487D01*
G01X4435198Y-2681436D01*
G01X4426889Y-2686989D01*
G01X4421336Y-2695298D01*
G01X4419387Y-2705100D01*
G01X4369013Y-2705100D01*
G01X4368370Y-2699395D01*
G01X4366472Y-2693977D01*
G01X6692713Y-367737D01*
G01X6711884Y-363455D01*
G01X6729875Y-355570D01*
G01X6746018Y-344378D01*
G01X6759711Y-330293D01*
G01X6770445Y-313841D01*
G01X6777819Y-295635D01*
G01X6781560Y-276351D01*
G01X6781527Y-256707D01*
G01X6777724Y-237435D01*
G01X6770290Y-219253D01*
G01X6759502Y-202836D01*
G01X6745763Y-188797D01*
G01X6729584Y-177657D01*
G01X6711566Y-169832D01*
G01X6692381Y-165612D01*
G01X6672743Y-165155D01*
G01X6653383Y-168478D01*
G01X6635021Y-175457D01*
G01X6618341Y-185832D01*
G01X6603964Y-199218D01*
G01X6592424Y-215115D01*
G01X6584153Y-232932D01*
G01X6579457Y-252006D01*
G01X6578511Y-271626D01*
G01X6581351Y-291064D01*
G01X6587871Y-309594D01*
G01X6597827Y-326527D01*
G01X6610850Y-341233D01*
G01X4272596Y-2679487D01*
G01X4191000Y-2679487D01*
G01X4181198Y-2681436D01*
G01X4172889Y-2686989D01*
G01X4167336Y-2695298D01*
G01X4165387Y-2705100D01*
G01X4165387Y-2857500D01*
G01X4166730Y-2865687D01*
G01X4049608Y-2982808D01*
G01X4043520Y-2990743D01*
G01X4039692Y-2999984D01*
G01X4038387Y-3009900D01*
G01X4038387Y-3369331D01*
G01X4028112Y-3380063D01*
G01X4020756Y-3392971D01*
G01X4016761Y-3407282D01*
G01X4016368Y-3422134D01*
G01X2167190Y-3422134D01*
G01X2167190Y-2705100D01*
G01X3911387Y-2705100D01*
G01X3911387Y-2857500D01*
G01X3913336Y-2867302D01*
G01X3918889Y-2875611D01*
G01X3927198Y-2881164D01*
G01X3937000Y-2883113D01*
G01X4089400Y-2883113D01*
G01X4099202Y-2881164D01*
G01X4107511Y-2875611D01*
G01X4113064Y-2867302D01*
G01X4115013Y-2857500D01*
G01X4115013Y-2705100D01*
G01X4113064Y-2695298D01*
G01X4107511Y-2686989D01*
G01X4099202Y-2681436D01*
G01X4089400Y-2679487D01*
G01X3937000Y-2679487D01*
G01X3937000Y-2679487D01*
G01X3927198Y-2681436D01*
G01X3918889Y-2686989D01*
G01X3913336Y-2695298D01*
G01X3911387Y-2705100D01*
G01X2167190Y-2705100D01*
G01X2167190Y-1231900D01*
G01X4096766Y-1231900D01*
G01X4098587Y-1251549D01*
G01X4103987Y-1270529D01*
G01X4112783Y-1288193D01*
G01X4124675Y-1303941D01*
G01X4139258Y-1317235D01*
G01X4156035Y-1327623D01*
G01X4174436Y-1334752D01*
G01X4193833Y-1338378D01*
G01X4213567Y-1338378D01*
G01X4232964Y-1334752D01*
G01X4251365Y-1327623D01*
G01X4268142Y-1317235D01*
G01X4282725Y-1303941D01*
G01X4294617Y-1288193D01*
G01X4303413Y-1270529D01*
G01X4308813Y-1251549D01*
G01X4310634Y-1231900D01*
G01X4309732Y-1222161D01*
G01X4338504Y-1222161D01*
G01X4338640Y-1243178D01*
G01X4342452Y-1263846D01*
G01X4349825Y-1283528D01*
G01X4360529Y-1301616D01*
G01X4374234Y-1317550D01*
G01X4390516Y-1330839D01*
G01X4408874Y-1341072D01*
G01X4428740Y-1347934D01*
G01X4449500Y-1351212D01*
G01X4470514Y-1350805D01*
G01X4491131Y-1346726D01*
G01X4510717Y-1339100D01*
G01X4682542Y-1510925D01*
G01X4682542Y-1510925D01*
G01X4690477Y-1517014D01*
G01X4699717Y-1520841D01*
G01X4709633Y-1522147D01*
G01X5328983Y-1522147D01*
G01X5339035Y-1530643D01*
G01X5350790Y-1536563D01*
G01X5363601Y-1539583D01*
G01X5376763Y-1539535D01*
G01X5389551Y-1536423D01*
G01X5401263Y-1530417D01*
G01X5411254Y-1521849D01*
G01X5418974Y-1511189D01*
G01X5423998Y-1499024D01*
G01X5426051Y-1486023D01*
G01X5440601Y-1483511D01*
G01X5453991Y-1477290D01*
G01X5465296Y-1467792D01*
G01X5473732Y-1455674D01*
G01X5478715Y-1441776D01*
G01X5479900Y-1427058D01*
G01X5477205Y-1412541D01*
G01X5470817Y-1399230D01*
G01X5461178Y-1388045D01*
G01X5448955Y-1379762D01*
G01X5434995Y-1374954D01*
G01X5420264Y-1373954D01*
G01X4997118Y-950808D01*
G01X4989183Y-944720D01*
G01X4979943Y-940892D01*
G01X4970027Y-939587D01*
G01X4824990Y-939587D01*
G01X4816534Y-920346D01*
G01X4804839Y-902882D01*
G01X4790268Y-887736D01*
G01X4773271Y-875374D01*
G01X4754372Y-866178D01*
G01X4734155Y-860434D01*
G01X4713244Y-858317D01*
G01X4692286Y-859893D01*
G01X4671927Y-865114D01*
G01X4652797Y-873818D01*
G01X4635486Y-885737D01*
G01X4620529Y-900502D01*
G01X4608387Y-917658D01*
G01X4599437Y-936674D01*
G01X4593953Y-956964D01*
G01X4592107Y-977900D01*
G01X4593953Y-998836D01*
G01X4599437Y-1019126D01*
G01X4608387Y-1038142D01*
G01X4620529Y-1055298D01*
G01X4635486Y-1070063D01*
G01X4652797Y-1081982D01*
G01X4671927Y-1090686D01*
G01X4692286Y-1095907D01*
G01X4713244Y-1097483D01*
G01X4734155Y-1095366D01*
G01X4754372Y-1089622D01*
G01X4773271Y-1080426D01*
G01X4790268Y-1068064D01*
G01X4804839Y-1052918D01*
G01X4816534Y-1035454D01*
G01X4824990Y-1016213D01*
G01X4954157Y-1016213D01*
G01X5365818Y-1427874D01*
G01X5352192Y-1430614D01*
G01X5339657Y-1436619D01*
G01X5328983Y-1445520D01*
G01X4725503Y-1445520D01*
G01X4564900Y-1284917D01*
G01X4572526Y-1265331D01*
G01X4576605Y-1244714D01*
G01X4576853Y-1231900D01*
G01X4592107Y-1231900D01*
G01X4593924Y-1252667D01*
G01X4599319Y-1272803D01*
G01X4608129Y-1291697D01*
G01X4620086Y-1308773D01*
G01X4634827Y-1323514D01*
G01X4651903Y-1335471D01*
G01X4670797Y-1344281D01*
G01X4690933Y-1349676D01*
G01X4711700Y-1351493D01*
G01X4732467Y-1349676D01*
G01X4752603Y-1344281D01*
G01X4771497Y-1335471D01*
G01X4788573Y-1323514D01*
G01X4803314Y-1308773D01*
G01X4815271Y-1291697D01*
G01X4824081Y-1272803D01*
G01X4829476Y-1252667D01*
G01X4831293Y-1231900D01*
G01X4829476Y-1211133D01*
G01X4824081Y-1190997D01*
G01X4815271Y-1172103D01*
G01X4803314Y-1155027D01*
G01X4788573Y-1140286D01*
G01X4771497Y-1128329D01*
G01X4752603Y-1119519D01*
G01X4732467Y-1114124D01*
G01X4711700Y-1112307D01*
G01X4690933Y-1114124D01*
G01X4670797Y-1119519D01*
G01X4651903Y-1128329D01*
G01X4634827Y-1140286D01*
G01X4620086Y-1155027D01*
G01X4608129Y-1172103D01*
G01X4599319Y-1190997D01*
G01X4593924Y-1211133D01*
G01X4592107Y-1231900D01*
G01X4592107Y-1231900D01*
G01X4576853Y-1231900D01*
G01X4577012Y-1223700D01*
G01X4573734Y-1202940D01*
G01X4566872Y-1183074D01*
G01X4556639Y-1164716D01*
G01X4543350Y-1148434D01*
G01X4527416Y-1134729D01*
G01X4509328Y-1124025D01*
G01X4489646Y-1116652D01*
G01X4468978Y-1112840D01*
G01X4447961Y-1112704D01*
G01X4427244Y-1116250D01*
G01X4407469Y-1123367D01*
G01X4389245Y-1133837D01*
G01X4373135Y-1147335D01*
G01X4359637Y-1163445D01*
G01X4349167Y-1181669D01*
G01X4342050Y-1201444D01*
G01X4338504Y-1222161D01*
G01X4309732Y-1222161D01*
G01X4308813Y-1212251D01*
G01X4303413Y-1193271D01*
G01X4294617Y-1175607D01*
G01X4282725Y-1159859D01*
G01X4268142Y-1146565D01*
G01X4251365Y-1136177D01*
G01X4232964Y-1129048D01*
G01X4213567Y-1125422D01*
G01X4193833Y-1125422D01*
G01X4174436Y-1129048D01*
G01X4156035Y-1136177D01*
G01X4139258Y-1146565D01*
G01X4124675Y-1159859D01*
G01X4112783Y-1175607D01*
G01X4103987Y-1193271D01*
G01X4098587Y-1212251D01*
G01X4096766Y-1231900D01*
G01X4096766Y-1231900D01*
G01X2167190Y-1231900D01*
G01X2167190Y-977900D01*
G01X4084107Y-977900D01*
G01X4085924Y-998667D01*
G01X4091319Y-1018803D01*
G01X4100129Y-1037697D01*
G01X4112086Y-1054773D01*
G01X4126827Y-1069514D01*
G01X4143903Y-1081471D01*
G01X4162797Y-1090281D01*
G01X4182933Y-1095676D01*
G01X4203700Y-1097493D01*
G01X4203700Y-1097493D01*
G01X4224467Y-1095676D01*
G01X4244603Y-1090281D01*
G01X4263497Y-1081471D01*
G01X4280573Y-1069514D01*
G01X4295314Y-1054773D01*
G01X4307271Y-1037697D01*
G01X4316081Y-1018803D01*
G01X4321476Y-998667D01*
G01X4323293Y-977900D01*
G01X4338107Y-977900D01*
G01X4339924Y-998667D01*
G01X4345319Y-1018803D01*
G01X4354129Y-1037697D01*
G01X4366086Y-1054773D01*
G01X4380827Y-1069514D01*
G01X4397903Y-1081471D01*
G01X4416797Y-1090281D01*
G01X4436933Y-1095676D01*
G01X4457700Y-1097493D01*
G01X4457700Y-1097493D01*
G01X4478467Y-1095676D01*
G01X4498603Y-1090281D01*
G01X4517497Y-1081471D01*
G01X4534573Y-1069514D01*
G01X4549314Y-1054773D01*
G01X4561271Y-1037697D01*
G01X4570081Y-1018803D01*
G01X4575476Y-998667D01*
G01X4577293Y-977900D01*
G01X4575476Y-957133D01*
G01X4570081Y-936997D01*
G01X4561271Y-918103D01*
G01X4549314Y-901027D01*
G01X4534573Y-886286D01*
G01X4517497Y-874329D01*
G01X4498603Y-865519D01*
G01X4478467Y-860124D01*
G01X4457700Y-858307D01*
G01X4436933Y-860124D01*
G01X4416797Y-865519D01*
G01X4397903Y-874329D01*
G01X4380827Y-886286D01*
G01X4366086Y-901027D01*
G01X4354129Y-918103D01*
G01X4345319Y-936997D01*
G01X4339924Y-957133D01*
G01X4338107Y-977900D01*
G01X4323293Y-977900D01*
G01X4321476Y-957133D01*
G01X4316081Y-936997D01*
G01X4307271Y-918103D01*
G01X4295314Y-901027D01*
G01X4280573Y-886286D01*
G01X4263497Y-874329D01*
G01X4244603Y-865519D01*
G01X4224467Y-860124D01*
G01X4203700Y-858307D01*
G01X4182933Y-860124D01*
G01X4162797Y-865519D01*
G01X4143903Y-874329D01*
G01X4126827Y-886286D01*
G01X4112086Y-901027D01*
G01X4100129Y-918103D01*
G01X4091319Y-936997D01*
G01X4085924Y-957133D01*
G01X4084107Y-977900D01*
G01X2167190Y-977900D01*
G01X2167190Y-677626D01*
G01X2172221Y-664114D01*
G01X2173919Y-649797D01*
G01X2172187Y-635484D01*
G01X2167124Y-621984D01*
G01X2159015Y-610063D01*
G01X2148321Y-600393D01*
G01X2135645Y-593523D01*
G01X2121706Y-589841D01*
G01X2107291Y-589555D01*
G01X2093216Y-592682D01*
G01X2080278Y-599044D01*
G01X2069209Y-608283D01*
G01X2060635Y-619873D01*
G01X2055040Y-633162D01*
G01X2052743Y-647395D01*
G01X2053872Y-661768D01*
G01X2058363Y-675469D01*
G01X2065963Y-687720D01*
G01X2065963Y-4344564D01*
G01X1996211Y-4414316D01*
G01X1988168Y-4424799D01*
G01X1983111Y-4437006D01*
G01X1981387Y-4450105D01*
G01X1981387Y-6477558D01*
G01X1981387Y-6477558D01*
G01X1965827Y-6488524D01*
G01X1952580Y-6502194D01*
G01X1942110Y-6518091D01*
G01X1934781Y-6535659D01*
G01X1930851Y-6554284D01*
G01X1930457Y-6573316D01*
G01X1714713Y-6573316D01*
G01X1714713Y-4575025D01*
G01X1713408Y-4565109D01*
G01X1709580Y-4555869D01*
G01X1703492Y-4547934D01*
G01X628564Y-3473006D01*
G01X620690Y-3466953D01*
G01X611526Y-3463127D01*
G01X601685Y-3461785D01*
G01X601685Y-3423897D01*
G01X599736Y-3414096D01*
G01X594183Y-3405786D01*
G01X585874Y-3400234D01*
G01X576072Y-3398284D01*
G01X423672Y-3398284D01*
G01X413870Y-3400234D01*
G01X405561Y-3405786D01*
G01X400008Y-3414096D01*
G01X398059Y-3423897D01*
G01X398059Y-3576297D01*
G01X165313Y-3576297D01*
G01X165313Y-3343270D01*
G01X988685Y-2519898D01*
G01X994774Y-2511963D01*
G01X998601Y-2502723D01*
G01X999907Y-2492807D01*
G01X999907Y-2001583D01*
G01X1019510Y-1992563D01*
G01X1037096Y-1980058D01*
G01X1052051Y-1964501D01*
G01X1063855Y-1946437D01*
G01X1072097Y-1926494D01*
G01X1076489Y-1905366D01*
G01X1076878Y-1883791D01*
G01X1073250Y-1862519D01*
G01X1065733Y-1842291D01*
G01X1054588Y-1823813D01*
G01X1040203Y-1807728D01*
G01X1023080Y-1794596D01*
G01X1003815Y-1784875D01*
G01X983078Y-1778904D01*
G01X961593Y-1776890D01*
G01X940108Y-1778904D01*
G01X919372Y-1784875D01*
G01X900106Y-1794596D01*
G01X882983Y-1807728D01*
G01X868598Y-1823813D01*
G01X857453Y-1842291D01*
G01X849936Y-1862519D01*
G01X846309Y-1883791D01*
G01X846698Y-1905366D01*
G01X851090Y-1926494D01*
G01X859331Y-1946437D01*
G01X871135Y-1964501D01*
G01X886091Y-1980058D01*
G01X903676Y-1992563D01*
G01X923280Y-2001583D01*
G01X923280Y-2476937D01*
G01X99908Y-3300308D01*
G01X93820Y-3308243D01*
G01X89992Y-3317484D01*
G01X88687Y-3327400D01*
G01X25613Y-3327400D01*
G01X25613Y-1881836D01*
G01X396487Y-1881836D01*
G01X396487Y-1903171D01*
G01X400407Y-1924142D01*
G01X408114Y-1944036D01*
G01X419345Y-1962176D01*
G01X433719Y-1977942D01*
G01X450744Y-1990800D01*
G01X469843Y-2000309D01*
G01X490363Y-2006148D01*
G01X511607Y-2008116D01*
G01X532851Y-2006148D01*
G01X553371Y-2000309D01*
G01X572469Y-1990800D01*
G01X589495Y-1977942D01*
G01X603868Y-1962176D01*
G01X615099Y-1944036D01*
G01X622807Y-1924142D01*
G01X626727Y-1903171D01*
G01X626727Y-1881836D01*
G01X622807Y-1860864D01*
G01X615099Y-1840970D01*
G01X603868Y-1822831D01*
G01X589495Y-1807064D01*
G01X572469Y-1794207D01*
G01X553371Y-1784697D01*
G01X532851Y-1778859D01*
G01X511607Y-1776890D01*
G01X511607Y-1776890D01*
G01X490363Y-1778859D01*
G01X469843Y-1784697D01*
G01X450744Y-1794207D01*
G01X433719Y-1807064D01*
G01X419345Y-1822831D01*
G01X408114Y-1840970D01*
G01X400407Y-1860864D01*
G01X396487Y-1881836D01*
G01X25613Y-1881836D01*
G01X25613Y-1282497D01*
G01X408653Y-1282497D01*
G01X410631Y-1302582D01*
G01X416490Y-1321896D01*
G01X426004Y-1339695D01*
G01X438807Y-1355296D01*
G01X454409Y-1368100D01*
G01X472208Y-1377614D01*
G01X491522Y-1383472D01*
G01X511607Y-1385451D01*
G01X531692Y-1383472D01*
G01X551006Y-1377614D01*
G01X568805Y-1368100D01*
G01X584406Y-1355296D01*
G01X597210Y-1339695D01*
G01X606724Y-1321896D01*
G01X612582Y-1302582D01*
G01X614561Y-1282497D01*
G01X613510Y-1271829D01*
G01X846473Y-1271829D01*
G01X846473Y-1293164D01*
G01X850393Y-1314136D01*
G01X858101Y-1334030D01*
G01X869332Y-1352169D01*
G01X883705Y-1367936D01*
G01X900731Y-1380793D01*
G01X919829Y-1390303D01*
G01X940349Y-1396141D01*
G01X961593Y-1398110D01*
G01X982837Y-1396141D01*
G01X1003357Y-1390303D01*
G01X1022456Y-1380793D01*
G01X1039481Y-1367936D01*
G01X1053855Y-1352169D01*
G01X1065086Y-1334030D01*
G01X1072793Y-1314136D01*
G01X1076713Y-1293164D01*
G01X1076713Y-1271829D01*
G01X1072793Y-1250858D01*
G01X1065086Y-1230964D01*
G01X1053855Y-1212824D01*
G01X1039481Y-1197058D01*
G01X1022456Y-1184200D01*
G01X1003357Y-1174691D01*
G01X982837Y-1168852D01*
G01X961593Y-1166884D01*
G01X961593Y-1166884D01*
G01X940349Y-1168852D01*
G01X919829Y-1174691D01*
G01X900731Y-1184200D01*
G01X883705Y-1197058D01*
G01X869332Y-1212824D01*
G01X858101Y-1230964D01*
G01X850393Y-1250858D01*
G01X846473Y-1271829D01*
G01X613510Y-1271829D01*
G01X612582Y-1262412D01*
G01X606724Y-1243098D01*
G01X597210Y-1225299D01*
G01X584406Y-1209697D01*
G01X568805Y-1196894D01*
G01X551006Y-1187380D01*
G01X531692Y-1181521D01*
G01X511607Y-1179543D01*
G01X511607Y-1179543D01*
G01X491522Y-1181521D01*
G01X472208Y-1187380D01*
G01X454409Y-1196894D01*
G01X438807Y-1209697D01*
G01X426004Y-1225299D01*
G01X416490Y-1243098D01*
G01X410631Y-1262412D01*
G01X408653Y-1282497D01*
G01X25613Y-1282497D01*
G01X25613Y-228600D01*
G01X393746Y-228600D01*
G01X395685Y-255704D01*
G01X401461Y-282257D01*
G01X410957Y-307717D01*
G01X423980Y-331567D01*
G01X440264Y-353321D01*
G01X459479Y-372536D01*
G01X481233Y-388820D01*
G01X505083Y-401843D01*
G01X530543Y-411339D01*
G01X557096Y-417115D01*
G01X584200Y-419054D01*
G01X611304Y-417115D01*
G01X637857Y-411339D01*
G01X663317Y-401843D01*
G01X687167Y-388820D01*
G01X708921Y-372536D01*
G01X728136Y-353321D01*
G01X744420Y-331567D01*
G01X757443Y-307717D01*
G01X766939Y-282257D01*
G01X772715Y-255704D01*
G01X774654Y-228600D01*
G01X772715Y-201496D01*
G01X766939Y-174943D01*
G01X757443Y-149483D01*
G01X744420Y-125633D01*
G01X728136Y-103879D01*
G01X708921Y-84664D01*
G01X687167Y-68380D01*
G01X663317Y-55357D01*
G01X637857Y-45861D01*
G01X611304Y-40085D01*
G01X584200Y-38146D01*
G01X584200Y-38146D01*
G01X557096Y-40085D01*
G01X530543Y-45861D01*
G01X505083Y-55357D01*
G01X481233Y-68380D01*
G01X459479Y-84664D01*
G01X440264Y-103879D01*
G01X423980Y-125633D01*
G01X410957Y-149483D01*
G01X401461Y-174943D01*
G01X395685Y-201496D01*
G01X393746Y-228600D01*
G01X25613Y-228600D01*
G01X25613Y-25613D01*
G01X1021526Y-25613D01*
G01X993032Y-28643D01*
G01X965248Y-35652D01*
G01X938727Y-46502D01*
G01X913996Y-60975D01*
G01X891548Y-78785D01*
G01X871831Y-99577D01*
G01X855235Y-122936D01*
G01X842091Y-148398D01*
G01X832662Y-175457D01*
G01X827134Y-203573D01*
G01X825618Y-232188D01*
G01X828144Y-260731D01*
G01X834662Y-288634D01*
G01X845041Y-315343D01*
G01X859075Y-340325D01*
G01X876486Y-363084D01*
G01X896926Y-383166D01*
G01X919988Y-400172D01*
G01X945215Y-413763D01*
G01X972103Y-423669D01*
G01X1000117Y-429692D01*
G01X1028700Y-431713D01*
G37*
G54D10*
G01X1028700Y-431713D02*
G03X1035874Y-25613I0J203113D01*
G01X8974371Y-25613D01*
G01X8974371Y-10974367D01*
G01X25613Y-10974367D01*
G01X25613Y-25613D01*
G01X1021526Y-25613D01*
G03X1028700Y-431713I7174J-202987D01*
G01X88687Y-8318500D02*
G03X99908Y-8345592I38313J0D01*
G01X760308Y-9005992D01*
G03X787400Y-9017213I27092J27092D01*
G01X2105302Y-9017213D01*
G03X2202413Y-8978900I40998J38313D01*
G03X2105302Y-8940587I-56113J0D01*
G01X803270Y-8940587D01*
G01X165313Y-8302630D01*
G01X165313Y-3343270D01*
G01X988685Y-2519898D01*
G03X999907Y-2492807I-27092J27092D01*
G01X999907Y-2001583D01*
G03X961593Y-1776890I-38313J109080D01*
G03X923280Y-2001583I0J-115613D01*
G01X923280Y-2476937D01*
G01X99908Y-3300308D01*
G03X88687Y-3327400I27092J-27092D01*
G01X88687Y-8318500D01*
G01X584200Y-38146D02*
G03X584200Y-419054I0J-190454D01*
G03X584200Y-38146I0J190454D01*
G01X511607Y-1776890D02*
G03X511607Y-2008116I0J-115613D01*
G03X511607Y-1776890I0J115613D01*
G01X1638087Y-7734300D02*
G03X1649308Y-7761392I38313J0D01*
G01X1938207Y-8050291D01*
G03X2071609Y-8183693I93793J-39609D01*
G01X2158787Y-8270870D01*
G01X2158787Y-8585200D01*
G03X2170008Y-8612292I38313J0D01*
G01X3332316Y-9774599D01*
G03X3503680Y-9891780I96684J-42501D01*
G03X3386499Y-9720416I-74680J74680D01*
G01X2235413Y-8569330D01*
G01X2235413Y-8255000D01*
G03X2224192Y-8227908I-38313J0D01*
G01X2125793Y-8129509D01*
G03X1992391Y-7996107I-93793J39609D01*
G01X1714713Y-7718430D01*
G01X1714713Y-4575025D01*
G03X1703492Y-4547934I-38313J0D01*
G01X628564Y-3473006D01*
G03X601685Y-3461785I-27092J-27092D01*
G01X601685Y-3423897D01*
G03X576072Y-3398284I-25613J0D01*
G01X423672Y-3398284D01*
G03X398059Y-3423897I0J-25613D01*
G01X398059Y-3576297D01*
G03X423672Y-3601911I25613J0D01*
G01X576072Y-3601911D01*
G03X601685Y-3576297I0J25613D01*
G01X601685Y-3554494D01*
G01X1638087Y-4590895D01*
G01X1638087Y-7734300D01*
G01X499872Y-4871911D02*
G03X499872Y-4668284I0J101813D01*
G03X499872Y-4871911I0J-101813D01*
G01X499872Y-4109911D02*
G03X499872Y-3906284I0J101813D01*
G03X499872Y-4109911I0J-101813D01*
G01X499872Y-4617911D02*
G03X499872Y-4414284I0J101813D01*
G03X499872Y-4617911I0J-101813D01*
G01X499872Y-4363911D02*
G03X499872Y-4160284I0J101813D01*
G03X499872Y-4363911I0J-101813D01*
G01X511607Y-1179543D02*
G03X511607Y-1385451I0J-102954D01*
G03X511607Y-1179543I0J102954D01*
G01X499872Y-3843251D02*
G03X499872Y-3664943I0J89154D01*
G03X499872Y-3843251I0J-89154D01*
G01X469687Y-8420100D02*
G03X480908Y-8447192I38313J0D01*
G01X760308Y-8726592D01*
G03X787400Y-8737813I27092J27092D01*
G01X1038502Y-8737813D01*
G03X1135613Y-8699500I40998J38313D01*
G03X1038502Y-8661187I-56113J0D01*
G01X803270Y-8661187D01*
G01X546313Y-8404230D01*
G01X546313Y-7597770D01*
G01X722391Y-7421693D01*
G03X833993Y-7255907I39609J93793D01*
G03X668207Y-7367509I-71993J-71993D01*
G01X480908Y-7554808D01*
G03X469687Y-7581900I27092J-27092D01*
G01X469687Y-8420100D01*
G01X726321Y-9144000D02*
G03X535094Y-9144000I-95613J0D01*
G03X726321Y-9144000I95613J0D01*
G01X695579Y-9992192D02*
G03X721192Y-9966579I0J25613D01*
G01X721192Y-9845421D01*
G03X695579Y-9819808I-25613J0D01*
G01X574421Y-9819808D01*
G03X548808Y-9845421I0J-25613D01*
G01X548808Y-9966579D01*
G03X574421Y-9992192I25613J0D01*
G01X695579Y-9992192D01*
G01X864913Y-5650400D02*
G03X839300Y-5624787I-25613J0D01*
G01X659300Y-5624787D01*
G03X633687Y-5650400I0J-25613D01*
G01X633687Y-5830400D01*
G03X659300Y-5856013I25613J0D01*
G01X839300Y-5856013D01*
G03X864913Y-5830400I0J25613D01*
G01X864913Y-5650400D01*
G01X749300Y-5602013D02*
G03X749300Y-5370787I0J115613D01*
G03X749300Y-5602013I0J-115613D01*
G01X660187Y-6565900D02*
G03X863813Y-6565900I101813J0D01*
G03X660187Y-6565900I-101813J0D01*
G01X660187Y-7073900D02*
G03X863813Y-7073900I101813J0D01*
G03X660187Y-7073900I-101813J0D01*
G01X660187Y-6819900D02*
G03X863813Y-6819900I101813J0D01*
G03X660187Y-6819900I-101813J0D01*
G01X660187Y-7835900D02*
G03X863813Y-7835900I101813J0D01*
G03X660187Y-7835900I-101813J0D01*
G01X660187Y-7581900D02*
G03X863813Y-7581900I101813J0D01*
G03X660187Y-7581900I-101813J0D01*
G01X660187Y-8089900D02*
G03X863813Y-8089900I101813J0D01*
G03X660187Y-8089900I-101813J0D01*
G01X660187Y-8343900D02*
G03X863813Y-8343900I101813J0D01*
G03X660187Y-8343900I-101813J0D01*
G01X949579Y-9979533D02*
G03X962533Y-9966579I0J12954D01*
G01X962533Y-9845421D01*
G03X949579Y-9832467I-12954J0D01*
G01X828421Y-9832467D01*
G03X815467Y-9845421I0J-12954D01*
G01X815467Y-9966579D01*
G03X828421Y-9979533I12954J0D01*
G01X949579Y-9979533D01*
G01X961593Y-1166884D02*
G03X961593Y-1398110I0J-115613D01*
G03X961593Y-1166884I0J115613D01*
G01X1782506Y-9144000D02*
G03X1578879Y-9144000I-101813J0D01*
G03X1782506Y-9144000I101813J0D01*
G01X1930187Y-7073900D02*
G03X2133813Y-7073900I101813J0D01*
G03X1930187Y-7073900I-101813J0D01*
G01X1930187Y-7327900D02*
G03X2133813Y-7327900I101813J0D01*
G03X1930187Y-7327900I-101813J0D01*
G01X1930187Y-7835900D02*
G03X2133813Y-7835900I101813J0D01*
G03X1930187Y-7835900I-101813J0D01*
G01X1930187Y-7581900D02*
G03X2133813Y-7581900I101813J0D01*
G03X1930187Y-7581900I-101813J0D01*
G01X1981387Y-6477558D02*
G03X2032000Y-6667713I50613J-88342D01*
G03X2082613Y-6477558I0J101813D01*
G01X2082613Y-4471070D01*
G01X2113305Y-4440378D01*
G01X3652316Y-5979389D01*
G03X3688105Y-5994213I35789J35789D01*
G01X7601458Y-5994213D01*
G03X7791613Y-5943600I88342J50613D01*
G03X7601458Y-5892987I-101813J0D01*
G01X3709070Y-5892987D01*
G01X2167190Y-4351107D01*
G01X2167190Y-677626D01*
G03X2107291Y-589555I-53885J27756D01*
G03X2065963Y-687720I6015J-60314D01*
G01X2065963Y-4344564D01*
G01X1996211Y-4414316D01*
G03X1981387Y-4450105I35789J-35789D01*
G01X1981387Y-6477558D01*
G01X1942846Y-6819900D02*
G03X2121154Y-6819900I89154J0D01*
G03X1942846Y-6819900I-89154J0D01*
G01X1942846Y-8343900D02*
G03X2121154Y-8343900I89154J0D01*
G03X1942846Y-8343900I-89154J0D01*
G01X2227819Y-284455D02*
G03X2024192Y-284455I-101813J0D01*
G03X2227819Y-284455I101813J0D01*
G01X2122787Y-10325000D02*
G03X2477213Y-10325000I177213J0D01*
G03X2122787Y-10325000I-177213J0D01*
G01X2476739Y-284455D02*
G03X2273112Y-284455I-101813J0D01*
G03X2476739Y-284455I101813J0D01*
G01X2725659Y-284455D02*
G03X2522032Y-284455I-101813J0D01*
G03X2725659Y-284455I101813J0D01*
G01X3250987Y-279400D02*
G03X3454613Y-279400I101813J0D01*
G03X3250987Y-279400I-101813J0D01*
G01X3429000Y-6409487D02*
G03X3429000Y-6620713I0J-105613D01*
G03X3429000Y-6409487I0J105613D01*
G01X3429000Y-6917487D02*
G03X3429000Y-7128713I0J-105613D01*
G03X3429000Y-6917487I0J105613D01*
G01X3429000Y-6663487D02*
G03X3429000Y-6874713I0J-105613D01*
G03X3429000Y-6663487I0J105613D01*
G01X3429000Y-7171487D02*
G03X3429000Y-7382713I0J-105613D01*
G03X3429000Y-7171487I0J105613D01*
G01X3429000Y-8949487D02*
G03X3429000Y-9160713I0J-105613D01*
G03X3429000Y-8949487I0J105613D01*
G01X3429000Y-8695487D02*
G03X3429000Y-8906713I0J-105613D01*
G03X3429000Y-8695487I0J105613D01*
G01X3429000Y-8441487D02*
G03X3429000Y-8652713I0J-105613D01*
G03X3429000Y-8441487I0J105613D01*
G01X3429000Y-9203487D02*
G03X3429000Y-9414713I0J-105613D01*
G03X3429000Y-9203487I0J105613D01*
G01X3429000Y-7679487D02*
G03X3429000Y-7890713I0J-105613D01*
G03X3429000Y-7679487I0J105613D01*
G01X3429000Y-7425487D02*
G03X3429000Y-7636713I0J-105613D01*
G03X3429000Y-7425487I0J105613D01*
G01X3429000Y-8187487D02*
G03X3429000Y-8398713I0J-105613D01*
G03X3429000Y-8187487I0J105613D01*
G01X3429000Y-7933487D02*
G03X3429000Y-8144713I0J-105613D01*
G03X3429000Y-7933487I0J105613D01*
G01X3429000Y-6155487D02*
G03X3429000Y-6366713I0J-105613D01*
G03X3429000Y-6155487I0J105613D01*
G01X3429000Y-9470146D02*
G03X3429000Y-9656054I0J-92954D01*
G03X3429000Y-9470146I0J92954D01*
G01X3504987Y-279400D02*
G03X3708613Y-279400I101813J0D01*
G03X3504987Y-279400I-101813J0D01*
G01X3771646Y-279400D02*
G03X3949954Y-279400I89154J0D01*
G03X3771646Y-279400I-89154J0D01*
G01X3937000Y-2679487D02*
G03X3911387Y-2705100I0J-25613D01*
G01X3911387Y-2857500D01*
G03X3937000Y-2883113I25613J0D01*
G01X4089400Y-2883113D01*
G03X4115013Y-2857500I0J25613D01*
G01X4115013Y-2705100D01*
G03X4089400Y-2679487I-25613J0D01*
G01X3937000Y-2679487D01*
G01X4089400Y-4661113D02*
G03X4115013Y-4635500I0J25613D01*
G01X4115013Y-4483100D01*
G03X4089400Y-4457487I-25613J0D01*
G01X3937000Y-4457487D01*
G03X3911387Y-4483100I0J-25613D01*
G01X3911387Y-4635500D01*
G03X3937000Y-4661113I25613J0D01*
G01X4089400Y-4661113D01*
G01X8734050Y-6114893D02*
G01X8011476Y-6837467D01*
G01X6345550Y-6837467D01*
G01X6065684Y-6557601D01*
G03X5894320Y-6440420I-96684J42501D01*
G03X6011501Y-6611784I74680J-74680D01*
G01X6295817Y-6896100D01*
G01X6011501Y-7180416D01*
G03X5894320Y-7351780I-42501J-96684D01*
G03X6065684Y-7234599I74680J74680D01*
G01X6345550Y-6954733D01*
G01X8044180Y-6954733D01*
G03X8071272Y-6943512I0J38313D01*
G01X8840095Y-6174688D01*
G03X8851317Y-6147597I-27092J27092D01*
G01X8851317Y-4258911D01*
G03X8840095Y-4231819I-38313J0D01*
G01X8601538Y-3993263D01*
G03X8521956Y-3888615I-101677J5260D01*
G03X8405532Y-3949689I-22095J-99387D01*
G01X6232035Y-3949689D01*
G03X6217953Y-3888605I-52395J20086D01*
G01X6217953Y-3818430D01*
G01X6656492Y-3379892D01*
G03X6667713Y-3352800I-27092J27092D01*
G01X6667713Y-2334615D01*
G03X6656492Y-2307524I-38313J0D01*
G01X6591324Y-2242356D01*
G03X6537794Y-2184402I-56081J1898D01*
G03X6479221Y-2237253I-2551J-56055D01*
G03X6424272Y-2292399I1157J-56102D01*
G03X6371619Y-2351057I3398J-56010D01*
G03X6429567Y-2404491I56051J2648D01*
G01X6481304Y-2456227D01*
G01X6481304Y-3307012D01*
G01X5997789Y-3790528D01*
G03X5986567Y-3817620I27092J-27092D01*
G01X5986567Y-3888605D01*
G03X5972485Y-3949689I38313J-40998D01*
G01X5324672Y-3949689D01*
G01X4305513Y-2930530D01*
G01X4305513Y-2883113D01*
G01X4343400Y-2883113D01*
G03X4369013Y-2857500I0J25613D01*
G01X4369013Y-2705100D01*
G03X4366472Y-2693977I-25613J0D01*
G01X6692713Y-367737D01*
G03X6711566Y-169832I-12507J101042D01*
G03X6610850Y-341233I-31361J-96863D01*
G01X4272596Y-2679487D01*
G01X4191000Y-2679487D01*
G03X4165387Y-2705100I0J-25613D01*
G01X4165387Y-2857500D01*
G03X4166730Y-2865687I25613J0D01*
G01X4049608Y-2982808D01*
G03X4038387Y-3009900I27092J-27092D01*
G01X4038387Y-3369331D01*
G03X4076700Y-3476913I38313J-46969D01*
G03X4115013Y-3369331I0J60613D01*
G01X4115013Y-3025770D01*
G01X4228887Y-2911897D01*
G01X4228887Y-2946400D01*
G03X4240108Y-2973492I38313J0D01*
G01X5281711Y-4015094D01*
G03X5308802Y-4026316I27092J27092D01*
G01X8405532Y-4026316D01*
G03X8565631Y-4065722I94329J38313D01*
G01X8774690Y-4274781D01*
G01X8774690Y-4462648D01*
G01X8593654Y-4281612D01*
G03X8538823Y-4147939I-93793J39609D01*
G03X8405532Y-4203689I-38962J-94063D01*
G01X5362772Y-4203689D01*
G01X4581504Y-3422420D01*
G03X4478340Y-3373440I-60304J6120D01*
G03X4527320Y-3476604I42860J-42860D01*
G01X5319811Y-4269094D01*
G03X5346902Y-4280316I27092J27092D01*
G01X8405532Y-4280316D01*
G03X8539470Y-4335795I94329J38313D01*
G01X8734050Y-4530374D01*
G01X8734050Y-6114893D01*
G01X4203700Y-1097493D02*
G03X4203700Y-858307I0J119593D01*
G03X4203700Y-1097493I0J-119593D01*
G01X4096766Y-1231900D02*
G03X4310634Y-1231900I106934J0D01*
G03X4096766Y-1231900I-106934J0D01*
G01X4343400Y-4661113D02*
G03X4369013Y-4635500I0J25613D01*
G01X4369013Y-4483100D01*
G03X4343400Y-4457487I-25613J0D01*
G01X4191000Y-4457487D01*
G03X4165387Y-4483100I0J-25613D01*
G01X4165387Y-4635500D01*
G03X4191000Y-4661113I25613J0D01*
G01X4343400Y-4661113D01*
G01X4297881Y-6491598D02*
G03X4202122Y-6450022I-56081J1898D01*
G03X4243698Y-6545781I39678J-39678D01*
G01X5764108Y-8066192D01*
G03X5791200Y-8077413I27092J27092D01*
G01X5870581Y-8077413D01*
G03X6074613Y-8039100I98419J38313D01*
G03X5870581Y-8000787I-105613J0D01*
G01X5807070Y-8000787D01*
G01X4297881Y-6491598D01*
G01X4322778Y-299999D02*
G03X4677204Y-299999I177213J0D01*
G03X4322778Y-299999I-177213J0D01*
G01X4682542Y-1510925D02*
G03X4709633Y-1522147I27092J27092D01*
G01X5328983Y-1522147D01*
G03X5389551Y-1536423I40998J38313D01*
G03X5426051Y-1486023I-19571J52590D01*
G03X5479900Y-1427058I-2190J56071D01*
G03X5420264Y-1373954I-56039J-2894D01*
G01X4997118Y-950808D01*
G03X4970027Y-939587I-27092J-27092D01*
G01X4824990Y-939587D01*
G03X4592107Y-977900I-113290J-38313D01*
G03X4824990Y-1016213I119593J0D01*
G01X4954157Y-1016213D01*
G01X5365818Y-1427874D01*
G03X5328983Y-1445520I4162J-55959D01*
G01X4725503Y-1445520D01*
G01X4564900Y-1284917D01*
G03X4373135Y-1147335I-107200J53017D01*
G03X4510717Y-1339100I84565J-84565D01*
G01X4682542Y-1510925D01*
G01X4457700Y-1097493D02*
G03X4457700Y-858307I0J119593D01*
G03X4457700Y-1097493I0J-119593D01*
G01X4445000Y-2679487D02*
G03X4419387Y-2705100I0J-25613D01*
G01X4419387Y-2857500D01*
G03X4445000Y-2883113I25613J0D01*
G01X4597400Y-2883113D01*
G03X4623013Y-2857500I0J25613D01*
G01X4623013Y-2705100D01*
G03X4612733Y-2684583I-25613J0D01*
G01X6928945Y-368372D01*
G03X6979413Y-175469I5260J101677D01*
G03X6856486Y-332465I-45208J-91226D01*
G01X4509464Y-2679487D01*
G01X4445000Y-2679487D01*
G01X4597400Y-4661113D02*
G03X4623013Y-4635500I0J25613D01*
G01X4623013Y-4483100D01*
G03X4597400Y-4457487I-25613J0D01*
G01X4445000Y-4457487D01*
G03X4419387Y-4483100I0J-25613D01*
G01X4419387Y-4635500D01*
G03X4445000Y-4661113I25613J0D01*
G01X4597400Y-4661113D01*
G01X4592107Y-1231900D02*
G03X4831293Y-1231900I119593J0D01*
G03X4592107Y-1231900I-119593J0D01*
G01X4851400Y-4661113D02*
G03X4877013Y-4635500I0J25613D01*
G01X4877013Y-4483100D01*
G03X4851400Y-4457487I-25613J0D01*
G01X4699000Y-4457487D01*
G03X4673387Y-4483100I0J-25613D01*
G01X4673387Y-4635500D01*
G03X4699000Y-4661113I25613J0D01*
G01X4851400Y-4661113D01*
G01X4699000Y-2692146D02*
G03X4686046Y-2705100I0J-12954D01*
G01X4686046Y-2857500D01*
G03X4699000Y-2870454I12954J0D01*
G01X4851400Y-2870454D01*
G03X4864354Y-2857500I0J12954D01*
G01X4864354Y-2705100D01*
G03X4851400Y-2692146I-12954J0D01*
G01X4699000Y-2692146D01*
G01X4953000Y-2679487D02*
G03X4927387Y-2705100I0J-25613D01*
G01X4927387Y-2857500D01*
G03X4953000Y-2883113I25613J0D01*
G01X5105400Y-2883113D01*
G03X5131013Y-2857500I0J25613D01*
G01X5131013Y-2705100D01*
G03X5105400Y-2679487I-25613J0D01*
G01X4953000Y-2679487D01*
G01X5105400Y-4661113D02*
G03X5131013Y-4635500I0J25613D01*
G01X5131013Y-4483100D01*
G03X5105400Y-4457487I-25613J0D01*
G01X4953000Y-4457487D01*
G03X4927387Y-4483100I0J-25613D01*
G01X4927387Y-4635500D01*
G03X4953000Y-4661113I25613J0D01*
G01X5105400Y-4661113D01*
G01X5207000Y-2679487D02*
G03X5181387Y-2705100I0J-25613D01*
G01X5181387Y-2857500D01*
G03X5207000Y-2883113I25613J0D01*
G01X5359400Y-2883113D01*
G03X5385013Y-2857500I0J25613D01*
G01X5385013Y-2705100D01*
G03X5359400Y-2679487I-25613J0D01*
G01X5207000Y-2679487D01*
G01X5359400Y-4661113D02*
G03X5385013Y-4635500I0J25613D01*
G01X5385013Y-4483100D01*
G03X5359400Y-4457487I-25613J0D01*
G01X5207000Y-4457487D01*
G03X5181387Y-4483100I0J-25613D01*
G01X5181387Y-4635500D01*
G03X5207000Y-4661113I25613J0D01*
G01X5359400Y-4661113D01*
G01X5969000Y-6917487D02*
G03X5969000Y-7128713I0J-105613D01*
G03X5969000Y-6917487I0J105613D01*
G01X5969000Y-6663487D02*
G03X5969000Y-6874713I0J-105613D01*
G03X5969000Y-6663487I0J105613D01*
G01X5969000Y-9711487D02*
G03X5969000Y-9922713I0J-105613D01*
G03X5969000Y-9711487I0J105613D01*
G01X5969000Y-9203487D02*
G03X5969000Y-9414713I0J-105613D01*
G03X5969000Y-9203487I0J105613D01*
G01X5969000Y-8949487D02*
G03X5969000Y-9160713I0J-105613D01*
G03X5969000Y-8949487I0J105613D01*
G01X5969000Y-8695487D02*
G03X5969000Y-8906713I0J-105613D01*
G03X5969000Y-8695487I0J105613D01*
G01X6065684Y-8589601D02*
G03X5894320Y-8472420I-96684J42501D01*
G03X6011501Y-8643784I74680J-74680D01*
G01X6551508Y-9183792D01*
G03X6578600Y-9195013I27092J27092D01*
G01X6822878Y-9195013D01*
G03X7019021Y-9156700I94329J38313D01*
G03X6822878Y-9118387I-101813J0D01*
G01X6594470Y-9118387D01*
G01X6065684Y-8589601D01*
G01X5969000Y-7679487D02*
G03X5969000Y-7890713I0J-105613D01*
G03X5969000Y-7679487I0J105613D01*
G01X5969000Y-7425487D02*
G03X5969000Y-7636713I0J-105613D01*
G03X5969000Y-7425487I0J105613D01*
G01X5969000Y-8187487D02*
G03X5969000Y-8398713I0J-105613D01*
G03X5969000Y-8187487I0J105613D01*
G01X5969000Y-6155487D02*
G03X5969000Y-6366713I0J-105613D01*
G03X5969000Y-6155487I0J105613D01*
G01X5969000Y-9470146D02*
G03X5969000Y-9656054I0J-92954D01*
G03X5969000Y-9470146I0J92954D01*
G01X6070392Y-266695D02*
G03X6274018Y-266695I101813J0D01*
G03X6070392Y-266695I-101813J0D01*
G01X6324392Y-266695D02*
G03X6528018Y-266695I101813J0D01*
G03X6324392Y-266695I-101813J0D01*
G01X6522787Y-10325000D02*
G03X6877213Y-10325000I177213J0D01*
G03X6522787Y-10325000I-177213J0D01*
G01X7099051Y-266695D02*
G03X7277359Y-266695I89154J0D01*
G03X7099051Y-266695I-89154J0D01*
G01X7277100Y-1511554D02*
G03X7290054Y-1498600I0J12954D01*
G01X7290054Y-1346200D01*
G03X7277100Y-1333246I-12954J0D01*
G01X7124700Y-1333246D01*
G03X7111746Y-1346200I0J-12954D01*
G01X7111746Y-1498600D01*
G03X7124700Y-1511554I12954J0D01*
G01X7277100Y-1511554D01*
G01X7780893Y-1350407D02*
G03X7615107Y-1462009I-71993J-71993D01*
G01X7298048Y-1779069D01*
G03X7256472Y-1874828I-1898J-56081D01*
G03X7352231Y-1833252I39678J39678D01*
G01X7669291Y-1516193D01*
G03X7780893Y-1350407I39609J93793D01*
G01X7518405Y-368508D02*
G03X7544018Y-342895I0J25613D01*
G01X7544018Y-190495D01*
G03X7518405Y-164882I-25613J0D01*
G01X7366005Y-164882D01*
G03X7340392Y-190495I0J-25613D01*
G01X7340392Y-342895D01*
G03X7366005Y-368508I25613J0D01*
G01X7518405Y-368508D01*
G01X7353087Y-1422400D02*
G03X7556713Y-1422400I101813J0D01*
G03X7353087Y-1422400I-101813J0D01*
G01X7689799Y-7291796D02*
G03X7689799Y-7495423I0J-101813D01*
G03X7689799Y-7291796I0J101813D01*
G01X7871579Y-9156700D02*
G03X8062806Y-9156700I95613J0D01*
G03X7871579Y-9156700I-95613J0D01*
G01X8023479Y-9979492D02*
G03X8049092Y-9953879I0J25613D01*
G01X8049092Y-9832721D01*
G03X8023479Y-9807108I-25613J0D01*
G01X7902321Y-9807108D01*
G03X7876708Y-9832721I0J-25613D01*
G01X7876708Y-9953879D01*
G03X7902321Y-9979492I25613J0D01*
G01X8023479Y-9979492D01*
G01X8277479Y-9966833D02*
G03X8290433Y-9953879I0J12954D01*
G01X8290433Y-9832721D01*
G03X8277479Y-9819767I-12954J0D01*
G01X8156321Y-9819767D01*
G03X8143367Y-9832721I0J-12954D01*
G01X8143367Y-9953879D01*
G03X8156321Y-9966833I12954J0D01*
G01X8277479Y-9966833D01*
G01X8499861Y-3378189D02*
G03X8499861Y-3581816I0J-101813D01*
G03X8499861Y-3378189I0J101813D01*
G01X8499861Y-3632189D02*
G03X8499861Y-3835816I0J-101813D01*
G03X8499861Y-3632189I0J101813D01*
G01X8398048Y-4826202D02*
G03X8423661Y-4851816I25613J0D01*
G01X8576061Y-4851816D01*
G03X8601674Y-4826202I0J25613D01*
G01X8601674Y-4673802D01*
G03X8576061Y-4648189I-25613J0D01*
G01X8423661Y-4648189D01*
G03X8398048Y-4673802I0J-25613D01*
G01X8398048Y-4826202D01*
G01X8499861Y-4406848D02*
G03X8499861Y-4585156I0J-89154D01*
G03X8499861Y-4406848I0J89154D01*
G01X8559800Y-7304456D02*
G03X8559800Y-7482764I0J-89154D01*
G03X8559800Y-7304456I0J89154D01*
G01X8559800Y-5854446D02*
G03X8559800Y-6032754I0J-89154D01*
G03X8559800Y-5854446I0J89154D01*
G54D11*
G01X3784854Y-279400D02*
G01X3781806Y-279400D01*
G01X3936746Y-279400D02*
G01X3939794Y-279400D01*
G01X3860800Y-203454D02*
G01X3860800Y-200406D01*
G01X3860800Y-355346D02*
G01X3860800Y-358394D01*
G54D12*
G01X584200Y-405846D02*
G01X584200Y-408894D01*
G01X406954Y-228600D02*
G01X403906Y-228600D01*
G54D11*
G01X4851146Y-2781300D02*
G01X4854194Y-2781300D01*
G01X4699254Y-2781300D02*
G01X4696206Y-2781300D01*
G01X4775200Y-2857246D02*
G01X4775200Y-2860294D01*
G01X4775200Y-2705354D02*
G01X4775200Y-2702306D01*
G54D13*
G01X511607Y-1192751D02*
G01X511607Y-1189703D01*
G01X511607Y-1372243D02*
G01X511607Y-1375291D01*
G01X601353Y-1282497D02*
G01X604401Y-1282497D01*
G01X421861Y-1282497D02*
G01X418813Y-1282497D01*
G54D14*
G01X4109974Y-1231900D02*
G01X4106926Y-1231900D01*
G01X4297426Y-1231900D02*
G01X4300474Y-1231900D01*
G01X4203700Y-1138174D02*
G01X4203700Y-1135126D01*
G01X4203700Y-1325626D02*
G01X4203700Y-1328674D01*
G54D11*
G01X499872Y-3830043D02*
G01X499872Y-3833091D01*
G01X499872Y-3678151D02*
G01X499872Y-3675103D01*
G01X423926Y-3754097D02*
G01X420878Y-3754097D01*
G01X575818Y-3754097D02*
G01X578866Y-3754097D01*
G54D15*
G01X828675Y-9906000D02*
G01X825627Y-9906000D01*
G01X949325Y-9906000D02*
G01X952373Y-9906000D01*
G01X889000Y-9845675D02*
G01X889000Y-9842627D01*
G01X889000Y-9966325D02*
G01X889000Y-9969373D01*
G54D16*
G01X3429000Y-9483354D02*
G01X3429000Y-9480306D01*
G01X3429000Y-9642846D02*
G01X3429000Y-9645894D01*
G01X3508746Y-9563100D02*
G01X3511794Y-9563100D01*
G01X3349254Y-9563100D02*
G01X3346206Y-9563100D01*
G01X5969000Y-9483354D02*
G01X5969000Y-9480306D01*
G01X5969000Y-9642846D02*
G01X5969000Y-9645894D01*
G01X6048746Y-9563100D02*
G01X6051794Y-9563100D01*
G01X5889254Y-9563100D02*
G01X5886206Y-9563100D01*
G54D11*
G01X1956054Y-6819900D02*
G01X1953006Y-6819900D01*
G01X2107946Y-6819900D02*
G01X2110994Y-6819900D01*
G01X2032000Y-6743954D02*
G01X2032000Y-6740906D01*
G01X2032000Y-6895846D02*
G01X2032000Y-6898894D01*
G01X1956054Y-8343900D02*
G01X1953006Y-8343900D01*
G01X2107946Y-8343900D02*
G01X2110994Y-8343900D01*
G01X2032000Y-8267954D02*
G01X2032000Y-8264906D01*
G01X2032000Y-8419846D02*
G01X2032000Y-8422894D01*
G01X7112259Y-266695D02*
G01X7109211Y-266695D01*
G01X7264151Y-266695D02*
G01X7267199Y-266695D01*
G01X7188205Y-190749D02*
G01X7188205Y-187701D01*
G01X7188205Y-342641D02*
G01X7188205Y-345689D01*
G01X7124954Y-1422400D02*
G01X7121906Y-1422400D01*
G01X7276846Y-1422400D02*
G01X7279894Y-1422400D01*
G01X7200900Y-1346454D02*
G01X7200900Y-1343406D01*
G01X7200900Y-1498346D02*
G01X7200900Y-1501394D01*
G54D15*
G01X8156575Y-9893300D02*
G01X8153527Y-9893300D01*
G01X8277225Y-9893300D02*
G01X8280273Y-9893300D01*
G01X8216900Y-9832975D02*
G01X8216900Y-9829927D01*
G01X8216900Y-9953625D02*
G01X8216900Y-9956673D01*
G54D11*
G01X8499861Y-4420056D02*
G01X8499861Y-4417008D01*
G01X8499861Y-4571948D02*
G01X8499861Y-4574996D01*
G01X8575807Y-4496002D02*
G01X8578855Y-4496002D01*
G01X8423915Y-4496002D02*
G01X8420867Y-4496002D01*
G01X8559800Y-7317664D02*
G01X8559800Y-7314616D01*
G01X8559800Y-7469556D02*
G01X8559800Y-7472604D01*
G01X8635746Y-7393610D02*
G01X8638794Y-7393610D01*
G01X8483854Y-7393610D02*
G01X8480806Y-7393610D01*
G01X8559800Y-5867654D02*
G01X8559800Y-5864606D01*
G01X8559800Y-6019546D02*
G01X8559800Y-6022594D01*
G01X8635746Y-5943600D02*
G01X8638794Y-5943600D01*
G01X8483854Y-5943600D02*
G01X8480806Y-5943600D01*
G04 Copper End*

G04 Pad Start*
G54D17*
G01X4711700Y-977900D03*
G01X4457700Y-977900D03*
G01X4203700Y-977900D03*
G01X4203700Y-1231900D03*
G01X4457700Y-1231900D03*
G01X4711700Y-1231900D03*
G54D19*
G01X7962900Y-9893300D03*
G01X8216900Y-9893300D03*
G01X635000Y-9906000D03*
G01X889000Y-9906000D03*
G54D20*
G01X7200900Y-1422400D03*
G54D21*
G01X7454900Y-1422400D03*
G01X7708900Y-1422400D03*
G54D22*
G01X961593Y-1282497D03*
G01X961593Y-1892503D03*
G01X511607Y-1282497D03*
G01X511607Y-1892503D03*
G54D21*
G01X7689799Y-5943600D03*
G01X8559800Y-5943600D03*
G01X8559800Y-7393610D03*
G01X7689799Y-7393610D03*
G54D23*
G01X3429000Y-6261100D03*
G01X3429000Y-6515100D03*
G01X3429000Y-6769100D03*
G01X3429000Y-7023100D03*
G01X3429000Y-7277100D03*
G01X3429000Y-7531100D03*
G01X3429000Y-7785100D03*
G01X3429000Y-8039100D03*
G01X3429000Y-8293100D03*
G01X3429000Y-8547100D03*
G01X3429000Y-8801100D03*
G01X3429000Y-9055100D03*
G01X3429000Y-9309100D03*
G01X3429000Y-9563100D03*
G01X3429000Y-9817100D03*
G01X5969000Y-6261100D03*
G01X5969000Y-6515100D03*
G01X5969000Y-6769100D03*
G01X5969000Y-7023100D03*
G01X5969000Y-7277100D03*
G01X5969000Y-7531100D03*
G01X5969000Y-7785100D03*
G01X5969000Y-8039100D03*
G01X5969000Y-8293100D03*
G01X5969000Y-8547100D03*
G01X5969000Y-8801100D03*
G01X5969000Y-9055100D03*
G01X5969000Y-9309100D03*
G01X5969000Y-9563100D03*
G01X5969000Y-9817100D03*
G54D20*
G01X8499861Y-4750002D03*
G54D21*
G01X8499861Y-4496002D03*
G01X8499861Y-4242002D03*
G01X8499861Y-3988002D03*
G01X8499861Y-3734002D03*
G01X8499861Y-3480002D03*
G54D20*
G01X499872Y-3500097D03*
G54D21*
G01X499872Y-3754097D03*
G01X499872Y-4008097D03*
G01X499872Y-4262097D03*
G01X499872Y-4516097D03*
G01X499872Y-4770097D03*
G54D20*
G01X5283200Y-2781300D03*
G01X5029200Y-2781300D03*
G01X4775200Y-2781300D03*
G01X4521200Y-2781300D03*
G01X4267200Y-2781300D03*
G01X4013200Y-2781300D03*
G01X5283200Y-4559300D03*
G01X5029200Y-4559300D03*
G01X4775200Y-4559300D03*
G01X4521200Y-4559300D03*
G01X4267200Y-4559300D03*
G01X4013200Y-4559300D03*
G54D21*
G01X2032000Y-8343900D03*
G01X2032000Y-8089900D03*
G01X2032000Y-7835900D03*
G01X2032000Y-7581900D03*
G01X2032000Y-7327900D03*
G01X2032000Y-7073900D03*
G01X2032000Y-6819900D03*
G01X2032000Y-6565900D03*
G01X762000Y-6819900D03*
G01X762000Y-7073900D03*
G01X762000Y-7327900D03*
G01X762000Y-7581900D03*
G01X762000Y-7835900D03*
G01X762000Y-8089900D03*
G01X762000Y-8343900D03*
G01X762000Y-6565900D03*
G54D22*
G01X749300Y-5486400D03*
G54D24*
G01X749300Y-5740400D03*
G54D21*
G01X1680693Y-9144000D03*
G54D25*
G01X1680693Y-9144000D03*
G01X630707Y-9144000D03*
G54D21*
G01X6917207Y-9156700D03*
G54D25*
G01X6917207Y-9156700D03*
G01X7967193Y-9156700D03*
G54D20*
G01X7442205Y-266695D03*
G54D21*
G01X7188205Y-266695D03*
G01X6934205Y-266695D03*
G01X6680205Y-266695D03*
G01X6426205Y-266695D03*
G01X6172205Y-266695D03*
G01X2374925Y-284455D03*
G01X2126005Y-284455D03*
G01X2623845Y-284455D03*
G01X3352800Y-279400D03*
G01X3606800Y-279400D03*
G01X3860800Y-279400D03*
G54D26*
G01X1028700Y-228600D03*
G01X584200Y-228600D03*
G04 Pad End*

G04 Via Start*
G54D27*
G01X2113305Y-649869D03*
G01X4076700Y-3416300D03*
G01X4521200Y-3416300D03*
G54D28*
G01X5369980Y-1483833D03*
G01X5423861Y-1429952D03*
G01X6101080Y-3929603D03*
G01X6024880Y-3929603D03*
G01X6427669Y-2348409D03*
G01X6480377Y-2293355D03*
G01X7296150Y-1835150D03*
G01X4241800Y-6489700D03*
G01X2146300Y-8978900D03*
G01X6535242Y-2240458D03*
G01X6179639Y-3929603D03*
G01X1079500Y-8699500D03*
G01X4332503Y-7167603D03*
G01X4832503Y-7167603D03*
G01X5332503Y-7167603D03*
G01X4332503Y-7667603D03*
G01X4832503Y-7667603D03*
G01X5332503Y-7667603D03*
G01X4332503Y-8167603D03*
G01X5332503Y-8167603D03*
G01X4332503Y-8667603D03*
G01X4832503Y-8667603D03*
G01X5332503Y-8667603D03*
G01X4332503Y-9167603D03*
G01X4832503Y-9167603D03*
G01X5332503Y-9167603D03*
G01X1914800Y-1457600D03*
G01X2414800Y-1457600D03*
G01X1914800Y-1957600D03*
G01X2414800Y-1957600D03*
G01X1914800Y-2457600D03*
G01X2414800Y-2457600D03*
G01X1914800Y-2957600D03*
G01X2414800Y-2957600D03*
G01X1914800Y-3457600D03*
G01X2414800Y-3457600D03*
G01X1914800Y-4457600D03*
G01X2414800Y-4457600D03*
G01X1914800Y-4957600D03*
G01X2414800Y-4957600D03*
G01X6311900Y-3924300D03*
G01X6311900Y-4432300D03*
G01X6311900Y-4940300D03*
G01X6311900Y-5448300D03*
G01X6311900Y-6464300D03*
G01X6311900Y-7480300D03*
G01X6311900Y-7988300D03*
G01X6311900Y-8496300D03*
G01X6311900Y-9512300D03*
G01X6311900Y-10020300D03*
G01X6311900Y-10528300D03*
G01X4832503Y-8167603D03*
G01X4927600Y-685800D03*
G01X5286810Y-1045010D03*
G01X6005231Y-1763431D03*
G01X6375683Y-2095500D03*
G01X2799113Y-10325000D03*
G01X2799113Y-9817000D03*
G01X2799113Y-9309000D03*
G01X2799113Y-8293000D03*
G01X2799113Y-7785000D03*
G01X2799113Y-7277000D03*
G01X2799113Y-6769000D03*
G01X2799113Y-6261000D03*
G04 Via End*

G04 Track Start*
G54D29*
G01X3429000Y-9817100D02*
G01X2197100Y-8585200D01*
G01X2197100Y-8255000D01*
G01X2032000Y-8089900D01*
G01X4267200Y-2739066D02*
G01X4267200Y-2781300D01*
G01X6680205Y-266695D02*
G01X6697188Y-283678D01*
G01X6697188Y-309078D01*
G01X4267200Y-2739066D01*
G01X4521200Y-2721934D02*
G01X4521200Y-2781300D01*
G01X6934205Y-266695D02*
G01X6934205Y-308929D01*
G01X4521200Y-2721934D01*
G01X601472Y-3500097D02*
G01X499872Y-3500097D01*
G01X1676400Y-4575025D02*
G01X601472Y-3500097D01*
G01X1676400Y-7734300D02*
G01X1676400Y-4575025D01*
G01X2032000Y-8089900D02*
G01X1676400Y-7734300D01*
G54D30*
G01X2113305Y-4368800D02*
G01X3688105Y-5943600D01*
G01X7689799Y-5943600D01*
G54D29*
G01X4267200Y-2819400D02*
G01X4076700Y-3009900D01*
G01X4076700Y-3416300D01*
G01X4267200Y-2946400D02*
G01X5308802Y-3988002D01*
G01X8499861Y-3988002D01*
G01X4267200Y-2781300D02*
G01X4267200Y-2819400D01*
G01X4267200Y-2946400D01*
G01X4521200Y-3416300D02*
G01X5346902Y-4242002D01*
G01X8499861Y-4242002D01*
G01X7296150Y-1835150D02*
G01X7708900Y-1422400D01*
G01X8027346Y-6875780D02*
G01X8772363Y-6130763D01*
G01X5969000Y-6515100D02*
G01X6329680Y-6875780D01*
G01X8027346Y-6875780D01*
G01X8538938Y-3984846D02*
G01X8503018Y-3984845D01*
G01X8499861Y-3988002D01*
G01X8813003Y-6147597D02*
G01X8813003Y-4258911D01*
G01X8538938Y-3984846D01*
G01X5969000Y-7277100D02*
G01X6329680Y-6916420D01*
G01X8044180Y-6916420D01*
G01X8813003Y-6147597D01*
G01X8772363Y-6130763D02*
G01X8772363Y-4514505D01*
G01X8499861Y-4242002D01*
G01X4711700Y-977900D02*
G01X4970027Y-977900D01*
G01X5418713Y-1426587D01*
G01X4457700Y-1231900D02*
G01X4709633Y-1483833D01*
G01X5369980Y-1483833D01*
G01X5969000Y-8547100D02*
G01X6578600Y-9156700D01*
G01X6917207Y-9156700D01*
G01X4241800Y-6489700D02*
G01X5791200Y-8039100D01*
G01X5969000Y-8039100D01*
G01X961593Y-1892503D02*
G01X961593Y-2492807D01*
G01X127000Y-3327400D01*
G01X127000Y-8318500D01*
G01X6179639Y-3929603D02*
G01X6179639Y-3802561D01*
G01X6519618Y-3322882D02*
G01X6519618Y-2440358D01*
G01X6427669Y-2348409D01*
G01X6101080Y-3929603D02*
G01X6101080Y-3812743D01*
G01X6024880Y-3929603D02*
G01X6024880Y-3817620D01*
G01X6519618Y-3322882D01*
G01X5418713Y-1426587D02*
G01X5420496Y-1426587D01*
G01X5423861Y-1429952D01*
G01X6101080Y-3812743D02*
G01X6576101Y-3337723D01*
G01X6576101Y-2389078D01*
G01X6480377Y-2293355D01*
G01X6179639Y-3802561D02*
G01X6629400Y-3352800D01*
G01X6629400Y-2334615D01*
G01X6535242Y-2240458D01*
G01X508000Y-8420100D02*
G01X508000Y-7581900D01*
G01X762000Y-7327900D01*
G01X1079500Y-8699500D02*
G01X787400Y-8699500D01*
G01X508000Y-8420100D01*
G01X127000Y-8318500D02*
G01X787400Y-8978900D01*
G01X2146300Y-8978900D01*
G54D30*
G01X2113305Y-649869D02*
G01X2116577Y-653141D01*
G01X2032000Y-4450105D02*
G01X2113305Y-4368800D01*
G01X2032000Y-6565900D02*
G01X2032000Y-4450105D01*
G01X2116577Y-653141D02*
G01X2116577Y-4360423D01*
G01X2113305Y-4363695D01*
G01X2113305Y-4368800D01*
G04 Track End*

M02*

